<?xml version="1.0" encoding="UTF-8" standalone="no"?>
<!-- Created with Inkscape (http://www.inkscape.org/) -->

<svg
   width="389.20206mm"
   height="166.15833mm"
   viewBox="0 0 389.20206 166.15833"
   version="1.1"
   id="svg5"
   inkscape:version="1.1.2 (b8e25be833, 2022-02-05)"
   sodipodi:docname="DSFQ_NOT.svg"
   inkscape:export-filename="C:\JoSim\DSFQLib\.Shuntless\mitll_DSFQ_NOT\layout\DSFQ_NOT.png"
   inkscape:export-xdpi="1000.01"
   inkscape:export-ydpi="1000.01"
   xmlns:inkscape="http://www.inkscape.org/namespaces/inkscape"
   xmlns:sodipodi="http://sodipodi.sourceforge.net/DTD/sodipodi-0.dtd"
   xmlns="http://www.w3.org/2000/svg"
   xmlns:svg="http://www.w3.org/2000/svg">
  <sodipodi:namedview
     id="namedview7"
     pagecolor="#ffffff"
     bordercolor="#666666"
     borderopacity="1.0"
     inkscape:pageshadow="2"
     inkscape:pageopacity="0.0"
     inkscape:pagecheckerboard="0"
     inkscape:document-units="mm"
     showgrid="false"
     inkscape:zoom="0.763461"
     inkscape:cx="817.98546"
     inkscape:cy="420.4537"
     inkscape:window-width="2560"
     inkscape:window-height="1017"
     inkscape:window-x="1912"
     inkscape:window-y="32"
     inkscape:window-maximized="1"
     inkscape:current-layer="layer1" />
  <defs
     id="defs2" />
  <g
     inkscape:label="Layer 1"
     inkscape:groupmode="layer"
     id="layer1"
     transform="translate(64.576072,-65.285706)">
    <path
       style="fill:#000000;stroke-width:0.264583"
       d="m 165.88272,230.92159 -0.52244,-0.52244 -0.16899,-0.67332 -0.169,-0.67332 0.33085,-0.79873 0.33084,-0.79872 0.51752,-0.27697 0.51752,-0.27697 0.63682,0.15983 0.63681,0.15983 v 0.26458 0.26458 l -0.66489,-0.16688 -0.66489,-0.16687 -0.37644,0.31241 -0.37643,0.31241 -0.17268,0.78622 -0.17268,0.78622 0.42635,0.65071 0.42636,0.6507 h 0.52307 0.52307 v -0.52917 -0.52916 h -0.26459 -0.26458 v -0.26458 -0.26459 h 0.52917 0.52916 v 0.89774 0.89773 l -0.41851,0.1606 -0.41851,0.1606 h -0.37524 -0.37524 z m 3.43285,-1.72652 v -2.24896 h 0.2013 0.2013 l 0.85084,1.52136 0.85085,1.52135 0.006,-1.52135 0.006,-1.52136 h 0.26458 0.26458 v 2.24896 2.24896 h -0.20129 -0.2013 l -0.85085,-1.52136 -0.85084,-1.52135 -0.006,1.52135 -0.006,1.52136 h -0.26459 -0.26458 z m 3.96875,0 v -2.24896 h 0.66146 0.66146 l 0.52244,0.52244 0.52242,0.52244 0.16899,0.67332 0.16902,0.67332 -0.33086,0.79873 -0.33084,0.79872 -0.47548,0.25448 -0.47548,0.25447 h -0.54658 -0.54655 z m 1.74286,1.06026 0.43215,-0.65953 -0.18275,-0.72805 -0.18272,-0.72805 -0.2757,-0.33221 -0.27572,-0.33221 h -0.36446 -0.36449 v 1.71979 1.71979 h 0.39076 0.39079 z m -6.57312,-6.29803 -2.05213,-1.90598 0.002,-0.19844 0.002,-0.19843 h 1.98438 1.98437 v -3.81863 -3.81863 l 0.53622,-0.17019 0.53621,-0.17019 0.42736,-0.65223 0.42736,-0.65223 -0.29887,-0.65593 -0.29886,-0.65593 -0.66471,-0.25273 -0.66466,-0.25272 v -0.27113 -0.27113 h 0.52307 0.52307 l 0.42488,-0.64845 0.42488,-0.64845 -0.091,-0.47249 -0.091,-0.47249 -0.84676,-0.53271 -0.84676,-0.5327 v -0.13229 -0.1323 l 0.84676,-0.5327 0.84676,-0.53271 0.091,-0.47249 0.091,-0.47249 -0.42488,-0.64845 -0.42488,-0.64845 h -0.52307 -0.52307 v -0.27113 -0.27113 l 0.66471,-0.25272 0.66471,-0.25272 0.29887,-0.65594 0.29886,-0.65593 -0.42736,-0.65223 -0.42736,-0.65223 -0.53621,-0.17019 -0.53622,-0.17019 v -7.45192 -7.45192 l -2.76945,2.76002 -2.76945,2.76003 -0.19384,-0.19385 -0.19385,-0.19384 2.82962,-2.83842 2.82961,-2.83842 -2.83109,-2.83108 -2.83108,-2.83109 0.19531,-0.19532 0.19532,-0.19532 2.76945,2.76002 2.76945,2.76003 -0.005,-10.44632 -0.005,-10.44631 -0.62803,-0.59531 -0.62804,-0.59531 h -15.1715 -15.17153 l 2.76003,2.76944 2.76003,2.76945 -0.19385,0.19385 -0.19385,0.19385 -2.83841,-2.82962 -2.83842,-2.82961 -2.83109,2.83109 -2.83109,2.83108 -0.19532,-0.19532 -0.19532,-0.19532 2.76003,-2.76945 2.76004,-2.76944 h -13.16485 -13.16484 l -0.25272,-0.66471 -0.25272,-0.66471 -0.65594,-0.29887 -0.65593,-0.29886 -0.65223,0.42736 -0.65223,0.42735 -0.17019,0.53622 -0.17019,0.53622 h -0.21807 -0.21807 l -0.16827,-0.67046 -0.16828,-0.67046 -0.65415,-0.29805 -0.65416,-0.29806 -0.65416,0.29806 -0.65416,0.29805 -0.16827,0.67046 -0.16828,0.67046 h -0.21807 -0.21807 l -0.17019,-0.53622 -0.17019,-0.53622 -0.65223,-0.42735 -0.65223,-0.42736 -0.65593,0.29886 -0.65593,0.29887 -0.25272,0.66471 -0.25273,0.66471 h -0.27113 -0.271129 v -0.52307 -0.52307 l -0.648448,-0.42488 -0.648449,-0.42488 -0.47249,0.091 -0.472488,0.091 -0.53271,0.84676 -0.532706,0.84676 -5.915832,0.0102 -5.915835,0.0102 -0.628033,0.59532 -0.628034,0.59531 -0.0046,4.62524 -0.0046,4.62525 2.637275,-2.62738 2.637276,-2.62738 0.195202,0.1952 0.195202,0.1952 -2.831087,2.83109 -2.831089,2.83109 2.829615,2.83842 2.829616,2.83841 -0.193731,0.19373 -0.193728,0.19373 -2.637276,-2.62738 -2.637275,-2.62738 v 7.07264 7.07264 h 0.276609 0.276611 l 0.649431,0.64944 0.649433,0.64943 v 0.77646 0.77647 l -0.500997,0.6187 -0.500996,0.6187 0.500996,0.63692 0.500997,0.63691 v 0.6992 0.6992 l -0.411877,0.58803 -0.41188,0.58804 0.41188,0.58804 0.411877,0.58804 v 0.67601 0.676 l -0.411877,0.58804 -0.41188,0.58804 0.41188,0.58804 0.411877,0.58803 v 0.6992 0.6992 l -0.54837,0.69714 -0.54837,0.69714 h -0.377672 -0.377672 v 3.57187 3.57188 h 1.852084 1.852083 l -0.01225,0.19844 -0.01225,0.19843 -1.96378,2.11667 -1.96378,2.11667 -2.125009,-2.11046 -2.125009,-2.11046 v -0.20465 -0.20464 h 1.984375 1.984375 v -3.71072 -3.71071 l 0.66471,-0.25272 0.66471,-0.25273 0.298863,-0.65593 0.298863,-0.65593 -0.427358,-0.65223 -0.427358,-0.65223 -0.536215,-0.17019 -0.536215,-0.17019 v -0.21807 -0.21807 l 0.670457,-0.16827 0.670457,-0.16828 0.298053,-0.65416 0.298056,-0.65415 -0.298056,-0.65416 -0.298053,-0.65416 -0.670457,-0.16828 -0.670457,-0.16827 v -0.21807 -0.21807 l 0.536215,-0.17019 0.536215,-0.17019 0.427358,-0.65223 0.427358,-0.65223 -0.298863,-0.65593 -0.298863,-0.65593 -0.66471,-0.25272 -0.664702,-0.25272 v -0.27113 -0.27113 h 0.523068 0.523065 l 0.424882,-0.64845 0.424881,-0.64845 -0.09099,-0.47249 -0.091,-0.47248 -0.846762,-0.53271 -0.846762,-0.53271 -0.01019,-7.40361 -0.01019,-7.4036 -2.76945,2.76002 -2.769449,2.76003 -0.193847,-0.19385 -0.193847,-0.19385 2.829616,-2.83841 2.829615,-2.83842 -2.831089,-2.83109 -2.831087,-2.83108 0.195318,-0.19533 0.195321,-0.19531 2.769449,2.76002 2.76945,2.76003 -0.0046,-4.75778 -0.0046,-4.75777 -0.628034,-0.59531 -0.628033,-0.59531 h -2.277814 -2.277811 v -0.35076 -0.35075 l -0.646811,-0.60765 -0.646808,-0.60765 -0.703599,0.1766 -0.703596,0.17659 -0.2951,0.78181 -0.2951,0.78181 h -0.164106 -0.164107 l -0.303157,-0.66536 -0.303155,-0.66536 -0.654518,-0.29821 -0.654516,-0.29822 -0.652229,0.42736 -0.65223,0.42735 -0.170188,0.53622 -0.170191,0.53622 h -0.188745 -0.188746 l -0.295101,-0.78181 -0.2951,-0.78181 -0.703596,-0.17659 -0.703598,-0.1766 -0.646809,0.60765 -0.646811,0.60765 v 0.35075 0.35076 h -0.222013 -0.222115 l -0.303157,-0.66536 -0.303154,-0.66536 -0.654519,-0.29821 -0.654515,-0.29822 -0.672299,0.4405 -0.672295,0.44051 v 0.52307 0.52307 h -4.174533 -4.174532 l -0.453086,0.52916 -0.453088,0.52917 h -0.534345 -0.534344 l -0.453089,-0.52921 -0.453086,-0.52916 h -3.23066 -3.23066 l -0.170191,-0.53622 -0.170188,-0.53622 -0.65223,-0.42735 -0.652229,-0.42736 -0.655931,0.29886 -0.655934,0.29887 -0.252722,0.66471 -0.252722,0.66471 h -0.271132 -0.271132 v -0.52307 -0.52307 l -0.648449,-0.42488 -0.648448,-0.42488 -0.472491,0.091 -0.472487,0.091 -0.53271,0.84676 -0.532707,0.84676 H 37.288482 37.15619 l -0.532707,-0.84676 -0.532709,-0.84676 -0.472488,-0.091 -0.47249,-0.091 -0.648449,0.42488 -0.648449,0.42488 v 0.52307 0.52307 h -0.271131 -0.271132 l -0.252722,-0.66471 -0.252722,-0.66471 -0.655934,-0.29887 -0.655931,-0.29886 -0.65223,0.42736 -0.652229,0.42735 -0.170188,0.53622 -0.170191,0.53622 -4.149357,0.005 -4.149357,0.005 -0.595313,0.62803 -0.595312,0.62804 v 4.72048 4.72048 l 2.769449,-2.76003 2.769449,-2.76002 0.193847,0.19385 0.193847,0.19384 -2.829615,2.83842 -2.829616,2.83841 2.831089,2.83109 2.831087,2.83109 -0.195318,0.19532 -0.195321,0.19532 -2.769446,-2.76004 -2.76945,-2.76002 0.01019,7.13902 0.01019,7.13902 0.849704,0.53279 0.849704,0.53278 0.08268,1.1479 0.08268,1.14791 -0.420085,0.46418 -0.420084,0.4642 0.403551,0.33491 0.40355,0.33492 v 1.12583 1.12583 l -0.392012,0.32534 -0.392014,0.32534 0.392014,0.55968 0.392012,0.55968 v 0.94059 0.94059 l -0.392012,0.55967 -0.392014,0.55968 0.392014,0.32534 0.392012,0.32534 v 1.11723 1.11721 l -0.463021,0.39767 -0.463021,0.39767 -0.46302,0.1642 -0.463021,0.16421 v 3.44788 3.44789 h 1.984375 1.984375 v 0.20464 0.20465 l -2.125009,2.11046 -2.125009,2.11046 -1.96378,-2.11667 -1.96378,-2.11667 -0.01225,-0.19843 -0.01225,-0.19844 h 1.852083 1.852084 l 0.01019,-3.63802 0.01019,-3.63802 0.849704,-0.53464 0.849704,-0.53463 v -0.92058 -0.92057 l -0.859896,-0.37848 -0.859896,-0.37847 v -0.21684 -0.21683 h 0.488159 0.488159 l 0.437883,-0.48386 0.437882,-0.48385 v -0.66576 -0.66577 l -0.483854,-0.43788 -0.483854,-0.43788 h -0.442187 -0.442188 v -0.21684 -0.21683 l 0.859896,-0.37848 0.859896,-0.37848 v -0.92057 -0.92057 l -0.849704,-0.53464 -0.849704,-0.53463 -0.01019,-0.19844 -0.01019,-0.19844 h 0.488159 0.488158 l 0.457716,-0.50577 0.457714,-0.50577 -0.08598,-0.751 -0.08598,-0.751 -0.85417,-0.39688 -0.85417,-0.39687 -0.0057,-7.27108 -0.0057,-7.27108 -2.637274,2.62738 -2.637277,2.62738 -0.193728,-0.19373 -0.19373,-0.19373 2.829615,-2.83841 2.829616,-2.83842 -2.83109,-2.83109 -2.831086,-2.83108 0.195201,-0.19521 0.195202,-0.1952 2.637277,2.62738 2.637274,2.62738 v -4.58795 -4.58796 l -0.595313,-0.62803 -0.595312,-0.62803 -9.4580983,-0.005 -9.45809999,-0.005 2.84351699,2.75404 2.843514,2.75404 -0.207219,0.20926 -0.207219,0.20925 -2.901656,-2.89262 -2.90163499,-2.89264 -2.90163501,2.89264 -2.901636,2.89264 -0.207219,-0.20926 -0.207219,-0.20926 2.843514,-2.75404 2.843517,-2.75403 h -9.3919537 -9.391952 v -0.35076 -0.35075 l -0.646811,-0.60765 -0.646808,-0.60765 -0.703599,0.1766 -0.703595,0.17659 -0.295101,0.78181 -0.2951,0.78181 h -0.164105 -0.164108 l -0.303157,-0.66536 -0.303154,-0.66536 -0.654519,-0.29821 -0.654515,-0.29822 -0.65223,0.42736 -0.65223,0.42735 -0.170188,0.53622 -0.17019,0.53622 h -0.188746 -0.188746 l -0.2951,-0.78181 -0.295101,-0.78181 -0.703595,-0.17659 -0.703599,-0.1766 -0.646808,0.60765 -0.646811,0.60765 v 0.35075 0.35076 l -0.198438,-0.0102 -0.198437,-0.0102 -0.532707,-0.84676 -0.53271,-0.84676 -0.472487,-0.091 -0.47249,-0.091 -0.648449,0.42488 -0.648449,0.42488 v 0.52307 0.52307 h -5.890411 -5.890413 l -1.584066,1.98248 -1.584068,1.98248 -7.47448,0.002 -7.47448,0.002 v -4.10105 -4.10104 h 7.48752 7.48752 l 1.542767,1.85209 1.542766,1.85208 h 5.654088 5.65409 v -0.37767 -0.37767 l 0.69714,-0.54837 0.69714,-0.54837 h 0.699196 0.699199 l 0.588036,0.41187 0.588039,0.41188 0.588039,-0.41188 0.588037,-0.41187 h 0.705567 0.705567 l 0.608579,0.49279 0.608581,0.4928 0.528955,-0.4928 0.528955,-0.49279 h 0.817282 0.817279 l 0.588037,0.41187 0.588039,0.41188 0.588039,-0.41188 0.588037,-0.41187 h 0.746905 0.746906 l 0.64943,0.64943 0.649433,0.64943 v 0.27661 0.27661 h 8.977236 8.9772357 l -2.692006,-2.62516 -2.692006,-2.62516 0.205843,-0.20584 0.205843,-0.20585 2.901636,2.89264 2.90163501,2.89264 2.90163499,-2.89264 2.901635,-2.89264 0.205843,0.20585 0.205843,0.20584 -2.692005,2.62516 -2.69200599,2.62516 H 9.3347677 18.650077 l 0.453086,-0.52917 0.453088,-0.52916 h 0.534345 0.534345 l 0.453088,0.52916 0.453086,0.52917 h 3.916497 3.916498 l 0.245369,-0.64537 0.245369,-0.64537 0.524439,-0.28067 0.524438,-0.28067 h 0.643171 0.64317 l 0.636915,0.50099 0.636913,0.501 0.618705,-0.501 0.618704,-0.50099 h 0.705567 0.705567 l 0.588036,0.41187 0.588039,0.41188 0.58804,-0.41188 0.588036,-0.41187 h 0.705567 0.705567 l 0.608579,0.49279 0.608581,0.4928 0.528955,-0.4928 0.528955,-0.49279 h 0.761254 0.761254 l 0.524438,0.28067 0.524439,0.28067 0.245369,0.64537 0.24537,0.64537 h 2.945817 2.945821 l 0.628034,-0.59531 0.628033,-0.59532 0.0046,-2.84427 0.0046,-2.84427 -0.859896,-0.003 -0.859896,-0.003 -1.349949,-0.62858 -1.349949,-0.62858 -0.99545,-0.99545 -0.995447,-0.99545 -0.628581,-1.34995 -0.628579,-1.34994 v -1.98438 -1.98437 l 0.628579,-1.34995 0.628581,-1.34995 0.995447,-0.99545 0.99545,-0.99545 1.349949,-0.62858 1.349949,-0.62858 0.859896,-0.003 0.859896,-0.003 v -6.35 -6.35 h -1.984375 -1.984375 v -0.20464 -0.20465 l 2.125009,-2.11046 2.125009,-2.11046 1.96378,2.11667 1.96378,2.11667 0.01225,0.19843 0.01225,0.19844 h -1.85211 -1.852083 v 6.35 6.35 l 0.859896,0.003 0.859896,0.003 1.349949,0.62858 1.349949,0.62858 0.99545,0.99545 0.995447,0.99545 0.628581,1.34995 0.628579,1.34995 v 1.98437 1.98438 l -0.628579,1.34994 -0.628581,1.34995 -0.995447,0.99545 -0.99545,0.99545 -1.349949,0.62858 -1.349949,0.62858 -0.859896,0.003 -0.859896,0.003 0.0046,2.84427 0.0046,2.84427 0.628033,0.59532 0.628034,0.59531 h 3.865313 3.865312 v -0.37767 -0.37767 l 0.69714,-0.54837 0.69714,-0.54837 h 0.699196 0.699198 l 0.588036,0.41187 0.58804,0.41188 0.588039,-0.41188 0.588036,-0.41187 h 0.705567 0.705567 l 0.608579,0.49279 0.608581,0.4928 0.528955,-0.4928 0.528955,-0.49279 h 0.876152 0.876152 l 0.486653,0.48665 0.486654,0.48665 0.60099,-0.48665 0.600993,-0.48665 h 0.776465 0.776465 l 0.64943,0.64943 0.649433,0.64943 v 0.27661 0.27661 h 2.057866 2.057866 l 0.453085,-0.52917 0.453089,-0.52916 h 0.534344 0.534345 l 0.453088,0.52916 0.453086,0.52917 h 5.762032 5.762033 v -0.27661 -0.27661 l 0.649433,-0.64943 0.64943,-0.64943 h 0.770096 0.770094 l 0.636915,0.50099 0.636914,0.501 0.6187,-0.501 0.61871,-0.50099 h 0.70556 0.70557 l 0.58804,0.41187 0.58804,0.41188 0.58804,-0.41188 0.58803,-0.41187 h 0.67601 0.67601 l 0.58803,0.41187 0.58804,0.41188 0.58804,-0.41188 0.58804,-0.41187 h 0.81728 0.81728 l 0.57906,0.53947 0.57905,0.53947 v 0.38657 0.38657 h 12.89348 12.89347 l -2.62738,-2.63728 -2.62738,-2.63727 0.19373,-0.19373 0.19373,-0.19373 2.83842,2.82962 2.83841,2.82961 2.83109,-2.83109 2.8311,-2.83109 0.1952,0.19521 0.1952,0.1952 -2.62739,2.63727 -2.62737,2.63728 h 15.039 15.03899 l 0.62804,-0.59531 0.62803,-0.59532 0.005,-11.37235 0.005,-11.37236 -2.76944,2.76003 -2.76945,2.76002 -0.19385,-0.19385 -0.19385,-0.19384 2.82962,-2.83842 2.82961,-2.83841 -2.83109,-2.83109 -2.83108,-2.83109 0.19532,-0.19532 0.19532,-0.19532 2.76945,2.76003 2.76944,2.76002 v -11.33506 -11.33507 l -0.59531,-0.62803 -0.59531,-0.62803 -12.36851,-0.005 -12.36852,-0.005 2.84352,2.75404 2.84351,2.75404 -0.20722,0.20925 -0.20722,0.20926 -2.90165,-2.89262 -2.90164,-2.89264 -2.90164,2.89264 -2.90164,2.89264 -0.20722,-0.20926 -0.20722,-0.20926 2.84352,-2.75404 2.84352,-2.75404 h -9.39196 -9.39195 v -0.35075 -0.35075 l -0.61237,-0.57529 -0.61236,-0.57529 h -0.3871 -0.3871 l -0.58803,0.41188 -0.58804,0.41188 v 0.51416 0.51416 h -0.27113 -0.27113 l -0.25273,-0.66471 -0.25272,-0.66471 -0.65593,-0.29886 -0.65593,-0.29886 -0.65223,0.42736 -0.65223,0.42735 -0.17019,0.53622 -0.17019,0.53621 h -0.21807 -0.21807 l -0.16828,-0.67045 -0.16827,-0.67046 -0.65416,-0.29805 -0.65416,-0.29806 -0.65416,0.29806 -0.65415,0.29805 -0.16828,0.67046 -0.16827,0.67045 h -0.21807 -0.21807 l -0.17019,-0.53621 -0.17019,-0.53622 -0.65223,-0.42735 -0.65223,-0.42736 -0.65593,0.29886 -0.65594,0.29886 -0.25272,0.66471 -0.25272,0.66471 h -4.83863 -4.83863 l -1.58406,1.98249 -1.584069,1.98248 -3.770312,0.002 -3.770313,0.002 v -4.10104 -4.10104 h 3.783354 3.783351 l 1.542767,1.85208 1.542762,1.85209 h 4.48124 4.48123 l 0.87337,-0.92604 0.87337,-0.92605 h 0.76978 0.76978 l 0.58804,0.41188 0.58804,0.41188 0.58804,-0.41188 0.58803,-0.41188 h 0.67601 0.67601 l 0.58804,0.41188 0.58804,0.41188 0.58803,-0.41188 0.58804,-0.41188 h 0.6992 0.6992 l 0.63691,0.501 0.63691,0.501 0.61871,-0.501 0.6187,-0.501 h 0.77647 0.77646 l 0.64943,0.64944 0.64944,0.64943 v 0.27661 0.27661 h 8.97723 8.97724 l -2.69201,-2.62516 -2.692,-2.62516 0.20584,-0.20585 0.20584,-0.20584 2.90164,2.89264 2.90164,2.89263 2.90164,-2.89263 2.90163,-2.89264 0.20584,0.20584 0.20585,0.20585 -2.69201,2.62516 -2.692,2.62516 12.21838,-0.005 12.21838,-0.005 0.59531,-0.62803 0.59531,-0.62803 v -2.80699 -2.80697 l -0.85989,-0.003 -0.8599,-0.003 -1.34995,-0.62858 -1.34995,-0.62858 -0.99545,-0.99545 -0.99544,-0.99545 -0.62858,-1.349946 -0.62858,-1.34995 v -1.98437 -1.98438 l 0.62858,-1.34995 0.62858,-1.34995 0.99544,-0.99545 0.99545,-0.99544 1.34995,-0.62858 1.34995,-0.62858 0.8599,-0.003 0.85989,-0.003 v -6.4823 -6.48229 h -1.98437 -1.98438 v -0.21407 -0.21406 l 2.13854,-1.9404 2.13854,-1.9404 1.9625,1.94941 1.96251,1.9494 v 0.20506 0.20506 h -1.85209 -1.85208 v 6.48229 6.4823 l 0.8599,0.003 0.85989,0.003 1.34996,0.62858 1.34993,0.62858 0.99547,0.99544 0.99544,0.99545 0.62857,1.34995 0.6286,1.34995 v 1.98438 1.98437 l -0.6286,1.34995 -0.62857,1.349946 -0.99544,0.99545 -0.99547,0.99545 -1.34993,0.62858 -1.34996,0.62858 -0.85989,0.003 -0.8599,0.003 v 2.85161 2.85162 l 0.52917,0.45309 0.52916,0.45308 v 0.53435 0.53434 l -0.52916,0.45309 -0.52917,0.45309 v 11.24717 11.24717 l 2.63729,-2.62738 2.63726,-2.62738 0.19373,0.19373 0.19372,0.19373 -2.82961,2.83842 -2.82961,2.83841 2.83109,2.83109 2.8311,2.83109 -0.19521,0.1952 -0.19521,0.19521 -2.63726,-2.62739 -2.63729,-2.62737 v 11.30597 11.30597 h 0.66146 0.66146 v -1.19062 -1.19063 h -0.52917 -0.52917 v -0.26458 -0.26458 h 0.37905 0.37904 l 0.16795,-0.52917 0.16796,-0.52917 h 0.24675 0.24675 v 1.98438 1.98437 h 0.52917 0.52917 v 0.26459 0.26458 h -1.07395 -1.07395 l 0.16352,0.26458 0.16352,0.26459 h 8.71563 8.71564 v -0.37768 -0.37767 l 0.69715,-0.54837 0.69713,-0.54837 h 0.69921 0.69919 l 0.58804,0.41188 0.58803,0.41188 0.58804,-0.41188 0.58804,-0.41188 h 0.69918 0.69922 l 0.6369,0.501 0.63691,0.501 0.61873,-0.501 0.6187,-0.501 h 0.70556 0.70557 l 0.58803,0.41188 0.58804,0.41188 0.58804,-0.41188 0.58803,-0.41188 h 0.74692 0.74689 l 0.64945,0.64944 0.64942,0.64943 v 0.27661 0.27661 h 5.89433 5.89431 l 0.4531,-0.52917 0.45307,-0.52917 h 1.06093 1.06093 v -1.19062 -1.19063 h -0.52917 -0.52917 v -0.26458 -0.26458 h 0.37905 0.37904 l 0.16796,-0.52917 0.16795,-0.52917 h 0.24675 0.24675 v 1.98438 1.98437 h 0.52917 0.52917 v 0.26459 0.26458 h -1.07395 -1.07394 l 0.16351,0.26458 0.16351,0.26459 h 3.95314 3.95314 v -0.37768 -0.37767 l 0.69715,-0.54837 0.69713,-0.54837 h 0.69921 0.69919 l 0.58804,0.41188 0.58803,0.41188 0.58804,-0.41188 0.58804,-0.41188 h 0.70556 0.70557 l 0.60859,0.4928 0.60857,0.4928 0.52895,-0.4928 0.52896,-0.4928 h 0.87617 0.87614 l 0.48664,0.48666 0.48665,0.48665 0.601,-0.48665 0.60101,-0.48666 h 0.77644 0.77647 l 0.64945,0.64944 0.64942,0.64943 v 0.27661 0.27661 h 2.93928 2.93926 l 0.62804,-0.59532 0.62802,-0.59531 0.004,-2.84427 0.004,-2.84427 -0.85989,-0.003 -0.8599,-0.003 -1.34996,-0.62858 -1.34993,-0.62858 -0.99547,-0.99545 -0.99544,-0.99545 -0.62857,-1.34995 -0.6286,-1.34995 v -1.98437 -1.98438 l 0.6286,-1.34995 0.62857,-1.34995 0.99544,-0.99545 0.99547,-0.99544 1.34993,-0.62858 1.34996,-0.62858 0.8599,-0.003 0.85989,-0.003 v -6.35 -6.35 h -1.98437 -1.98438 v -0.20465 -0.20464 l 2.125,-2.11046 2.12503,-2.11046 1.96376,2.11667 1.96379,2.11666 0.0122,0.19844 0.0122,0.19844 h -1.85209 -1.85208 v 6.35 6.35 l 0.8599,0.003 0.85989,0.003 1.34996,0.62858 1.34993,0.62858 0.99547,0.99544 0.99544,0.99545 0.62857,1.34995 0.6286,1.34995 v 1.98438 1.98437 l -0.6286,1.34995 -0.62857,1.34995 -0.99544,0.99545 -0.99547,0.99545 -1.34993,0.62858 -1.34996,0.62858 -0.85989,0.003 -0.8599,0.003 v 2.91042 2.91041 h 0.79375 0.79375 l -0.0209,-1.52135 -0.0209,-1.52136 -0.13346,0.33073 -0.13346,0.33073 h -0.5071 -0.50712 v -0.26458 -0.26458 h 0.33324 0.33322 l 0.33046,-0.52917 0.33046,-0.52917 h 0.26237 0.26233 v 1.98438 1.98437 h 0.52917 0.52916 v 0.26459 0.26458 h -1.20623 -1.20624 l 0.16351,0.26458 0.16352,0.26459 h 3.95314 3.95314 v -0.27661 -0.27661 l 0.64942,-0.64943 0.64944,-0.64944 h 0.74689 0.74692 l 0.58804,0.41188 0.58804,0.41188 0.58803,-0.41188 0.58804,-0.41188 h 0.81727 0.8173 l 0.52895,0.4928 0.52896,0.4928 0.60857,-0.4928 0.60859,-0.4928 h 0.70557 0.70556 l 0.58804,0.41188 0.58803,0.41188 0.58804,-0.41188 0.58804,-0.41188 h 0.69918 0.69922 l 0.69712,0.54837 0.69715,0.54837 v 0.37767 0.37768 h 2.05788 2.05785 l 0.46794,-0.5465 0.46792,-0.5465 0.58306,0.0466 0.58306,0.0466 0.59531,-0.0293 0.59566,-0.0293 -0.0209,-1.52136 -0.0209,-1.52135 -0.13346,0.33073 -0.13346,0.33073 h -0.3748 -0.37484 v -0.13028 -0.13028 l 0.57687,-0.66347 0.5769,-0.66347 h 0.21685 0.21688 v 1.98437 1.98438 h 0.52917 0.52916 v 0.26458 0.26458 h -1.20623 -1.20624 l 0.16352,0.26459 0.16351,0.26458 h 5.93751 5.93752 v -0.38657 -0.38657 l 0.57906,-0.53947 0.57904,-0.53947 h 0.8173 0.81727 l 0.58804,0.41187 0.58804,0.41188 0.58803,-0.41188 0.58804,-0.41187 h 0.67601 0.67601 l 0.58804,0.41187 0.58803,0.41188 0.58804,-0.41188 0.58804,-0.41187 h 0.69918 0.69922 l 0.6369,0.50099 0.63691,0.501 0.61873,-0.501 0.6187,-0.50099 h 0.77644 0.77648 l 0.64944,0.64943 0.64942,0.64943 v 0.27661 0.27661 h 1.69979 1.69977 l 1.64605,-1.85208 1.64602,-1.85209 h 4.06252 4.06252 v 4.10104 4.10105 h -4.04138 -4.04138 l -1.68933,-1.98438 -1.68932,-1.98437 -1.87608,-0.0102 -1.87605,-0.0102 -0.53271,-0.84676 -0.53272,-0.84676 -0.47249,-0.091 -0.47246,-0.091 -0.64847,0.42488 -0.64844,0.42488 v 0.52307 0.52307 h -0.27115 -0.27112 l -0.25273,-0.66471 -0.2527,-0.66471 -0.65596,-0.29887 -0.65592,-0.29886 -0.65223,0.42736 -0.65222,0.42736 -0.17018,0.53621 -0.17021,0.53622 h -0.21807 -0.21807 l -0.16827,-0.67046 -0.16828,-0.67046 -0.65415,-0.29805 -0.65416,-0.29806 -0.65416,0.29806 -0.65415,0.29805 -0.16828,0.67046 -0.16827,0.67046 h -0.21807 -0.21807 l -0.17021,-0.53622 -0.17018,-0.53621 -0.65222,-0.42736 -0.65223,-0.42736 -0.65592,0.29886 -0.65596,0.29887 -0.2527,0.66471 -0.25273,0.66471 h -5.98853 -5.98853 l -0.62804,0.59531 -0.62801,0.59531 -0.005,4.75777 -0.004,4.75778 2.76945,-2.76003 2.76945,-2.76002 0.20711,0.21167 0.20712,0.21168 -2.92296,2.81829 -2.92296,2.8183 2.92296,2.81669 2.92296,2.8167 -0.20712,0.212 -0.20711,0.21201 -2.76945,-2.76003 -2.76945,-2.76002 0.0103,7.13902 0.0101,7.13902 0.8497,0.53279 0.84971,0.53278 0.0806,1.10636 0.0806,1.10636 -0.47752,0.47752 -0.47752,0.47753 0.46302,0.46302 0.46303,0.46302 v 0.86717 0.86717 l -0.37045,0.52887 -0.37044,0.52888 0.37044,0.50661 0.37045,0.5066 v 0.94889 0.9489 l -0.37045,0.52887 -0.37044,0.52888 0.37044,0.50661 0.37045,0.5066 v 0.72154 0.72155 l -0.16436,0.4283 -0.16436,0.42829 -0.76169,0.39389 -0.76168,0.39388 v 3.43279 3.43279 h 1.85209 1.85208 l -0.0122,0.19844 -0.0122,0.19843 -1.97213,2.11667 -1.97212,2.11667 -1.97213,-2.11667 -1.97212,-2.11667 -0.0122,-0.19843 -0.0122,-0.19844 h 1.85208 1.85208 v -3.68973 -3.68973 l 0.70321,-0.34516 0.70319,-0.34517 0.2618,-0.42207 0.26181,-0.42207 -0.18056,-0.71942 -0.18057,-0.71942 -0.78444,-0.27345 -0.78444,-0.27346 v -0.21002 -0.21002 l 0.67046,-0.16827 0.67045,-0.16828 0.29805,-0.65415 0.29806,-0.65416 -0.29806,-0.65416 -0.29805,-0.65416 -0.67045,-0.16827 -0.67046,-0.16828 v -0.21002 -0.21001 l 0.78444,-0.27346 0.78444,-0.27346 0.18057,-0.71942 0.18056,-0.71941 -0.26181,-0.42208 -0.2618,-0.42206 -0.70319,-0.34517 -0.70321,-0.34517 v -0.25014 -0.25015 h 0.48816 0.48816 l 0.43788,-0.48385 0.43789,-0.48386 v -0.57448 -0.57448 l -0.52917,-0.52916 -0.52917,-0.52917 h -0.39687 -0.39688 v -7.46975 -7.46975 l -2.76944,2.76002 -2.76945,2.76003 -0.20712,-0.21168 -0.20711,-0.21167 2.92296,-2.8183 2.92295,-2.81829 -2.92295,-2.8167 -2.92296,-2.81669 0.20711,-0.21201 0.20712,-0.212 2.76945,2.76002 2.76944,2.76003 -0.004,-4.75778 -0.005,-4.75777 -0.62802,-0.59531 -0.62804,-0.59531 h -2.2778 -2.27782 v -0.52307 -0.52307 l -0.64844,-0.42488 -0.64847,-0.42488 -0.47247,0.091 -0.47249,0.091 -0.53271,0.84676 -0.53271,0.84676 h -0.13229 -0.1323 l -0.53271,-0.84676 -0.53271,-0.84676 -0.47249,-0.091 -0.47247,-0.091 -0.64847,0.42488 -0.64844,0.42488 v 0.52307 0.52307 h -0.27114 -0.27112 l -0.25273,-0.66471 -0.25271,-0.66471 -0.65595,-0.29887 -0.65593,-0.29886 -0.65222,0.42736 -0.65223,0.42736 -0.17018,0.53621 -0.1702,0.53622 h -0.21807 -0.21807 l -0.16828,-0.67046 -0.16827,-0.67046 -0.65416,-0.29805 -0.65415,-0.29806 -0.65416,0.29806 -0.65416,0.29805 -0.16827,0.67046 -0.16828,0.67046 h -4.14586 -4.14583 l -0.4531,0.52916 -0.45308,0.52917 h -0.53435 -0.53435 l -0.45307,-0.52917 -0.4531,-0.52916 h -3.24848 -3.2485 v -0.35076 -0.35075 l -0.6468,-0.60765 -0.64683,-0.60765 -0.70358,0.1766 -0.7036,0.17659 -0.29509,0.78181 -0.29512,0.78181 h -0.16409 -0.16412 l -0.30316,-0.66536 -0.30314,-0.66536 -0.65452,-0.29821 -0.65453,-0.29822 -0.65222,0.42736 -0.65223,0.42736 -0.17018,0.53621 -0.1702,0.53622 h -0.18876 -0.18873 l -0.29511,-0.78181 -0.29509,-0.78181 -0.70361,-0.17659 -0.70358,-0.1766 -0.64682,0.60765 -0.6468,0.60765 v 0.35075 0.35076 h -0.22212 -0.22212 l -0.30316,-0.66536 -0.30313,-0.66536 -0.65453,-0.29821 -0.65453,-0.29822 -0.67228,0.44051 -0.6723,0.4405 v 0.52307 0.52307 l -4.16719,0.005 -4.16719,0.005 -0.59531,0.62803 -0.59531,0.62804 v 4.58795 4.58795 l 2.63729,-2.62738 2.63726,-2.62738 0.19372,0.19373 0.19373,0.19373 -2.82961,2.83842 -2.82961,2.83842 2.78267,2.78267 2.78268,2.78267 -0.52086,1.51388 -0.52086,1.51388 h 0.64722 0.6472 v -0.66146 -0.66146 h 0.26459 0.26458 v 0.63941 0.63941 l 0.33073,0.15434 0.33073,0.15434 -0.33073,0.15434 -0.33073,0.15434 v 0.63941 0.63941 h -0.26458 -0.26459 v -0.66146 -0.66146 h -0.92604 -0.92604 v -0.22316 -0.22316 l 0.50294,-1.46183 0.50295,-1.46182 -2.48732,-2.47698 -2.48732,-2.47697 0.003,7.00623 0.003,7.00624 0.77608,0.44151 0.77605,0.44152 0.18187,0.96946 0.18187,0.96946 -0.53014,0.71705 -0.53015,0.71706 0.49657,0.61326 0.4966,0.61326 -0.003,0.566 -0.003,0.566 -0.37957,0.7276 -0.37955,0.72761 0.37955,0.7276 0.37957,0.72761 v 0.39687 0.39688 l -0.37957,0.7276 -0.37955,0.7276 0.37955,0.72761 0.37957,0.7276 0.003,0.55963 0.003,0.55963 -0.54838,0.69714 -0.54837,0.69714 h -0.37767 -0.37766 v 3.57188 3.57187 h 1.85208 1.85208 l -0.0122,0.19844 -0.0122,0.19844 -1.96379,2.11666 -1.96376,2.11667 -2.12503,-2.11046 -2.125,-2.11046 v -0.20464 -0.20465 h 1.98437 1.98438 v -3.71071 -3.71072 l 0.66619,-0.25329 0.66622,-0.25329 0.26686,-0.70191 0.26686,-0.70192 -0.39685,-0.60568 -0.39685,-0.60567 -0.53623,-0.17019 -0.5362,-0.17019 v -0.21807 -0.21807 l 0.67082,-0.16837 0.6708,-0.16836 0.24868,-0.65407 0.24868,-0.65407 -0.24868,-0.65407 -0.24868,-0.65407 -0.6708,-0.16836 -0.67082,-0.16837 v -0.21807 -0.21807 l 0.5362,-0.17019 0.53623,-0.17018 0.39685,-0.60568 0.39685,-0.60568 -0.26686,-0.70191 -0.26686,-0.70192 -0.66622,-0.25329 -0.66619,-0.25329 v -0.25273 -0.25273 l 0.59282,-0.0846 0.59286,-0.0846 0.35438,-0.7417 0.35441,-0.7417 -0.41103,-0.62729 -0.41101,-0.6273 -0.53623,-0.17019 -0.5362,-0.17019 v -7.45192 -7.45192 l -2.76945,2.76003 -2.76944,2.76002 -0.19532,-0.19532 -0.19534,-0.19532 2.83109,-2.83109 2.8311,-2.83108 -2.82962,-2.83842 -2.82961,-2.83842 0.19383,-0.19384 0.19387,-0.19385 2.76944,2.76003 2.76945,2.76002 -0.005,-4.75777 -0.005,-4.75778 -0.62801,-0.59531 -0.62804,-0.59531 h -6.08558 -6.0856 l -0.16828,-0.67046 -0.16827,-0.67045 -0.65416,-0.29806 -0.65415,-0.29805 -0.65416,0.29805 -0.65415,0.29806 -0.16828,0.67045 -0.16827,0.67046 h -0.21807 -0.21807 l -0.17021,-0.53622 -0.17018,-0.53621 -0.65222,-0.42736 -0.65223,-0.42736 -0.65593,0.29887 -0.65595,0.29886 -0.25271,0.66471 -0.25273,0.66471 h -0.27111 -0.27115 v -0.52307 -0.52306 l -0.64844,-0.42489 -0.64847,-0.42488 -0.47246,0.091 -0.4725,0.091 -0.53271,0.84676 -0.53271,0.84677 h -0.13229 -0.13229 l -0.53272,-0.84677 -0.53271,-0.84676 -0.47249,-0.091 -0.47247,-0.091 -0.64847,0.42488 -0.64844,0.42489 v 0.52306 0.52307 h -8.8924 -8.89239 l -0.62803,0.59531 -0.62803,0.59531 -0.005,10.31379 -0.005,10.31379 2.63729,-2.62738 2.63726,-2.62738 0.19373,0.19373 0.19372,0.19372 -2.82961,2.83842 -2.82961,2.83842 2.83109,2.83108 2.8311,2.83109 -0.19521,0.19521 -0.19521,0.1952 -2.63726,-2.62738 -2.63729,-2.62738 v 7.07919 7.07919 l 0.64537,0.24537 0.64537,0.24537 0.28067,0.52443 0.28067,0.52444 v 0.64317 0.64317 l -0.50099,0.63692 -0.501,0.63691 0.501,0.61871 0.50099,0.6187 v 0.70557 0.70556 l -0.41187,0.58804 -0.41188,0.58804 0.41188,0.58804 0.41187,0.58804 v 0.70556 0.70557 l -0.49279,0.60858 -0.4928,0.60858 0.4928,0.52895 0.49279,0.52896 v 0.76125 0.76126 l -0.28067,0.52444 -0.28067,0.52443 -0.64537,0.24537 -0.64537,0.24537 v 3.57843 3.57842 h 1.85208 1.85209 v 0.20506 0.20506 l -1.92445,1.91161 -1.92445,1.9116 -0.12608,-0.0122 -0.12606,-0.0122 -2.05214,-1.90597 z m 3.77193,-0.31848 1.43713,-1.45521 -3.16596,0.0121 -3.16596,0.0121 1.58749,1.44258 1.58751,1.44258 0.14132,5.3e-4 0.14133,4.4e-4 z m -150.41563,-11.50937 1.570934,-1.5875 h -3.141578 -3.14158 l 0.495369,0.59531 0.495366,0.59531 0.922253,0.99219 0.922255,0.99219 h 0.153022 0.153024 z m 62.330486,0.59531 0.922253,-0.99219 0.495366,-0.59531 0.495369,-0.59531 h -3.141581 -3.141578 l 1.570935,1.5875 1.570934,1.5875 h 0.153025 0.153021 z m 135.202084,0 0.92226,-0.99219 0.49535,-0.59531 0.49538,-0.59531 h -3.14158 -3.14158 l 1.57093,1.5875 1.57094,1.5875 h 0.15301 0.15304 z m 63.20692,-0.52917 1.35787,-1.52135 -1.46899,-0.0793 -1.46899,-0.0794 -1.469,0.0794 -1.46899,0.0793 1.35787,1.52135 1.35787,1.52136 h 0.22225 0.22225 z m -331.052511,-49.39505 1.389062,-1.69684 v -0.25792 -0.25792 l -1.364559,-1.61358 -1.364557,-1.61358 h -7.102107 -7.10211 v 3.57187 3.57188 l 7.0776,-0.004 7.077608,-0.004 1.389063,-1.69684 z m -12.104691,-0.14817 -0.52916,-0.52917 v -1.19063 -1.19062 l 0.52916,-0.52917 0.52917,-0.52916 h 0.4786 0.47859 l 0.51318,0.37524 0.51317,0.37524 -0.17225,0.17226 -0.17226,0.17225 -0.55585,-0.34713 -0.55584,-0.34713 -0.46211,0.29149 -0.4621,0.29149 v 1.26524 1.26525 l 0.4621,0.29149 0.46211,0.29149 0.55584,-0.34713 0.55585,-0.34714 0.17226,0.17226 0.17225,0.17226 -0.51317,0.37524 -0.51318,0.37524 h -0.47859 -0.4786 z m 3.43959,-1.7198 v -2.24895 h 0.26458 0.26458 v 1.98437 1.98438 h 0.926045 0.926042 v 0.26458 0.26458 h -1.190625 -1.190622 z m 2.910413,0 v -2.24895 h 0.264584 0.264583 v 0.97973 0.97974 l 1.053476,-1.02869 1.053478,-1.02869 0.185208,0.18521 0.185208,0.18521 -0.889545,0.91777 -0.889547,0.91779 0.868047,1.08016 0.868045,1.08017 -0.183501,0.1809 -0.183505,0.1809 -0.835244,-0.99219 -0.835245,-0.99221 -0.198438,2e-5 -0.198437,1e-5 v 0.92604 0.92604 h -0.264583 -0.264584 z m 378.354169,0 v -3.57187 h -3.68303 -3.68302 l -1.47516,1.65364 -1.47516,1.65365 v 0.17658 0.17658 l 1.50537,1.74165 1.50538,1.74165 h 3.654 3.654 v -3.57188 z m -3.43958,2.28565 v -0.22789 l -0.63556,0.12149 -0.63558,0.1215 -0.55504,-0.55506 -0.55507,-0.55506 v -1.19063 -1.19062 l 0.52916,-0.52917 0.52917,-0.52916 h 0.52917 0.52916 l 0.52917,0.52916 0.52917,0.52917 v 1.07573 1.07572 l -0.2739,0.51178 -0.2739,0.51177 h 0.2739 0.2739 v 0.26458 0.26459 h -0.39688 -0.39687 z m -0.66146,-0.83044 -0.16351,-0.26458 h -0.39688 -0.39687 l 0.16351,0.26458 0.16351,0.26459 h 0.39688 0.39687 z m 0.92604,-1.35592 v -0.79553 l -0.2739,-0.51178 -0.27389,-0.51177 h -0.51054 -0.51054 l -0.2739,0.51177 -0.2739,0.51178 v 0.80284 0.80284 l 0.38082,-0.14613 0.38079,-0.14613 0.47344,0.26495 0.47345,0.26495 0.20407,-0.12613 0.2041,-0.12613 z m -265.377085,-8.71902 1.190625,-0.53833 0.892296,-0.84493 0.892297,-0.84492 0.626473,-1.32292 0.626472,-1.32292 -0.0032,-1.71979 -0.0032,-1.71979 -0.538326,-1.19062 -0.538327,-1.19063 -0.844926,-0.8923 -0.844925,-0.89229 -1.322917,-0.62647 -1.322917,-0.62648 h -1.719848 -1.719791 l -1.322917,0.62648 -1.322917,0.62647 -0.844925,0.89229 -0.844926,0.8923 -0.538326,1.19063 -0.538327,1.19062 -0.0032,1.71979 -0.0032,1.71979 0.626472,1.32292 0.626473,1.32292 0.892297,0.84492 0.892296,0.84493 1.190625,0.53833 1.190625,0.53832 h 1.719792 1.719792 l 1.190625,-0.53832 z m -4.222542,-3.68341 -1.179832,-1.0358 0.190405,-0.19041 0.190404,-0.1904 0.739323,0.70831 0.739322,0.70832 h 0.18396 0.183959 v -3.57188 -3.57187 h 0.264584 0.264583 v 3.62138 3.62137 l 0.790991,-0.75782 0.79099,-0.75781 0.184005,0.184 0.184007,0.18401 -1.028692,1.05348 -1.028695,1.05347 -0.144741,-0.0113 -0.14474,-0.0113 -1.179833,-1.0358 z m 202.130877,3.68341 1.19062,-0.53833 0.89231,-0.84493 0.89228,-0.84492 0.62648,-1.32292 0.62648,-1.32292 -0.003,-1.71979 -0.003,-1.71979 -0.53832,-1.19062 -0.53834,-1.19063 -0.84493,-0.8923 -0.84492,-0.89229 -1.32291,-0.62647 -1.32292,-0.62648 h -1.71979 -1.71979 l -1.32292,0.62648 -1.32292,0.62647 -0.84492,0.89229 -0.84492,0.8923 -0.53834,1.19063 -0.53833,1.19062 -0.003,1.71979 -0.003,1.71979 0.62648,1.32292 0.62649,1.32292 0.89228,0.84492 0.8923,0.84493 1.19063,0.53833 1.19062,0.53832 h 1.71979 1.7198 l 1.19062,-0.53832 z m -4.09631,-3.67853 -1.02867,-1.05348 0.18399,-0.18401 0.18402,-0.184 0.79097,0.75781 0.791,0.75782 v -3.62137 -3.62138 h 0.26458 0.26459 v 3.62138 3.62137 l 0.791,-0.75782 0.79097,-0.75781 0.18401,0.184 0.184,0.18401 -1.02868,1.05348 -1.0287,1.05347 h -0.15719 -0.15719 z m -194.557211,-25.07413 -0.789654,-0.99219 -0.696749,-0.64985 -0.696751,-0.64985 -1.642039,1.64204 -1.642038,1.64204 h 3.128441 3.128442 z m 197.908321,0 -0.78965,-0.99219 -0.69675,-0.64985 -0.69673,-0.64985 -1.64206,1.64204 -1.64203,1.64204 h 3.12844 3.12846 z m -154.631365,-10.23672 1.389063,-1.69684 v -0.25792 -0.25792 l -1.364559,-1.61358 -1.364557,-1.61358 h -3.397943 -3.397941 v 3.57187 3.57188 l 3.373438,-0.004 3.373437,-0.004 1.389062,-1.69684 z m -5.754687,0.18346 v -0.19754 l 0.683186,-2.05142 0.683186,-2.05143 h 0.221128 0.221128 l 0.683186,2.05143 0.683186,2.05142 v 0.19754 0.19753 h -0.246753 -0.246753 l -0.167952,-0.52917 -0.167953,-0.52916 h -0.758089 -0.758089 l -0.167953,0.52916 -0.167952,0.52917 h -0.246753 -0.246753 z m 1.969336,-1.98528 -0.182991,-0.59531 -0.09942,-0.11025 -0.09942,-0.11024 -0.09942,0.11024 -0.09942,0.11025 -0.182991,0.59531 -0.182991,0.59531 h 0.564827 0.564827 z m 79.257746,-8.68589 1.19063,-0.53832 0.89231,-0.84493 0.89228,-0.84492 0.62648,-1.322916 0.62648,-1.32292 -0.003,-1.71979 -0.003,-1.71979 -0.53832,-1.19063 -0.53835,-1.19062 -0.84492,-0.8923 -0.84492,-0.89229 -1.32292,-0.62648 -1.32292,-0.62647 h -1.71979 -1.71979 l -1.32292,0.62647 -1.32291,0.62648 -0.84493,0.89229 -0.84492,0.8923 -0.53833,1.19062 -0.53833,1.19063 -0.003,1.71979 -0.003,1.71979 0.62647,1.32292 0.62647,1.322916 0.8923,0.84492 0.8923,0.84493 1.19062,0.53832 1.19063,0.53833 h 1.71979 1.71979 l 1.19062,-0.53833 z m -4.22254,-3.683406 -1.17983,-1.03579 0.1904,-0.19041 0.19041,-0.19041 0.73932,0.70832 0.73932,0.70832 h 0.18396 0.18396 v -3.57188 -3.57187 h 0.26459 0.26458 v 3.62137 3.62138 l 0.79099,-0.75782 0.79099,-0.75782 0.18401,0.18401 0.18399,0.18401 -1.02868,1.05347 -1.02869,1.053476 -0.14474,-0.0113 -0.14474,-0.0113 -1.17984,-1.035796 z m 2.89963,-25.79685 -1.43714,-1.4552 -0.14133,4.7e-4 -0.14133,4.8e-4 -1.5875,1.44258 -1.5875,1.44257 3.16597,0.0121 3.16596,0.0122 z M 15.686232,219.75626 l -0.567878,-0.27486 -0.162711,-0.81356 -0.162711,-0.81355 0.160674,-0.85647 0.160673,-0.85647 0.763601,-0.31629 0.763601,-0.31629 0.401627,0.15411 0.401627,0.15412 v 0.27793 0.27793 l -0.595313,-0.13996 -0.595312,-0.13997 -0.396875,0.25766 -0.396875,0.25767 0.02598,1.22588 0.02598,1.22589 0.370895,0.23854 0.370896,0.23854 0.396875,-0.0685 0.396875,-0.0685 0.08455,-0.59261 0.08455,-0.59261 h -0.415277 -0.415276 v -0.26458 -0.26458 h 0.661458 0.661458 v 0.91673 0.91673 l -0.511773,0.27389 -0.511773,0.2739 -0.215831,-0.0179 -0.215831,-0.0179 -0.567878,-0.27487 z m 3.081419,-1.93827 v -2.24896 h 0.201298 0.201298 l 0.850844,1.52135 0.850847,1.52136 0.0062,-1.52136 0.0062,-1.52135 h 0.264583 0.264584 v 2.24896 2.24896 h -0.201298 -0.201298 l -0.850844,-1.52136 -0.850847,-1.52135 -0.0062,1.52135 -0.0062,1.52136 h -0.264583 -0.264584 z m 3.96875,0 v -2.24896 h 0.79375 0.79375 l 0.529167,0.52917 0.529167,0.52916 v 1.19063 1.19062 l -0.529167,0.52917 -0.529167,0.52917 h -0.79375 -0.79375 z m 1.799167,1.40229 0.3175,-0.3175 v -1.08479 -1.08479 l -0.3175,-0.3175 -0.3175,-0.3175 h -0.47625 -0.47625 v 1.71979 1.71979 h 0.47625 0.47625 z m 53.770064,0.32423 -0.522438,-0.52244 -0.168992,-0.67332 -0.168995,-0.67333 0.330843,-0.79872 0.330843,-0.79873 0.517523,-0.27697 0.517522,-0.27697 0.636815,0.15983 0.636815,0.15983 v 0.25293 0.25293 l -0.769197,-0.15384 -0.769199,-0.15384 -0.450593,0.68769 -0.450594,0.6877 0.18273,0.72805 0.182729,0.72805 0.275709,0.33221 0.275709,0.33221 h 0.496768 0.496771 v -0.66146 -0.66146 h -0.264583 -0.264583 v -0.26458 -0.26458 h 0.529166 0.529167 v 1.03002 1.03003 l -0.418515,0.1606 -0.418513,0.1606 h -0.375237 -0.375235 z m 3.432853,-1.72652 v -2.24896 h 0.201297 0.201298 l 0.850844,1.52135 0.850847,1.52136 0.0062,-1.52136 0.0062,-1.52135 h 0.264584 0.264583 v 2.24896 2.24896 H 84.18304 83.981743 l -0.850845,-1.52136 -0.850847,-1.52135 -0.0062,1.52135 -0.0062,1.52136 h -0.264583 -0.264583 z m 3.96875,0 v -2.24896 h 0.661458 0.661458 l 0.522436,0.52243 0.522438,0.52244 0.168992,0.67333 0.168995,0.67332 -0.330843,0.79873 -0.330843,0.79872 -0.475485,0.25447 -0.475486,0.25448 h -0.54656 -0.54656 z m 1.533832,1.38758 0.275709,-0.33221 0.182729,-0.72805 0.182729,-0.72805 -0.432141,-0.65953 -0.432142,-0.65953 h -0.390773 -0.390777 v 1.71979 1.71979 h 0.36448 0.364477 z m 126.266643,0.33894 -0.52242,-0.52244 -0.16899,-0.67332 -0.16902,-0.67333 0.33086,-0.79872 0.33084,-0.79873 0.51752,-0.27697 0.51753,-0.27697 0.6368,0.15983 0.63682,0.15983 v 0.25293 0.25293 l -0.76919,-0.15384 -0.7692,-0.15384 -0.45059,0.68769 -0.45061,0.6877 0.18275,0.72805 0.18272,0.72805 0.2757,0.33221 0.27572,0.33221 h 0.49675 0.49679 v -0.66146 -0.66146 h -0.26459 -0.26458 v -0.26458 -0.26458 h 0.52917 0.52916 v 1.03002 1.03003 l -0.41851,0.1606 -0.41852,0.1606 h -0.37523 -0.37524 z m 3.16828,-1.72652 v -2.24896 h 0.20687 0.20688 l 0.98015,1.65364 0.98015,1.65365 0.004,-1.65365 0.004,-1.65364 h 0.26458 0.26458 v 2.24896 2.24896 h -0.20687 -0.20688 l -0.98015,-1.65365 -0.98015,-1.65365 -0.004,1.65365 -0.004,1.65365 h -0.26458 -0.26458 z m 4.23333,0 v -2.24896 h 0.66146 0.66146 l 0.52244,0.52243 0.52242,0.52244 0.16899,0.67333 0.16902,0.67332 -0.33086,0.79873 -0.33084,0.79872 -0.47548,0.25447 -0.47548,0.25448 h -0.54658 -0.54655 z m 1.53384,1.38758 0.2757,-0.33221 0.18272,-0.72805 0.18275,-0.72805 -0.43215,-0.65953 -0.43214,-0.65953 h -0.39079 -0.39076 v 1.71979 1.71979 h 0.36449 0.36446 z m 54.16095,0.54521 -0.52917,-0.30007 -0.19438,-0.28719 -0.19439,-0.2872 -0.004,-1.10558 -0.004,-1.10558 0.41537,-0.41538 0.41539,-0.41537 0.62791,-0.1576 0.62791,-0.1576 0.27964,0.17282 0.27961,0.17281 v 0.2668 0.2668 l -0.51916,-0.16478 -0.5192,-0.16478 -0.53914,0.28855 -0.53916,0.28855 v 1.17201 1.172 l 0.54983,0.29427 0.54985,0.29427 0.37619,-0.14436 0.37621,-0.14437 v -0.53747 -0.53747 h -0.39688 -0.39687 v -0.26458 -0.26458 h 0.66146 0.66146 v 0.91673 0.91673 l -0.51179,0.27389 -0.51176,0.2739 -0.21584,-0.008 -0.21582,-0.008 -0.52917,-0.30007 z m 3.04271,-1.93279 v -2.24896 h 0.20129 0.2013 l 0.85085,1.52135 0.85084,1.52136 0.006,-1.52136 0.006,-1.52135 h 0.26459 0.26458 v 2.24896 2.24896 h -0.20129 -0.2013 l -0.85085,-1.52136 -0.85084,-1.52135 -0.006,1.52135 -0.006,1.52136 h -0.26459 -0.26458 z m 3.96875,0 v -2.24896 h 0.54655 0.54658 l 0.5779,0.30419 0.57793,0.30419 0.19439,0.29112 0.19439,0.29112 v 1.05834 1.05833 l -0.19439,0.29112 -0.19439,0.29112 -0.57793,0.30419 -0.5779,0.3042 h -0.54658 -0.54655 z m 1.60488,1.4459 0.51179,-0.2739 v -1.172 -1.17201 l -0.51179,-0.27389 -0.51175,-0.27389 h -0.282 -0.28196 v 1.71979 1.71979 h 0.28196 0.282 z M 175.1364,206.30861 v -2.11666 h 0.26459 0.26458 v 1.85208 1.85208 h 0.92604 0.92604 v 0.26459 0.26458 h -1.19062 -1.19063 z m 3.175,0 v -2.11666 h 0.9044 0.9044 l 0.41852,0.1606 0.41852,0.1606 v 0.84481 0.84482 l -0.3175,0.3175 -0.3175,0.3175 h -0.74084 -0.74083 v 0.79375 0.79375 h -0.26458 -0.26459 z m 1.98438,-0.79375 v -0.66146 l -0.72761,-0.0837 -0.7276,-0.0837 v 0.82889 0.8289 l 0.7276,-0.0837 0.72761,-0.0837 z m 1.6316,2.73403 -0.17639,-0.17639 v -0.17718 -0.17717 l 1.12448,0.0228 1.12447,0.0228 v -0.66146 -0.66146 l -0.59531,-0.0845 -0.59531,-0.0846 v -0.21378 -0.21379 l 0.39687,-0.32937 0.39688,-0.32938 v -0.23218 -0.23219 h -0.92604 -0.92604 v -0.26459 -0.26458 h 1.4552 1.45521 v 0.17761 0.1776 l -0.42738,0.47225 -0.42738,0.47225 0.42738,0.42738 0.42738,0.42738 v 0.62091 0.62093 l -0.1606,0.41851 -0.1606,0.41851 h -1.11821 -1.11823 l -0.17638,-0.17639 z M 24.853068,194.93153 v -2.11667 h 0.264583 0.264584 v 1.85209 1.85208 h 0.926041 0.926042 v 0.26458 0.26459 h -1.190625 -1.190625 z m 3.175,0 v -2.11667 h 0.907142 0.907143 l 0.415774,0.41578 0.415774,0.41577 v 0.45735 0.45735 l -0.3175,0.3175 -0.3175,0.3175 h -0.740833 -0.740833 v 0.92605 0.92604 h -0.264584 -0.264583 z m 2.031233,-0.68816 0.162541,-0.42358 -0.369281,-0.23383 -0.369285,-0.23383 -0.463021,-0.004 -0.46302,-0.004 v 0.66146 0.66146 h 0.669761 0.669763 z m 1.40835,2.54024 v -0.26458 h 0.529167 0.529167 v -1.20846 -1.20845 l -0.529167,0.16795 -0.529167,0.16795 v -0.13809 -0.1381 l 0.673484,-0.67348 0.673486,-0.67349 h 0.120264 0.120266 v 1.85209 1.85208 h 0.661458 0.661459 v 0.26458 0.26459 H 32.92286 31.467651 Z m 56.091667,-1.85208 v -2.11667 h 0.264583 0.264584 v 1.85209 1.85208 h 0.926041 0.926042 v 0.26458 0.26459 h -1.190625 -1.190625 z m 3.175,0 v -2.11667 l 0.992187,0.004 0.992188,0.004 0.350356,0.22213 0.350359,0.22213 -0.08578,0.8983 -0.08577,0.8983 -0.992188,0.0821 -0.992187,0.0821 v 0.91007 0.91007 h -0.264582 -0.264583 z m 2.068923,-0.8599 -0.08455,-0.59531 -0.727604,-0.0837 -0.727604,-0.0837 v 0.67903 0.67904 h 0.812151 0.812152 z m 1.37066,2.78722 v -0.18935 l 1.226752,-1.24548 1.226753,-1.24548 -0.173109,-0.45112 -0.173106,-0.4511 -0.921353,0.14951 -0.921353,0.14951 v -0.21964 -0.21964 l 0.418515,-0.1606 0.418513,-0.1606 h 0.488629 0.488628 l 0.415774,0.41578 0.415774,0.41577 v 0.37722 0.37721 l -0.956829,1.05909 -0.956828,1.0591 h 0.956828 0.956829 v 0.26458 0.26459 H 95.62911 94.173901 Z M 222.7614,194.93153 v -2.11667 h 0.26459 0.26458 v 1.85209 1.85208 h 0.92604 0.92604 v 0.26458 0.26459 h -1.19062 -1.19063 z m 3.175,0 v -2.11667 h 0.90715 0.90713 l 0.41579,0.41578 0.41577,0.41577 v 0.35634 0.35634 l -0.16061,0.41851 -0.1606,0.41851 h -0.89773 -0.89773 v 0.92605 0.92604 h -0.26458 -0.26459 z m 1.98438,-0.92604 v -0.52917 l -0.72761,-0.0837 -0.7276,-0.0837 v 0.69661 0.6966 l 0.7276,-0.0837 0.72761,-0.0837 z m 3.30729,2.51354 v -0.52917 h -0.79375 -0.79375 v -0.18108 -0.18108 l 0.43175,-1.53871 0.43174,-1.53871 h 0.22972 0.22971 v 0.22253 0.22254 l -0.37098,1.23267 -0.37099,1.23268 h 0.50329 0.50326 v -0.66146 -0.66146 h 0.26458 0.26459 v 0.66146 0.66146 h 0.39687 0.39688 v 0.26458 0.26458 h -0.39688 -0.39687 v 0.52917 0.52917 h -0.26459 -0.26458 z m 54.50417,-1.5875 v -2.11667 h 0.26458 0.26458 v 1.85209 1.85208 h 0.92604 0.92605 v 0.26458 0.26459 h -1.19063 -1.19062 z m 2.91041,0 v -2.11667 h 1.03945 1.03941 l 0.41579,0.41578 0.41577,0.41577 v 0.45735 0.45735 l -0.3175,0.3175 -0.3175,0.3175 h -0.87313 -0.87312 v 0.92605 0.92604 h -0.26458 -0.26459 z m 2.29582,-0.68816 0.16253,-0.42358 -0.36928,-0.23383 -0.36928,-0.23383 -0.59531,-0.004 -0.59531,-0.004 v 0.66146 0.66146 h 0.80206 0.80206 z m 1.59718,2.64089 -0.18883,-0.18884 v -0.19531 -0.19531 l 1.05833,0.14195 1.05834,0.14196 v -0.8369 -0.83689 l -0.43194,-0.16574 -0.4319,-0.16575 -0.51988,0.32468 -0.51991,0.32467 -0.13279,-0.1328 -0.1328,-0.13279 0.18183,-1.07617 0.18182,-1.07616 h 1.16737 1.16736 v 0.26459 0.26458 h -0.92604 -0.92604 v 0.39688 0.39687 h 0.62907 0.62905 l 0.31406,0.37841 0.31406,0.37841 -0.0832,1.01065 -0.0832,1.01066 -1.06794,0.0786 -1.06793,0.0786 z m -120.93657,-3.1466 -0.40012,-0.40012 0.088,-1.47627 0.088,-1.47626 0.25955,-0.25955 0.25955,-0.25956 0.89353,0.0854 0.89355,0.0854 0.0792,1.8284 0.0792,1.8284 -0.3438,0.21807 -0.34377,0.21807 -0.57641,0.004 -0.57642,0.004 -0.40012,-0.40012 z m 1.64087,-0.7555 0.094,-0.48809 -0.26279,-0.26276 -0.26276,-0.26276 -0.55579,0.1764 -0.5558,0.17641 v 0.48928 0.48929 l 0.33073,0.1365 0.33073,0.1365 0.39384,-0.0513 0.39382,-0.0513 z m -0.006,-2.08856 0.0886,-0.45999 h -0.66524 -0.66524 l -0.1818,0.29417 -0.18181,0.29416 0.36463,0.23467 0.36463,0.23467 0.39383,-0.0688 0.39383,-0.0689 z m 5.87076,-7.33915 v -2.11667 h 1.06664 1.06665 l 0.10263,0.33073 0.10266,0.33073 0.15946,1.36433 0.15946,1.36433 -0.42161,0.42161 -0.42161,0.4216 h -0.90713 -0.90715 z m 1.98438,0.92604 v -0.52917 l -0.72761,-0.0837 -0.7276,-0.0837 v 0.69661 0.6966 l 0.7276,-0.0837 0.72761,-0.0837 z m -0.18002,-1.91823 0.0845,-0.59531 h -0.67985 -0.67987 v 0.67986 0.67986 l 0.59531,-0.0846 0.59531,-0.0845 z m 2.42898,2.96859 v -0.14026 l 0.66145,-1.57156 0.66146,-1.57156 v -0.14026 -0.14026 h -1.05833 -1.05833 v -0.26459 -0.26458 h 1.4552 1.45521 v 0.13833 0.13833 l -0.83042,1.97834 -0.83045,1.97833 h -0.22788 -0.22791 z m -18.36965,-0.80468 -0.41577,-0.41577 v -0.49137 -0.49137 l 0.41577,-0.41577 0.41578,-0.41578 h 0.49137 0.49136 l 0.41578,0.41578 0.41577,0.41577 v 0.49137 0.49137 l -0.41577,0.41577 -0.41578,0.41578 h -0.49136 -0.49137 z m 9.26041,0 -0.41576,-0.41577 v -0.49137 -0.49137 l 0.41576,-0.41577 0.4158,-0.41578 h 0.49135 0.49136 l 0.41579,0.41578 0.41577,0.41577 v 0.49137 0.49137 l -0.41577,0.41577 -0.41579,0.41578 h -0.49136 -0.49135 z m -152.929158,-2.38125 -0.415774,-0.41577 v -0.92028 -0.92028 l 0.403669,-0.78061 0.40367,-0.78062 h 0.786955 0.786956 v 0.24701 0.24701 l -0.7072,0.0837 -0.707199,0.0837 -0.108598,0.33073 -0.108601,0.33073 h 0.532318 0.532315 l 0.415774,0.41578 0.415774,0.41577 v 0.62366 0.62366 l -0.415774,0.41577 -0.415774,0.41578 h -0.491368 -0.491369 z m 1.568601,-1.03943 v -0.79375 h -0.657834 -0.657836 l -0.09215,0.47847 -0.09215,0.47848 0.153488,0.39998 0.153485,0.39997 0.596495,-0.0847 0.596495,-0.0847 z m 61.515625,1.31494 v -0.14026 l 0.661458,-1.57156 0.661459,-1.57155 v -0.14027 -0.14026 h -1.057894 -1.058333 v -0.26458 -0.26459 h 1.455208 1.455209 v 0.13833 0.13833 l -0.830435,1.97834 -0.830432,1.97834 h -0.227901 -0.227899 z m 134.408332,-0.12432 v -0.26458 h 0.52917 0.52917 v -1.20845 -1.20846 l -0.52917,0.16795 -0.52917,0.16795 v -0.13809 -0.1381 l 0.6735,-0.67348 0.67347,-0.67349 h 0.12028 0.12025 v 1.85209 1.85208 h 0.52917 0.52917 v 0.26458 0.26459 h -1.32292 -1.32292 z m 62.97084,0 v -0.26458 h 0.52916 0.52917 v -1.35531 -1.35532 l -0.40328,0.33469 -0.40325,0.33468 -0.17105,-0.17104 -0.17103,-0.17104 0.62042,-0.66041 0.62042,-0.66042 h 0.21847 0.21847 v 1.85209 1.85208 h 0.52916 0.52917 v 0.26458 0.26459 h -1.32292 -1.32291 z m 3.77031,0.0894 -0.33073,-0.13345 v -0.27122 -0.27122 l 0.68395,0.17166 0.68397,0.17167 0.50665,-0.16081 0.50668,-0.16081 v -0.6258 -0.6258 l -0.50668,-0.16081 -0.50665,-0.16081 -0.72482,0.18192 -0.72483,0.18192 0.17317,-0.86576 0.17314,-0.86576 v -0.23152 -0.23151 h 1.19063 1.19062 v 0.26459 0.26458 h -0.89773 -0.89773 l -0.15229,0.39688 -0.1523,0.39687 h 0.76655 0.76653 l 0.41579,0.41578 0.41577,0.41577 v 0.62366 0.62366 l -0.41577,0.41577 -0.41579,0.41578 -0.70869,-0.0209 -0.70871,-0.0209 -0.33073,-0.13345 z M 28.557235,172.17736 v -2.11666 h 1.025937 1.025936 l 0.326524,0.39344 0.326525,0.39344 -0.162806,0.64868 -0.162808,0.64867 0.265554,0.16413 0.265554,0.16412 v 0.49465 0.49465 l -0.415774,0.41578 -0.415774,0.41577 h -1.039434 -1.039434 z m 2.116666,1.3264 0.396875,-0.253 -0.291269,-0.47055 -0.291269,-0.47055 -0.700918,-0.0837 -0.700919,-0.0837 v 0.81132 0.81132 l 0.595313,-0.004 0.595312,-0.004 0.396875,-0.253 z m -0.132291,-2.38473 v -0.39687 l -0.727604,-0.0837 -0.727605,-0.0837 v 0.56431 0.56432 l 0.727605,-0.0837 0.727604,-0.0837 z m 1.455208,2.94229 v -0.23271 l 1.190625,-0.97563 1.190625,-0.97563 v -0.67858 -0.67858 l -1.072629,0.14387 -1.072629,0.14387 0.102489,-0.30747 0.102492,-0.30747 h 1.168575 1.168577 l 0.0877,0.9242 0.08771,0.9242 -1.013749,0.8578 -1.013745,0.8578 0.992187,0.004 0.992188,0.004 v 0.26458 0.26458 h -1.455209 -1.455208 v -0.23271 z m 59.53125,-1.88396 v -2.11666 h 1.066636 1.066639 l 0.102647,0.33073 0.102651,0.33073 0.159461,1.36433 0.159465,1.36433 -0.421608,0.42161 -0.421606,0.4216 H 92.43521 91.528068 Z m 1.985838,1.32055 0.164986,-0.26695 -0.1672,-0.5268 -0.167201,-0.5268 h -0.643628 -0.643628 v 0.79375 0.79375 h 0.645842 0.645846 z m -0.133755,-2.37888 v -0.52917 h -0.661458 -0.661458 v 0.52917 0.52917 h 0.661458 0.661458 z m 1.91823,2.99977 -0.33073,-0.13345 v -0.26036 -0.26037 l 0.548262,0.17401 0.548262,0.17402 0.642363,-0.16123 0.642363,-0.16122 v -0.65138 -0.65137 l -0.661458,-0.16602 -0.661458,-0.16602 v -0.14892 -0.14892 l 0.437882,-0.48385 0.437883,-0.48386 h -0.967049 -0.96705 v -0.26458 -0.26458 h 1.455209 1.455208 v 0.1776 0.17761 l -0.427379,0.47225 -0.427379,0.47224 0.427379,0.42738 0.427379,0.42738 v 0.62366 0.62366 l -0.415774,0.41578 -0.415774,0.41577 -0.708705,-0.0209 -0.708705,-0.0209 -0.330729,-0.13345 z m 131.431769,-1.94144 v -2.11666 h 1.06664 1.06665 l 0.10263,0.33073 0.10266,0.33073 0.15946,1.36433 0.15946,1.36433 -0.42161,0.42161 -0.42161,0.4216 h -0.90713 -0.90715 z m 2.02229,1.18726 0.15359,-0.40024 -0.3266,-0.39351 -0.32657,-0.39351 h -0.49676 -0.49678 v 0.79375 0.79375 h 0.66977 0.66976 z m -0.1702,-2.24559 v -0.52917 h -0.66146 -0.66146 v 0.52917 0.52917 h 0.66146 0.66146 z m 2.00326,2.75923 -0.41576,-0.41578 v -0.62694 -0.62695 l 0.25916,-0.16017 0.25916,-0.16017 -0.30938,-0.49542 -0.30941,-0.49541 0.34722,-0.41836 0.34721,-0.41836 h 0.86124 0.86125 l 0.34721,0.41836 0.34722,0.41836 -0.30941,0.49541 -0.30938,0.49542 0.25916,0.16017 0.25916,0.16017 v 0.62695 0.62694 l -0.41576,0.41578 -0.4158,0.41577 h -0.62365 -0.62364 z m 1.66079,-0.34759 0.35677,-0.22609 -0.0958,-0.49746 -0.0958,-0.49746 h -0.78651 -0.7865 l -0.0958,0.49746 -0.0958,0.49746 0.35677,0.22609 0.35676,0.22609 h 0.26458 0.26459 z m 0.005,-2.23755 0.29467,-0.35507 -0.17407,-0.17409 -0.17409,-0.1741 h -0.57328 -0.57327 l -0.1741,0.1741 -0.17407,0.17409 0.29467,0.35507 0.29469,0.35508 h 0.33208 0.33208 z m 57.18482,0.88424 v -2.11666 h 1.02595 1.02592 l 0.25816,0.33073 0.25818,0.33073 0.0318,1.57622 0.0318,1.57622 -0.32371,0.20566 -0.32372,0.20567 -0.99219,0.004 -0.99219,0.004 v -2.11666 z m 1.98438,0.79375 v -0.66145 l -0.72761,-0.0837 -0.7276,-0.0837 v 0.82889 0.8289 l 0.7276,-0.0837 0.72761,-0.0837 z m 0,-1.85208 v -0.39687 l -0.72761,-0.0837 -0.7276,-0.0837 v 0.56431 0.56432 l 0.7276,-0.0837 0.72761,-0.0837 z m 1.98437,2.94349 v -0.23151 l 0.79375,-0.15875 0.79375,-0.15875 v -0.38673 -0.38672 l -0.85989,-0.0829 -0.8599,-0.0829 v -1.19063 -1.19062 l 1.0314,-0.0845 1.0314,-0.0845 0.22132,0.34904 0.22133,0.34904 0.004,1.00958 0.004,1.00958 -0.30419,0.57792 -0.30419,0.57792 -0.29112,0.19438 -0.29112,0.19439 -0.59531,0.004 -0.59532,0.004 v -0.23151 z m 1.71979,-2.67891 v -0.66145 l -0.7276,-0.0837 -0.7276,-0.0837 v 0.82889 0.8289 l 0.7276,-0.0837 0.7276,-0.0837 z m -280.439431,1.7009 -0.415774,-0.41578 v -0.49137 -0.49136 l 0.415774,-0.41578 0.415774,-0.41577 h 0.491368 0.491369 l 0.415774,0.41577 0.415774,0.41578 v 0.49136 0.49137 l -0.415774,0.41578 -0.415774,0.41577 h -0.491369 -0.491368 z m 8.995833,0 -0.415774,-0.41578 v -0.49137 -0.49136 l 0.415774,-0.41578 0.415774,-0.41577 h 0.491369 0.491368 l 0.415774,0.41577 0.415774,0.41578 v 0.49136 0.49137 l -0.415774,0.41578 -0.415774,0.41577 h -0.491368 -0.491369 z m 53.710417,0 -0.415774,-0.41578 v -0.49137 -0.49136 l 0.415774,-0.41578 0.415774,-0.41577 h 0.491368 0.491369 l 0.415774,0.41577 0.415774,0.41578 v 0.49136 0.49137 l -0.415774,0.41578 -0.415774,0.41577 h -0.491369 -0.491368 z m 9.260417,0 -0.415775,-0.41578 v -0.49137 -0.49136 l 0.415775,-0.41578 0.415774,-0.41577 h 0.491368 0.491368 l 0.415774,0.41577 0.415775,0.41578 v 0.49136 0.49137 l -0.415775,0.41578 -0.415774,0.41577 H 87.559318 87.06795 Z m 125.941664,0 -0.41577,-0.41578 v -0.49137 -0.49136 l 0.41577,-0.41578 0.41579,-0.41577 h 0.49136 0.49135 l 0.4158,0.41577 0.41576,0.41578 v 0.49136 0.49137 l -0.41576,0.41578 -0.4158,0.41577 h -0.49135 -0.49136 z m 9.26041,0 -0.41576,-0.41578 v -0.49137 -0.49136 l 0.41576,-0.41578 0.4158,-0.41577 h 0.49135 0.49136 l 0.41579,0.41577 0.41577,0.41578 v 0.49136 0.49137 l -0.41577,0.41578 -0.41579,0.41577 h -0.49136 -0.49135 z m 53.71042,0 -0.41577,-0.41578 v -0.49137 -0.49136 l 0.41577,-0.41578 0.41579,-0.41577 h 0.49136 0.49136 l 0.41579,0.41577 0.41577,0.41578 v 0.49136 0.49137 l -0.41577,0.41578 -0.41579,0.41577 h -0.49136 -0.49136 z m 8.99583,0 -0.41576,-0.41578 v -0.49137 -0.49136 l 0.41576,-0.41578 0.4158,-0.41577 h 0.49135 0.49136 l 0.41579,0.41577 0.41577,0.41578 v 0.49136 0.49137 l -0.41577,0.41578 -0.41579,0.41577 h -0.49136 -0.49135 z m -286.2791583,-6.61459 -0.415774,-0.41577 v -0.49137 -0.49137 l 0.415774,-0.41577 0.415774,-0.41577 h 0.49136901 0.491368 l 0.415774,0.41577 0.415774,0.41577 v 0.49137 0.49137 l -0.415774,0.41577 -0.415774,0.41578 h -0.491368 -0.49136901 z m 138.9062483,0 -0.41577,-0.41577 v -0.49137 -0.49137 l 0.41577,-0.41577 0.41578,-0.41577 h 0.49136 0.49137 l 0.41578,0.41577 0.41577,0.41577 v 0.49137 0.49137 l -0.41577,0.41577 -0.41578,0.41578 h -0.49137 -0.49136 z m -151.762746,-6.86666 -0.334682,-0.40327 0.174405,-0.1744 0.174403,-0.17441 0.313092,0.3131 0.313089,0.31309 h 0.47121 0.47121 l 0.16224,-0.64642 0.162242,-0.64643 -0.190839,-0.30878 -0.190836,-0.30878 -0.892405,0.14482 -0.892405,0.14482 v -0.34717 -0.34717 l 0.165365,-0.82682 0.165364,-0.82682 h 1.025261 1.02526 v 0.26458 0.26458 h -0.762892 -0.762891 l -0.13838,0.52917 -0.13838,0.52917 h 0.872964 0.872963 l 0.1606,0.41851 0.160599,0.41851 v 0.62092 0.62092 l -0.415774,0.41578 -0.415774,0.41577 h -0.610161 -0.610164 z m 3.77562,0.22804 -0.330729,-0.13345 v -0.37482 -0.37483 h 0.264583 0.264583 v 0.28298 0.28299 l 0.568291,-0.0846 0.5682907,-0.0845 0.267567,-0.42705 0.267566,-0.42706 -0.179086,-0.4667 -0.179089,-0.46669 -0.9213527,0.14951 -0.921353,0.14952 v -1.17399 -1.17399 h 1.1906247 1.190625 v 0.26458 0.26458 h -0.926042 -0.9260417 v 0.52917 0.52917 h 0.7408337 0.740833 l 0.3175,0.3175 0.3175,0.3175 v 0.69982 0.69983 l -0.483854,0.43788 -0.483854,0.43788 -0.508334,-0.0209 -0.5083327,-0.0209 -0.330729,-0.13345 z m 31.94313,-0.22804 -0.334682,-0.40327 0.174405,-0.1744 0.174403,-0.17441 0.313092,0.3131 0.313089,0.31309 h 0.47121 0.47121 l 0.16224,-0.64642 0.162242,-0.64643 -0.190839,-0.30878 -0.190836,-0.30878 -0.892405,0.14482 -0.892405,0.14482 v -0.34717 -0.34717 l 0.165365,-0.82682 0.165364,-0.82682 h 1.025261 1.02526 v 0.26458 0.26458 h -0.762892 -0.762891 l -0.13838,0.52917 -0.13838,0.52917 h 0.872964 0.872963 l 0.1606,0.41851 0.160599,0.41851 v 0.62092 0.62092 l -0.415774,0.41578 -0.415774,0.41577 h -0.609871 -0.610164 z m 38.105307,0.13869 v -0.26458 h 0.47625 0.47625 l 0.3175,-0.3175 0.3175,-0.3175 v -0.21167 -0.21167 h -0.507526 -0.507529 l -0.418513,-0.1606 -0.418515,-0.1606 v -0.97711 -0.9771 l 0.3175,-0.3175 0.3175,-0.3175 h 0.589642 0.589643 l 0.415774,0.41577 0.415774,0.41577 -0.0011,0.97329 -0.0011,0.97329 -0.524288,0.8599 -0.524288,0.85989 H 59.913737 59.24839 v -0.26458 z m 1.729087,-2.13171 0.172815,-0.27962 -0.166553,-0.66359 -0.166552,-0.6636 -0.583258,0.0833 -0.583258,0.0833 -0.09123,0.47848 -0.09123,0.47848 0.146365,0.38141 0.146365,0.38143 h 0.521856 0.521857 z m 26.58133,2.13171 v -0.26458 h 0.529167 0.529166 l -0.02087,-1.52136 -0.02088,-1.52135 -0.133453,0.33073 -0.133453,0.33073 H 87.93388 87.559053 v -0.13028 -0.13028 l 0.576881,-0.66347 0.576879,-0.66347 h 0.216871 0.216869 v 1.98437 1.98438 h 0.529166 0.529167 v 0.26458 0.26458 h -1.322628 -1.322916 v -0.26458 z m 4.339087,0.0621 -0.291118,-0.19438 -0.304194,-0.57792 -0.304192,-0.57792 v -0.6664 -0.6664 l 0.304737,-0.66883 0.304734,-0.66882 0.451741,-0.14338 0.451742,-0.14337 0.398309,0.15284 0.398312,0.15285 0.300421,0.65935 0.300421,0.65936 v 0.6664 0.6664 l -0.304191,0.57792 -0.304195,0.57792 -0.291118,0.19438 -0.291121,0.19439 H 92.45382 92.189236 Z m 1.174692,-1.00058 0.307054,-0.67391 v -0.37198 -0.37197 l -0.307054,-0.67391 -0.307052,-0.67391 H 92.45382 92.141884 l -0.307052,0.67391 -0.307054,0.67391 v 0.37197 0.37198 l 0.307054,0.67391 0.307052,0.67391 h 0.311936 0.311935 z m 30.469553,0.93849 v -0.26458 h 0.52917 0.52916 v -1.19063 -1.19062 h -0.52887 -0.52917 v -0.26459 -0.26458 h 0.37905 0.37904 l 0.16795,-0.52917 0.16795,-0.52916 h 0.24676 0.24675 v 1.98437 1.98438 h 0.66146 0.66146 v 0.26458 0.26458 h -1.45521 -1.45521 z m 3.70417,0 v -0.26458 h 0.52916 0.52917 v -1.29815 -1.29815 l -0.52917,0.13838 -0.52916,0.13838 v -0.15112 -0.15112 l 0.67348,-0.67349 0.67349,-0.67348 h 0.12026 0.12027 v 1.98437 1.98438 h 0.52916 0.52917 v 0.26458 0.26458 h -1.32263 -1.32291 z m 47.36042,0.0551 v -0.2095 l 1.19062,-1.16851 1.19063,-1.16851 v -0.48238 -0.48238 l -0.43194,-0.16575 -0.4319,-0.16574 -0.51988,0.32467 -0.51991,0.32467 -0.14422,-0.14423 -0.14423,-0.14423 0.33468,-0.40326 0.33469,-0.40327 h 0.51417 0.51416 l 0.51176,0.27389 0.51178,0.27389 v 0.70714 0.70714 l -0.97972,1.00334 -0.97975,1.00335 h 0.97975 0.97972 v 0.26458 0.26458 h -1.45521 -1.4552 z m 47.88426,-0.19378 -0.33467,-0.40327 0.17441,-0.1744 0.17439,-0.17441 0.31311,0.3131 0.31308,0.31309 h 0.60349 0.60351 l 0.16225,-0.64642 0.16224,-0.64643 -0.17283,-0.27962 -0.1728,-0.27962 h -0.51355 -0.51356 v -0.23219 -0.23218 l 0.39687,-0.32938 0.39688,-0.32937 v -0.23219 -0.23219 h -0.92604 -0.92604 v -0.26458 -0.26458 h 1.4552 1.45521 v 0.1776 0.1776 l -0.42738,0.47225 -0.42738,0.47225 0.42738,0.42738 0.42738,0.42738 v 0.75595 0.75595 l -0.41576,0.41578 -0.4158,0.41577 h -0.74244 -0.74245 z m 32.72237,-0.0806 -0.43788,-0.48386 v -0.9052 -0.90521 l 0.52427,-0.8599 0.5243,-0.85989 h 0.66534 0.66535 v 0.26458 0.26458 h -0.47625 -0.47625 l -0.3175,0.3175 -0.3175,0.3175 v 0.1949 0.19491 l 0.8599,0.0829 0.85989,0.0829 0.0832,1.01065 0.0832,1.01065 -0.31406,0.37841 -0.31406,0.37841 h -0.58806 -0.58804 l -0.43788,-0.48385 z m 1.63084,-1.059 0.0844,-0.87706 -0.74353,0.0855 -0.74356,0.0855 -0.0902,0.47574 -0.0903,0.47573 0.32827,0.39551 0.32824,0.39551 0.42119,-0.0797 0.42122,-0.0797 z m 29.15211,1.4053 v -0.13755 l 0.66146,-1.62786 0.66146,-1.62785 v -0.21897 -0.21897 h -1.05834 -1.05833 v -0.26458 -0.26458 h 1.48352 1.48352 l -0.17045,0.46302 -0.17044,0.46302 -0.69342,1.78593 -0.69342,1.78594 h -0.22278 -0.22278 z m -287.7154783,-2.65947 -0.415774,-0.41578 v -0.49136 -0.49137 l 0.415774,-0.41578 0.415774,-0.41577 h 0.49136901 0.491368 l 0.415774,0.41577 0.415774,0.41578 v 0.49137 0.49136 l -0.415774,0.41578 -0.415774,0.41577 h -0.491368 -0.49136901 z m 138.9062483,0 -0.41577,-0.41578 v -0.49136 -0.49137 l 0.41577,-0.41578 0.41578,-0.41577 h 0.49136 0.49137 l 0.41578,0.41577 0.41577,0.41578 v 0.49137 0.49136 l -0.41577,0.41578 -0.41578,0.41577 h -0.49137 -0.49136 z m -167.367855,-6.06652 v -2.24896 h 0.264583 0.264583 v 1.98438 1.98437 h 0.926042 0.926042 v 0.26459 0.26458 h -1.190625 -1.190625 z m 2.910416,1.98438 v -0.26459 h 0.529167 0.529167 v -1.35531 -1.35531 l -0.40327,0.33468 -0.403268,0.33468 -0.156882,-0.15688 -0.156882,-0.15688 0.626298,-0.79223 0.626295,-0.79222 0.198438,-0.0146 0.198437,-0.0146 v 1.98438 1.98437 h 0.529167 0.529167 v 0.26459 0.26458 h -1.322917 -1.322917 z m 61.9125,-1.98438 v -2.24896 h 0.264583 0.264584 v 1.98438 1.98437 h 0.926041 0.926042 v 0.26459 0.26458 h -1.190625 -1.190625 z m 2.645833,2.05961 v -0.18935 l 1.217806,-1.2364 1.217806,-1.23639 -0.177303,-0.55863 -0.177302,-0.55863 h -0.643629 -0.643628 v 0.26458 0.26459 h -0.264293 -0.264583 v -0.36857 -0.36857 l 0.418515,-0.1606 0.418513,-0.1606 h 0.488629 0.488628 l 0.415774,0.41578 0.415774,0.41577 v 0.50951 0.5095 l -0.956828,1.0591 -0.956829,1.05909 h 0.956829 0.956828 v 0.26459 0.26458 h -1.455208 -1.455209 z m 29.633624,-2.05961 v -2.24896 h 0.264583 0.264584 v 1.98438 1.98437 h 0.926041 0.926042 v 0.26459 0.26458 h -1.190625 -1.190625 z m 2.905109,1.84569 -0.334682,-0.40327 0.1636,-0.1636 0.163602,-0.1636 0.388705,0.3226 0.388707,0.32259 0.609875,-0.0864 0.609876,-0.0865 v -0.79375 -0.79375 l -0.595313,-0.0845 -0.595312,-0.0845 v -0.21379 -0.21378 l 0.396875,-0.32938 0.396875,-0.32938 v -0.23218 -0.23219 h -0.926042 -0.926042 v -0.26458 -0.26459 h 1.455209 1.455208 v 0.23219 0.23219 l -0.396875,0.32937 -0.396875,0.32938 v 0.36448 0.36448 h 0.396875 0.396875 v 1.04902 1.04902 l -0.511773,0.2739 -0.511773,0.27389 h -0.646454 -0.646456 z m 31.490723,-1.84569 v -2.24896 h 0.26458 0.26459 v 1.98438 1.98437 h 0.79375 0.79375 v 0.26459 0.26458 h -1.05834 -1.05833 z m 4.49792,1.5875 v -0.66146 h -0.79375 -0.79375 v -0.17518 -0.17518 l 0.44519,-1.41232 0.44519,-1.41232 h 0.21627 0.21626 v 0.23132 0.23132 l -0.38513,1.0916 -0.38514,1.0916 h 0.51743 0.51743 v -0.66146 -0.66146 h 0.26458 0.26458 v 0.63941 0.63941 l 0.33073,0.15434 0.33073,0.15434 -0.33073,0.15434 -0.33073,0.15434 v 0.63941 0.63941 h -0.26458 -0.26458 z m 88.63542,-1.5875 v -2.24896 h 0.26458 0.26458 v 1.98438 1.98437 h 0.92604 0.92605 v 0.26459 0.26458 h -1.19063 -1.19062 z m 3.32618,1.83318 -0.41577,-0.41577 v -0.97329 -0.97329 l 0.52428,-0.85989 0.52429,-0.8599 h 0.66535 0.66535 v 0.26459 0.26458 h -0.47625 -0.47625 l -0.3175,0.3175 -0.3175,0.3175 v 0.21167 0.21166 h 0.50752 0.50753 l 0.41851,0.1606 0.41852,0.1606 v 0.97711 0.97711 l -0.3175,0.3175 -0.3175,0.3175 h -0.58965 -0.58962 l -0.41579,-0.41578 z m 1.56861,-1.0358 v -0.79013 l -0.49112,-0.0946 -0.49112,-0.0946 -0.27003,0.27003 -0.27004,0.27002 0.17521,0.69801 0.17518,0.69801 0.58595,-0.0833 0.58597,-0.0833 z m 33.20521,-0.79738 v -2.24896 h 0.26458 0.26458 v 1.98438 1.98437 h 0.92605 0.92604 v 0.26459 0.26458 h -1.19063 -1.19062 z m 3.70416,2.11141 v -0.13755 l 0.66146,-1.62786 0.66146,-1.62786 v -0.21896 -0.21897 h -1.19063 -1.19062 v -0.26458 -0.26459 h 1.61581 1.61581 l -0.17044,0.46302 -0.17045,0.46302 -0.69342,1.78594 -0.69342,1.78594 h -0.22278 -0.22278 z m 28.575,-2.11141 v -2.24896 h 0.26459 0.26458 v 1.98438 1.98437 h 0.92604 0.92604 v 0.26459 0.26458 h -1.19062 -1.19063 z m 3.34831,1.7651 -0.43789,-0.48385 v -0.55886 -0.55887 l 0.25916,-0.16017 0.25916,-0.16017 -0.31356,-0.5021 -0.31356,-0.5021 0.49229,-0.54397 0.49228,-0.54397 h 0.57944 0.57944 l 0.49228,0.54397 0.49228,0.54397 -0.31355,0.5021 -0.31356,0.5021 0.25916,0.16017 0.25916,0.16017 v 0.60484 0.60483 l -0.48385,0.43789 -0.48387,0.43788 h -0.53348 -0.53345 z m 1.67597,-0.43881 0.3266,-0.39351 -0.15359,-0.40024 -0.15359,-0.40025 h -0.67807 -0.67808 l -0.15359,0.40025 -0.15359,0.40024 0.3266,0.39351 0.32658,0.3935 h 0.33208 0.33208 z m -0.0564,-2.03437 0.31121,-0.3112 -0.29068,-0.35026 -0.29069,-0.35025 h -0.33208 -0.33208 l -0.2907,0.35025 -0.29067,0.35026 0.3112,0.3112 0.31121,0.31121 h 0.29104 0.29104 z m 29.42797,0.70808 v -2.24896 h 0.26458 0.26458 v 1.98438 1.98437 h 0.92604 0.92605 v 0.26459 0.26458 h -1.19063 -1.19062 z m 3.175,1.98438 v -0.26459 h 0.47625 0.47625 l 0.3175,-0.3175 0.3175,-0.3175 v -0.21166 -0.21167 h -0.76544 -0.76544 l -0.1606,-0.41852 -0.16061,-0.41851 v -0.62092 -0.62092 l 0.41577,-0.41577 0.41579,-0.41578 h 0.49136 0.49136 l 0.41579,0.41578 0.41577,0.41577 v 0.97329 0.97329 l -0.52428,0.85989 -0.52429,0.8599 h -0.66535 -0.66535 v -0.26458 z m 1.72908,-2.13171 0.17282,-0.27962 -0.16224,-0.64642 -0.16224,-0.64642 h -0.51909 -0.51909 l -0.16224,0.64642 -0.16224,0.64642 0.17282,0.27962 0.1728,0.27962 h 0.49795 0.49795 z M -3.9865053,147.17424 v -2.24896 h 0.907142 0.907143 l 0.440184,0.44019 0.440185,0.44018 -0.148034,0.74018 -0.148037,0.74018 0.255915,0.15817 0.255918,0.15816 v 0.49466 0.49465 l -0.415774,0.41578 -0.415774,0.41577 h -1.039434 -1.039434 z m 2.116666,1.45869 0.396875,-0.253 -0.291269,-0.47055 -0.291269,-0.47056 -0.700918,-0.0837 -0.700919,-0.0837 v 0.81132 0.81132 l 0.595313,-0.004 0.595312,-0.004 0.396875,-0.253 z m -0.147047,-2.09627 0.148764,-0.24071 -0.161456,-0.42075 -0.16146,-0.42075 h -0.63315 -0.633151 v 0.66146 0.66146 h 0.645843 0.645845 z m 1.73454701,2.62196 v -0.26459 h 0.529167 0.529167 v -1.20845 -1.20846 l -0.529167,0.16795 -0.529167,0.16796 v -0.28242 -0.28241 h 0.270256 0.270256 l 0.301379,-0.66146 0.301382,-0.66146 h 0.22211499 0.222112 v 1.98438 1.98437 h 0.529167 0.529167 v 0.26459 0.26458 H 1.0405777 -0.28233929 Z M 135.18432,145.45445 v -2.11667 l 0.85989,0.004 0.8599,0.004 0.29029,0.19438 0.29029,0.19439 0.15643,1.35668 0.15643,1.35667 -0.14685,0.56156 -0.14685,0.56155 h -1.15977 -1.15976 v -2.11667 z m 1.98437,0.92604 v -0.52917 l -0.7276,-0.0837 -0.72761,-0.0837 v 0.6966 0.69661 l 0.72761,-0.0837 0.7276,-0.0837 z m -0.26458,-1.85208 v -0.52917 l -0.59531,-0.0846 -0.59532,-0.0845 v 0.69826 0.69826 l 0.59532,-0.0846 0.59531,-0.0846 z m 3.57187,2.38125 v -0.66146 h -0.92604 -0.92604 v -0.10875 -0.10875 l 0.56589,-1.47875 0.56588,-1.47875 h 0.22787 0.22786 v 0.14079 0.14079 l -0.39687,0.94985 -0.39688,0.94986 v 0.23227 0.23227 h 0.52917 0.52916 v -0.52916 -0.52917 h 0.26459 0.26458 v 0.50712 0.50711 l 0.33073,0.15435 0.33073,0.15434 -0.33073,0.15434 -0.33073,0.15434 v 0.63941 0.63941 h -0.26458 -0.26459 z m -77.522912,-7.14375 v -2.24896 h 0.264583 0.264584 v 2.24896 2.24896 h -0.264584 -0.264583 z m 1.5875,1.98437 v -0.26458 h 0.529167 0.529166 v -1.29815 -1.29814 l -0.529166,0.13838 -0.529167,0.13838 v -0.15113 -0.15112 l 0.673484,-0.67349 0.673486,-0.67348 h 0.120264 0.120266 v 1.98437 1.98438 h 0.529167 0.529166 v 0.26458 0.26459 H 65.863485 64.540568 Z M 260.8614,139.76591 v -2.24896 h 0.26459 0.26458 v 2.24896 2.24896 h -0.26458 -0.26459 z m 1.91823,2.07373 -0.33073,-0.13346 v -0.37482 -0.37483 h 0.26459 0.26458 v 0.26459 0.26458 h 0.62907 0.62905 l 0.31882,-0.38416 0.31885,-0.38417 -0.0907,-0.47573 -0.0907,-0.47573 -0.59261,-0.0846 -0.59261,-0.0846 v -0.21378 -0.21379 l 0.39687,-0.32937 0.39688,-0.32938 v -0.23219 -0.23218 h -0.92605 -0.92604 v -0.26459 -0.26458 h 1.45521 1.45521 v 0.1776 0.17761 l -0.43789,0.48385 -0.43788,0.48386 0.43788,0.48385 0.43789,0.48385 v 0.66577 0.66576 l -0.48384,0.43788 -0.48387,0.43789 -0.64061,-0.0209 -0.64064,-0.0209 -0.33073,-0.13345 z m -83.67448,-5.91019 v -2.11667 l 0.8599,0.004 0.85989,0.004 0.29068,0.19438 0.29067,0.19439 0.17216,1.50018 0.17219,1.50017 -0.16044,0.41806 -0.16042,0.41805 h -1.16231 -1.16232 v -2.11667 z m 1.98438,0.92604 v -0.52917 l -0.72761,-0.0837 -0.7276,-0.0837 v 0.6966 0.69661 l 0.7276,-0.0837 0.72761,-0.0837 z m -0.26459,-1.85208 v -0.52917 l -0.59531,-0.0846 -0.59531,-0.0845 v 0.69826 0.69826 l 0.59531,-0.0845 0.59531,-0.0846 z m 2.0373,2.72521 -0.3175,-0.3175 v -1.14974 -1.14973 l 0.64942,-0.64943 0.64944,-0.64944 h 0.54118 0.54121 v 0.26459 0.26458 h -0.49679 -0.49675 l -0.32938,0.39687 -0.32938,0.39688 h 0.65286 0.65283 l 0.43789,0.48385 0.43788,0.48386 v 0.65385 0.65386 l -0.3175,0.3175 -0.3175,0.3175 h -0.82021 -0.8202 z m 1.98186,-0.64451 0.1661,-0.43284 -0.26937,-0.42705 -0.2694,-0.42706 h -0.47148 -0.47149 l -0.2694,0.42706 -0.26937,0.42705 0.1661,0.43284 0.16608,0.43284 h 0.67808 0.67807 z m -19.87526,0.0171 -0.41577,-0.41578 v -0.49137 -0.49137 l 0.41577,-0.41577 0.41578,-0.41577 h 0.49137 0.49136 l 0.41578,0.41577 0.41577,0.41577 v 0.49137 0.49137 l -0.41577,0.41578 -0.41578,0.41577 h -0.49136 -0.49137 z m 9.26041,0 -0.41576,-0.41578 v -0.49136 -0.49137 l 0.41576,-0.41578 0.4158,-0.41577 h 0.49135 0.49136 l 0.41579,0.41577 0.41577,0.41578 v 0.49137 0.49136 l -0.41577,0.41578 -0.41579,0.41577 h -0.49136 -0.49135 z M 47.53199,118.22769 47.078068,117.45926 v -0.69881 -0.6988 l 0.649433,-0.64943 0.64943,-0.64944 h 0.387263 0.387263 l 0.418512,0.1606 0.418515,0.1606 v 0.20915 0.20914 l -0.842314,-0.039 -0.842317,-0.039 -0.395449,0.6913 -0.395449,0.69129 0.343824,0.83006 0.343821,0.83006 h 0.629359 0.629359 v -0.52917 -0.52916 h -0.264584 -0.264583 v -0.26459 -0.26458 h 0.529167 0.529166 v 1.05833 1.05834 h -1.001286 -1.001287 z m 3.514828,-1.37029 v -2.13871 l 0.257802,0.0882 0.257799,0.0882 0.926052,1.4552 0.926053,1.45521 0.0068,-1.52135 0.0068,-1.52136 h 0.264583 0.264584 v 2.13872 2.13872 l -0.257802,-0.0882 -0.2578,-0.0882 -0.926052,-1.45521 -0.926053,-1.45521 -0.0068,1.52135 -0.0068,1.52136 h -0.264583 -0.264583 z m 4.233333,0.022 v -2.11666 h 0.673484 0.673486 l 0.649431,0.64943 0.649433,0.64943 v 0.69881 0.69881 l -0.453922,0.76842 -0.453922,0.76843 h -0.868995 -0.868995 z m 1.867123,0.75744 0.343823,-0.83005 -0.386964,-0.68943 -0.386963,-0.68942 -0.453925,-0.0874 -0.453927,-0.0874 v 1.6069 1.6069 h 0.497067 0.497068 z m 188.434446,0.84388 -0.33073,-0.5358 v -1.18812 -1.18811 l 0.64616,-0.42338 0.64617,-0.42339 0.58989,0.0866 0.58986,0.0866 0.11276,0.34227 0.11277,0.34227 -0.69078,-0.17338 -0.6908,-0.17338 -0.39343,0.32653 -0.39344,0.32652 v 0.87201 0.87201 l 0.16061,0.41851 0.1606,0.41851 h 0.76544 0.76544 v -0.52916 -0.52917 h -0.39688 -0.39687 v -0.26458 -0.26459 h 0.67744 0.67741 l -0.0821,0.99219 -0.0821,0.99219 -1.05833,0.0764 -1.05833,0.0764 z m 3.63802,-1.60131 v -2.11667 h 0.22254 0.22251 l 0.76968,1.38907 0.76964,1.38906 0.08,-1.38906 0.0799,-1.38907 h 0.25077 0.25075 v 2.11667 2.11667 h -0.22254 -0.22252 l -0.76967,-1.38906 -0.76964,-1.38907 -0.08,1.38907 -0.08,1.38906 h -0.25077 -0.25074 z m 3.96875,0 v -2.11667 h 0.5167 0.51673 l 0.6695,0.30505 0.66953,0.30505 0.16182,0.86258 0.16182,0.86257 -0.18981,0.61831 -0.18981,0.61832 -0.26459,0.33073 -0.26461,0.33073 h -0.89363 -0.89365 z m 1.8733,0.87022 0.27271,-0.71727 -0.16794,-0.66914 -0.16795,-0.66913 -0.30975,-0.19704 -0.30975,-0.19703 -0.33073,-0.004 -0.33073,-0.004 v 1.5875 1.5875 h 0.53573 0.5357 z m -112.05336,-1.02141 -0.41578,-0.41577 v -0.49137 -0.49137 l 0.41578,-0.41577 0.41577,-0.41578 h 0.49137 0.49137 l 0.41577,0.41578 0.41578,0.41577 v 0.49137 0.49137 l -0.41578,0.41577 -0.41577,0.41577 h -0.49137 -0.49137 z m -11.79286,-6.86023 v -0.66146 h -0.92604 -0.92605 v -0.18108 -0.18108 l 0.43175,-1.53871 0.43174,-1.53871 h 0.22971 0.22972 v 0.22253 0.22254 l -0.37098,1.23267 -0.37098,1.23268 h 0.63556 0.63557 v -0.66146 -0.66146 h 0.26458 0.26458 v 0.63941 0.63941 l 0.33073,0.15434 0.33073,0.15434 -0.33073,0.15434 -0.33073,0.15434 v 0.63941 0.63941 h -0.26458 -0.26458 z m 3.70416,0 v -0.66146 h -0.92604 -0.92604 v -0.18108 -0.18108 l 0.43174,-1.53871 0.43174,-1.53871 h 0.22972 0.22972 v 0.22253 0.22254 l -0.37098,1.23267 -0.37098,1.23268 h 0.63556 0.63556 v -0.66146 -0.66146 h 0.26459 0.26458 v 0.63941 0.63941 l 0.33073,0.15434 0.33073,0.15434 -0.33073,0.15434 -0.33073,0.15434 v 0.63941 0.63941 h -0.26458 -0.26459 z m 26.72292,0 v -0.66146 h -0.95435 -0.95435 l 0.12206,-0.33073 0.12207,-0.33073 0.45667,-1.38906 0.45668,-1.38906 h 0.24332 0.24332 v 0.099 0.099 l -0.39688,1.12486 -0.39687,1.12487 v 0.23132 0.23131 h 0.52917 0.52916 v -0.66146 -0.66146 h 0.26459 0.26458 v 0.63941 0.63941 l 0.33073,0.15434 0.33073,0.15434 -0.33073,0.15434 -0.33073,0.15434 v 0.63941 0.63941 h -0.26458 -0.26459 z m -18.63422,-2.13556 -0.41578,-0.41578 v -0.49137 -0.49137 l 0.41578,-0.41577 0.41577,-0.41577 h 0.49137 0.49137 l 0.41577,0.41577 0.41578,0.41577 v 0.49137 0.49137 l -0.41578,0.41578 -0.41577,0.41577 h -0.49137 -0.49137 z m -28.46161,-6.06652 v -2.248956 h 0.26458 0.26458 v 1.984376 1.98437 h 0.92605 0.92604 v 0.26458 0.26459 h -1.19063 -1.19062 z m 3.16969,1.84569 -0.33468,-0.40327 0.1744,-0.17441 0.17441,-0.1744 0.31309,0.31309 0.31309,0.31309 h 0.47121 0.47121 l 0.16224,-0.64642 0.16224,-0.64642 -0.1875,-0.30338 -0.1875,-0.30338 -0.89574,0.16804 -0.89575,0.16804 v -0.37579 -0.37579 l 0.16537,-0.82683 0.16536,-0.826816 h 1.02526 1.02526 v 0.26458 0.26459 h -0.76289 -0.76289 l -0.13838,0.529156 -0.13838,0.52917 h 0.61779 0.61779 l 0.41577,0.41577 0.41578,0.41578 v 0.62366 0.62366 l -0.41578,0.41577 -0.41577,0.41578 h -0.61016 -0.61017 z m 23.02406,-5.814436 v -2.24896 h 0.88503 0.88504 l 0.46924,0.51851 0.46924,0.5185 -0.16462,0.65591 -0.16462,0.6559 0.26555,0.16412 0.26555,0.16412 v 0.47255 0.47254 l -0.48385,0.43788 -0.48385,0.43789 h -0.97136 -0.97135 z m 2.11666,1.32292 0.32938,-0.39688 -0.32938,-0.39687 -0.32937,-0.39688 h -0.62906 -0.62907 v 0.79375 0.79375 h 0.62907 0.62906 z m -0.12513,-1.99597 0.17069,-0.27617 -0.31976,-0.38529 -0.31976,-0.38528 h -0.49676 -0.49678 v 0.66146 0.66145 h 0.64585 0.64584 z m 1.97191,2.51874 -0.33468,-0.40327 0.14423,-0.14423 0.14423,-0.14423 0.51988,0.32467 0.51989,0.32467 0.44964,-0.17254 0.44964,-0.17254 -0.0839,-0.72911 -0.0839,-0.72911 -0.99219,0.0582 -0.99218,0.0582 v -0.35589 -0.35589 l 0.16536,-0.82683 0.16537,-0.82682 h 1.15755 1.15755 v 0.26458 0.26459 h -0.89518 -0.89519 l -0.13088,0.50051 -0.13089,0.50051 1.02607,0.16407 1.02607,0.16408 v 1.04589 1.0459 l -0.51177,0.2739 -0.51178,0.27389 h -0.51416 -0.51416 z m 36.25323,-9.25402 v -2.24896 h 0.26458 0.26458 v 2.24896 2.24895 h -0.26458 -0.26458 z m 1.32291,2.03946 v -0.20949 l 1.19063,-1.16852 1.19062,-1.16851 v -0.48238 -0.48238 l -0.43193,-0.16575 -0.4319,-0.16574 -0.51988,0.32467 -0.51991,0.32468 -0.14423,-0.14424 -0.14422,-0.14423 0.33467,-0.40326 0.3347,-0.40327 h 0.70842 0.70845 l 0.3175,0.3175 0.3175,0.3175 v 0.66353 0.66353 l -0.97973,1.00335 -0.97975,1.00334 h 0.97975 0.97973 v 0.26458 0.26458 h -1.45521 -1.45521 z m -16.74399,-23.577683 -0.45392,-0.768427 v -0.698807 -0.698808 l 0.64943,-0.649432 0.64943,-0.649431 h 0.38726 0.38727 l 0.41851,0.160599 0.41851,0.160599 v 0.209142 0.209142 l -0.84231,-0.03901 -0.84232,-0.03901 -0.39545,0.691295 -0.39545,0.691295 0.34383,0.830059 0.34382,0.830059 h 0.62936 0.62936 v -0.529167 -0.529166 h -0.26459 -0.26458 v -0.264588 -0.264583 h 0.52917 0.52916 v 1.058333 1.058334 h -1.00128 -1.00129 z m 3.77941,-1.348239 v -2.116666 h 0.22253 0.22254 l 0.76965,1.389062 0.76966,1.389062 0.08,-1.389062 0.08,-1.389062 h 0.25076 0.25075 v 2.116666 2.116667 h -0.22253 -0.22253 l -0.76966,-1.389063 -0.76965,-1.389062 -0.08,1.389062 -0.08,1.389063 h -0.25075 -0.25076 z m 3.96875,0 v -2.116666 h 0.6735 0.67347 l 0.64944,0.649431 0.64942,0.649432 v 0.698808 0.698807 l -0.45392,0.768427 -0.45391,0.768428 h -0.869 -0.869 z m 1.86711,0.757441 0.34383,-0.830059 -0.38696,-0.689423 -0.38695,-0.689423 -0.45394,-0.08742 -0.45392,-0.08742 v 1.6069 1.6069 h 0.49707 0.49707 z"
       id="path249" />
  </g>
</svg>
