<?xml version="1.0" encoding="UTF-8" standalone="no"?>
<!-- Created with Inkscape (http://www.inkscape.org/) -->

<svg
   width="288.13123mm"
   height="180.71216mm"
   viewBox="0 0 288.13123 180.71216"
   version="1.1"
   id="svg5"
   inkscape:version="1.1.2 (b8e25be833, 2022-02-05)"
   sodipodi:docname="DSFQ_OR.svg"
   xmlns:inkscape="http://www.inkscape.org/namespaces/inkscape"
   xmlns:sodipodi="http://sodipodi.sourceforge.net/DTD/sodipodi-0.dtd"
   xmlns="http://www.w3.org/2000/svg"
   xmlns:svg="http://www.w3.org/2000/svg">
  <sodipodi:namedview
     id="namedview7"
     pagecolor="#ffffff"
     bordercolor="#666666"
     borderopacity="1.0"
     inkscape:pageshadow="2"
     inkscape:pageopacity="0.0"
     inkscape:pagecheckerboard="0"
     inkscape:document-units="mm"
     showgrid="false"
     inkscape:zoom="1.4396184"
     inkscape:cx="500.82716"
     inkscape:cy="357.73369"
     inkscape:window-width="3840"
     inkscape:window-height="1526"
     inkscape:window-x="2869"
     inkscape:window-y="49"
     inkscape:window-maximized="1"
     inkscape:current-layer="layer1" />
  <defs
     id="defs2" />
  <g
     inkscape:label="Layer 1"
     inkscape:groupmode="layer"
     id="layer1"
     transform="translate(25.671989,-24.995574)">
    <path
       style="fill:#000000;stroke-width:0.264583"
       d="m 195.05003,203.78153 -1.91161,-1.92445 v -0.19222 -0.19221 h 1.85208 1.85209 v -3.68634 -3.68633 l 0.5276,-0.16746 0.5276,-0.16745 0.39844,-0.39845 0.39844,-0.39844 v -0.60155 -0.60155 l -0.48385,-0.43788 -0.48386,-0.43789 h -0.44218 -0.44219 v -0.25014 -0.25015 l 0.7032,-0.34516 0.7032,-0.34517 0.2618,-0.42207 0.2618,-0.42207 -0.16788,-0.66891 -0.16789,-0.66892 -0.79712,-0.33018 -0.79711,-0.33017 v -0.23249 -0.23248 h 0.48816 0.48816 l 0.43788,-0.48386 0.43788,-0.48385 v -0.57448 -0.57448 l -0.52917,-0.52916 -0.52916,-0.52917 h -0.39688 -0.39687 v -0.2359 -0.2359 l 0.67045,-0.16828 0.67046,-0.16827 0.29805,-0.65416 0.29806,-0.65416 -0.29806,-0.65416 -0.29805,-0.65416 -0.67046,-0.16827 -0.67045,-0.16828 v -1.19079 -1.1908 l -0.59531,-0.62803 -0.59532,-0.62803 -12.50156,-0.005 -12.50156,-0.005 v -2.0742 -2.0742 l 0.66535,-0.30316 0.66536,-0.30315 0.29822,-0.65452 0.29821,-0.65451 -0.4405,-0.6723 -0.44051,-0.6723 h -0.52306 -0.52307 v -0.27113 -0.27113 l 0.66471,-0.25272 0.66471,-0.25273 0.29886,-0.65593 0.29886,-0.65593 -0.42735,-0.65223 -0.42736,-0.65223 -0.53622,-0.17019 -0.53621,-0.17019 v -0.24675 -0.24675 h 0.52307 0.52306 l 0.45338,-0.69195 0.45338,-0.69195 -0.38762,-0.69711 -0.38763,-0.69712 -0.58882,-0.26118 -0.58882,-0.26118 v -0.14383 -0.14384 l 0.78181,-0.2951 0.78181,-0.2951 0.17659,-0.70359 0.17659,-0.7036 -0.60765,-0.64681 -0.60764,-0.64681 h -0.34404 -0.34403 l -0.0729,-4.16431 -0.0729,-4.16432 -1.38907,-0.49904 -1.38906,-0.49903 v -0.20005 -0.20004 l 2.2287,-0.95744 2.2287,-0.95744 h 0.28484 0.28484 l -5.2e-4,-0.19843 -5.3e-4,-0.19844 -2.51305,-0.88648 -2.51304,-0.88648 v -0.2066 -0.2066 l 2.22869,-0.95744 2.2287,-0.95744 h 0.28485 0.28484 l -5.3e-4,-0.19844 -5.3e-4,-0.19844 -2.51304,-0.88648 -2.51305,-0.88648 v -0.2066 -0.2066 l 2.2287,-0.95744 2.2287,-0.95744 h 0.28484 0.28484 v -0.2227 -0.2227 l -1.05833,-0.31709 -1.05833,-0.31708 v -2.57642 -2.57641 l -0.52917,-0.45308 -0.52917,-0.45309 v -0.53435 -0.53434 l 0.52917,-0.45309 0.52917,-0.45308 v -6.88807 -6.88807 l 0.79434,-0.35161 0.79434,-0.35161 0.16406,-0.65367 0.16406,-0.65367 -0.60765,-0.6468 -0.60765,-0.64681 h -0.35075 -0.35075 v -0.26459 -0.26458 h 0.35075 0.35075 l 0.60765,-0.64681 0.60765,-0.64681 -0.17659,-0.7036 -0.17659,-0.70359 -0.78181,-0.29511 -0.78181,-0.2951 v -0.1641 -0.16411 l 0.66535,-0.30316 0.66536,-0.30315 0.29821,-0.65452 0.29822,-0.65451 -0.4405,-0.6723 -0.44051,-0.6723 h -0.52307 -0.52306 v -0.27113 -0.27113 l 0.66471,-0.25272 0.66471,-0.25273 0.28855,-0.6333 0.28855,-0.6333 -0.30789,-0.575301 -0.30789,-0.5753 -0.64537,-0.24537 -0.64537,-0.24537 v -6.78142 -6.78228 l -0.59532,-0.62803 -0.59531,-0.62803 -8.79739,-0.005 -8.79727,-0.005 v -0.51417 -0.51416 l -0.58804,-0.41188 -0.58803,-0.41188 h -0.56158 -0.56158 l -0.43788,0.48386 -0.43789,0.48385 v 0.44219 0.44219 h -0.26458 -0.26458 v -0.39688 -0.39687 l -0.52917,-0.52917 -0.52917,-0.52917 h -0.62045 -0.62045 l -0.43788,0.48386 -0.43788,0.48385 v 0.44219 0.44219 h -0.25955 -0.25954 l -0.16777,-0.66844 -0.16776,-0.66844 -0.48134,-0.2576 -0.48134,-0.25761 h -0.50555 -0.50555 l -0.43789,0.48386 -0.43788,0.48385 v 0.44219 0.44219 h -0.23248 -0.23249 l -0.33017,-0.79712 -0.33018,-0.79711 -0.62737,-0.15747 -0.62738,-0.15745 -0.40713,0.15623 -0.40714,0.15623 -0.45335,0.79667 -0.45335,0.79667 -7.67292,0.006 -7.67291,0.006 -0.59532,0.62803 -0.59531,0.62804 v 10.1442 10.144201 l 2.63727,-2.62738 2.63728,-2.62738 0.207,0.20904 0.20699,0.20903 -2.84351,2.75404 -2.84352,2.75404 2.84352,2.75404 2.84351,2.75403 -0.20699,0.20904 -0.207,0.20903 -2.63728,-2.62738 -2.63727,-2.62738 v 10.18884 10.18884 l 0.52917,0.45308 0.52916,0.45309 v 0.53434 0.53435 l -0.52916,0.45309 -0.52917,0.45308 v 4.5003 4.5003 l 2.63727,-2.62738 2.63728,-2.62738 0.1952,0.1952 0.1952,0.1952 -2.83108,2.83109 -2.83109,2.83109 2.82961,2.83842 2.82962,2.83841 -0.19373,0.19373 -0.19373,0.19373 -2.63728,-2.62738 -2.63727,-2.62738 0.002,6.8742 0.002,6.87421 0.76493,0.43513 0.76493,0.43514 0.17996,0.81935 0.17996,0.81934 -0.39937,0.80055 -0.39936,0.80055 0.37721,0.72309 0.37722,0.7231 0.002,0.53644 0.002,0.53644 -0.39425,0.56286 -0.39424,0.56287 0.39261,0.75277 0.39262,0.75278 0.002,0.55963 0.002,0.55964 -0.501,0.63691 -0.501,0.63691 0.501,0.61871 0.501,0.6187 v 0.48741 0.4874 l -0.30995,0.68025 -0.30994,0.68026 -0.6161,0.15463 -0.6161,0.15463 v 3.54319 3.54319 h 1.85208 1.85209 v 0.20506 0.20506 l -1.98404,1.97113 -1.98437,1.97113 -1.98438,-1.97113 -1.98437,-1.97113 v -0.20506 -0.20506 h 1.85208 1.85208 v -3.71071 -3.71072 l 0.66471,-0.25272 0.66471,-0.25272 0.28856,-0.63331 0.28855,-0.6333 -0.30789,-0.5753 -0.30789,-0.5753 -0.64537,-0.24537 -0.64538,-0.24537 v -0.25273 -0.25273 l 0.59284,-0.0845 0.59283,-0.0846 0.3544,-0.7417 0.3544,-0.7417 -0.41102,-0.6273 -0.41102,-0.62729 -0.53621,-0.17019 -0.53622,-0.17019 v -0.21807 -0.21807 l 0.67082,-0.16837 0.67082,-0.16836 0.26225,-0.68978 0.26226,-0.68978 -0.39686,-0.60568 -0.39686,-0.60568 -0.53621,-0.17019 -0.53622,-0.17019 v -0.18216 -0.18217 l 0.76541,-0.3388 0.76541,-0.3388 0.15161,-0.57975 0.15161,-0.57975 -0.4148,-0.63306 -0.4148,-0.63307 -0.50222,-0.13133 -0.50222,-0.13133 v -7.3066 -7.3066 l -2.76945,2.76002 -2.76944,2.76002 -0.19385,-0.19384 -0.19385,-0.19385 2.82962,-2.83841 2.82961,-2.83842 -2.83109,-2.83109 -2.83108,-2.83109 0.19531,-0.19532 0.19533,-0.19531 2.76944,2.76002 2.76945,2.76002 -0.005,-4.62548 -0.005,-4.62548 -0.62803,-0.59531 -0.62803,-0.59531 h -3.86532 -3.86531 v 28.97187 28.97188 H 81.881134 52.644676 v -7.40834 -7.40833 H 41.867868 31.091062 l 2.627379,2.63727 2.627381,2.63728 -0.193731,0.19373 -0.193727,0.19373 -2.838416,-2.82962 -2.838418,-2.82961 -2.831087,2.83109 -2.831089,2.83108 -0.195202,-0.1952 -0.195204,-0.1952 2.627381,-2.63728 2.627379,-2.63727 H 16.714221 3.9447313 l -0.1642,-0.46302 -0.1642,-0.46302 -0.39767,-0.46302 -0.39767,-0.46302 h -0.75702 -0.75702 l -0.44160003,0.92604 -0.4416,0.92604 h -0.21558 -0.21558 v -0.48816 -0.48816 l -0.50577,-0.45771 -0.50575997,-0.45772 -0.75101,0.086 -0.751,0.086 -0.39687,0.85417 -0.39688,0.85417 -0.19844,0.006 -0.19843,0.006 v -0.48816 -0.48816 l -0.50577,-0.45771 -0.50577,-0.45772 -0.751,0.086 -0.75101,0.086 -0.39687,0.85417 -0.39688,0.85417 h -0.13229 -0.13229 l -0.39687,-0.85417 -0.39688,-0.85417 -0.751,-0.086 -0.751,-0.086 -0.5057703,0.45772 -0.50577,0.45771 v 0.48816 0.48816 h -1.96436 -1.96436 l -1.64604,1.85208 -1.64603,1.85209 h -3.93023 -3.93023 v -4.10105 -4.10104 h 3.90909 3.90909 l 1.68933,1.98438 1.68932,1.98437 h 1.67763 1.67762 v -0.39687 -0.39688 l 0.52917,-0.52916 0.52917,-0.52917 h 0.9713503 0.97135 l 0.48386,0.43788 0.48385,0.43788 0.48386,-0.43788 0.48385,-0.43788 h 0.91248 0.91249 l 0.55967,0.39201 0.55968,0.39202 0.32534,-0.39202 0.32534,-0.39201 h 1.12583 1.12583997 l 0.33491,0.40355 0.33492,0.40355 0.44592,-0.40355 0.44591003,-0.40355 h 1.06264 1.06264 l 0.43788,0.48385 0.43789,0.48386 v 0.44218 0.44219 H 16.987341 29.748765 l -2.760025,-2.76945 -2.760025,-2.76945 0.193847,-0.19384 0.193845,-0.19385 2.838415,2.82962 2.838418,2.82961 2.831087,-2.83109 2.831089,-2.83108 0.195321,0.19531 0.195318,0.19532 -2.760025,2.76945 -2.760025,2.76945 h 11.173919 11.173918 v 7.40834 7.40833 h 28.707291 28.707287 v -28.97231 -28.97187 l 4.16719,-0.005 4.16719,-0.005 0.59531,-0.62804 0.59531,-0.62803 V 116.9045 106.62777 l -2.76945,2.76003 -2.76944,2.76002 -0.20712,-0.20915 -0.20711,-0.20914 2.84351,-2.75404 2.84352,-2.75403 -2.84352,-2.75404 -2.84351,-2.75404 0.20711,-0.20915 0.20712,-0.20915 2.76944,2.76002 2.76945,2.76003 -0.005,-10.314031 -0.005,-10.31402 -0.62803,-0.59531 -0.62803,-0.59531 H 103.40002 87.951846 l -0.453086,0.52916 -0.453088,0.52917 h -0.534344 -0.534345 l -0.453088,-0.52917 -0.453086,-0.52916 h -8.540157 -8.540157 v 10.90933 10.909341 l 2.769449,-2.76003 2.769449,-2.76002 0.207113,0.20915 0.207114,0.20915 -2.843514,2.75404 -2.843504,2.75404 2.843517,2.75403 2.843514,2.75404 -0.207113,0.20915 -0.207114,0.20915 -2.769449,-2.76002 -2.769449,-2.76003 v 10.36456 10.36455 l 0.261554,0.16165 0.261551,0.16165 -0.148918,-0.38808 -0.148921,-0.38808 1.043692,0.13999 1.043688,0.13999 0.191503,-0.30986 0.191503,-0.30986 -0.162243,-0.64642 -0.16224,-0.64642 h -0.524126 -0.524126 v -0.1776 -0.17761 l 0.437882,-0.48385 0.437883,-0.48386 h -0.967049 -0.96705 v -0.26457 -0.26459 h 1.455209 1.455208 v 0.17761 0.1776 l -0.427379,0.47225 -0.427379,0.47224 0.427379,0.42738 0.427379,0.42738 -0.0036,0.44412 -0.0036,0.44413 -0.159539,0.59531 -0.159535,0.59531 h -1.020861 -1.02086 l 0.154358,0.77178 0.154355,0.77179 -0.557845,0.47764 -0.557847,0.47764 v 4.63283 4.63282 l 2.769449,-2.76002 2.769449,-2.76002 0.195321,0.19531 0.195318,0.19532 -2.831087,2.83109 -2.831089,2.83109 2.829616,2.83842 2.829615,2.83841 -0.193847,0.19385 -0.193847,0.19384 -2.769452,-2.76002 -2.769449,-2.76002 v 7.07287 7.07288 h 0.350755 0.350753 l 0.575289,0.61236 0.575286,0.61237 v 0.95624 0.95623 l -0.427379,0.42738 -0.427378,0.42738 0.427378,0.47225 0.427379,0.47225 v 1.07125 1.07125 l -0.40355,0.33491 -0.403551,0.33492 0.403551,0.44592 0.40355,0.44591 v 1.07125 1.07125 l -0.40355,0.33492 -0.403551,0.33491 0.403551,0.44592 0.40355,0.44592 v 1.06264 1.06264 l -0.463021,0.39766 -0.46302,0.39767 -0.463021,0.1642 -0.463021,0.16421 v 3.44789 3.44788 h 1.852083 1.852084 v 0.20506 0.20506 l -1.984375,1.97113 -1.984375,1.97113 -1.984375,-1.97113 -1.984375,-1.97113 v -0.20506 -0.20506 h 1.852083 1.852083 v -3.67207 -3.67206 l 0.797116,-0.33018 0.797115,-0.33017 0.157462,-0.62738 0.157459,-0.62737 -0.156232,-0.40714 -0.156233,-0.40713 -0.796671,-0.45336 -0.796669,-0.45335 -0.0016,-0.19843 -0.0018,-0.19844 h 0.488159 0.488159 l 0.457716,-0.50577 0.457713,-0.50577 -0.08598,-0.751 -0.08598,-0.751 -0.859896,-0.37848 -0.859896,-0.37848 v -0.21683 -0.21684 h 0.488159 0.488159 l 0.457716,-0.50577 0.457713,-0.50576 -0.08598,-0.75101 -0.08598,-0.751 -0.85417,-0.39687 -0.85417,-0.39688 -0.0057,-0.19844 -0.0057,-0.19843 h 0.488159 0.488159 l 0.437883,-0.48386 0.437883,-0.48385 v -0.66577 -0.66576 l -0.483854,-0.43788 -0.483855,-0.43788 h -0.442187 -0.442188 v -7.20494 -7.20493 l -2.637274,2.62738 -2.637276,2.62738 -0.193728,-0.19373 -0.193731,-0.19373 2.829616,-2.83841 2.829615,-2.83842 -2.831089,-2.83109 -2.831087,-2.83109 0.195202,-0.1952 0.195202,-0.1952 2.637276,2.62738 2.637274,2.62738 -0.0046,-4.49296 -0.0046,-4.49295 -0.628034,-0.59531 -0.628033,-0.59531 H 48.591071 30.986025 l 2.692006,2.62516 2.692006,2.62516 -0.205843,0.20584 -0.205844,0.20585 -2.838415,-2.82962 -2.838418,-2.82961 -2.831087,2.83108 -2.831089,2.83109 -0.207317,-0.20732 -0.207317,-0.20731 2.692006,-2.62516 2.692005,-2.62516 H 16.766721 3.9447213 l -0.1642,-0.46302 -0.16421,-0.46302 -0.39766,-0.46303 -0.39767,-0.46302 h -0.75702 -0.75703 l -0.44159003,0.92605 -0.4416,0.92604 h -0.21558 -0.21558 v -0.48816 -0.48816 l -0.50577,-0.45772 -0.50576997,-0.45771 -0.751,0.086 -0.75099,0.086 -0.39687,0.85417 -0.39688,0.85417 -0.19844,0.006 -0.19843,0.006 v -0.52307 -0.52307 l -0.64616,-0.42338 -0.64617,-0.42338 -0.61061,0.0865 -0.61061,0.0866 -0.39687,0.85417 -0.39688,0.85417 -0.19843,0.006 -0.19844,0.006 v -0.39688 -0.39687 l -0.52917,-0.52917 -0.52916,-0.52917 h -0.62046 -0.62045 l -0.4378803,0.48386 -0.43788,0.48385 v 0.44219 0.44219 h -1.96436 -1.96436 l -1.64604,1.85208 -1.64603,1.85208 h -3.66565 -3.66564 v -3.96875 -3.96875 h 3.66564 3.66565 l 1.64603,1.85209 1.64604,1.85208 h 1.69977 1.69978 v -0.39687 -0.39688 l 0.52917,-0.52917 0.52917,-0.52916 h 0.9713503 0.97135 l 0.48386,0.43788 0.48385,0.43788 0.48386,-0.43788 0.48385,-0.43788 h 0.91248 0.91249 l 0.55967,0.39201 0.55968,0.39201 0.32534,-0.39201 0.32534,-0.39201 h 0.96707 0.96705997 l 0.55968,0.39201 0.55967,0.39201 0.32535,-0.39201 0.32534003,-0.39201 h 0.96706 0.96707 l 0.58804,0.41187 0.58804,0.41188 v 0.51417 0.51416 H 16.907331 29.588732 l -2.692006,-2.62516 -2.692006,-2.62516 0.205843,-0.20584 0.205844,-0.20584 2.838415,2.82961 2.838418,2.82961 2.831087,-2.83109 2.831089,-2.83108 0.207317,0.20732 0.207317,0.20731 -2.692006,2.62516 -2.692005,2.62516 17.642338,-0.005 17.642339,-0.005 0.595313,-0.62804 0.595312,-0.62803 v -10.14448 -10.1442 l -2.637274,2.62738 -2.637276,2.62738 -0.206994,-0.20904 -0.206997,-0.20902 2.843514,-2.75404 2.843517,-2.75403 -2.843517,-2.75404 -2.843514,-2.75404 0.206997,-0.20903 0.206994,-0.20904 2.637276,2.62738 2.637274,2.62738 V 94.509879 83.468489 l 8.797396,-0.005 8.797395,-0.005 0.595313,-0.62803 0.595312,-0.62804 v -2.93927 -2.93927 h -0.874093 -0.874091 l -1.357757,-0.6766 -1.357757,-0.6766 -0.969473,-1.07309 -0.96947,-1.07309 -0.497035,-1.09458 -0.497036,-1.09458 v -1.98438 -1.98437 l 0.497036,-1.09458 0.497035,-1.09459 0.96947,-1.07308 0.969473,-1.07309 1.357757,-0.6766 1.357757,-0.6766 h 0.874091 0.874093 v -5.42396 -5.42396 h -1.852083 -1.852083 v -0.20506 -0.20506 l 1.984375,-1.97113 1.984375,-1.97113 1.984375,1.97113 1.984375,1.97113 v 0.20506 0.20506 h -1.852084 -1.852083 v 5.42396 5.42396 h 0.874093 0.874091 l 1.357757,0.6766 1.357757,0.6766 0.969473,1.07309 0.96947,1.07308 0.497036,1.09459 0.497036,1.09458 0.0058,1.99857 0.0058,1.99857 -0.676597,1.35776 -0.676601,1.35776 -1.073089,0.96947 -1.073089,0.96947 -1.094581,0.49703 -1.094584,0.49704 -0.859896,0.006 -0.859896,0.006 0.0046,2.97656 0.0046,2.97657 0.628033,0.59531 0.628034,0.59531 h 15.448179 15.44818 l 0.45308,-0.52917 0.45309,-0.52916 h 0.53435 0.53434 l 0.45309,0.52916 0.45308,0.52917 h 7.49013 7.49013 l 0.1642,-0.46302 0.16421,-0.46302 0.39766,-0.46302 0.39767,-0.46302 h 0.95845 0.95846 l 0.55967,0.39201 0.55968,0.39201 0.32534,-0.39201 0.32535,-0.39201 h 0.96706 0.96707 l 0.52887,0.37044 0.52888,0.37044 0.50661,-0.37044 0.5066,-0.37044 h 0.92079 0.92078 l 0.48385,0.43788 0.48386,0.43788 0.48385,-0.43788 0.48386,-0.43788 h 0.96104 0.96105 l 0.53947,0.57905 0.53948,0.57906 v 0.34699 0.34698 h 8.54015 8.54016 l 0.45308,-0.52908 0.45309,-0.52917 h 0.53176 0.53175 v -0.22127 -0.22127 l 1.12448,0.0228 1.12448,0.0228 v -0.63262 -0.63263 l -0.52917,-0.29342 -0.52916,-0.29342 -0.10862,-0.0645 -0.10862,-0.0645 0.48035,-0.53078 0.48036,-0.53079 h -0.96705 -0.96705 v -0.26459 -0.26458 h 1.45521 1.45521 v 0.1776 0.17761 l -0.43788,0.48385 -0.43789,0.48386 0.43789,0.48385 0.43788,0.48386 v 0.45958 0.45958 l -0.27389,0.51177 -0.2739,0.51177 h -0.93878 -0.93878 l 0.11023,0.33073 0.11023,0.33073 20.17957,0.0678 20.17958,0.0678 0.62976,-0.59697 0.62975,-0.59697 0.005,-10.1815 0.005,-10.18149 -2.63727,2.62738 -2.63728,2.62738 -0.19362,-0.19363 -0.19362,-0.19362 2.76002,-2.76945 2.75998,-2.76945 -2.76002,-2.76945 -2.76003,-2.76945 0.19362,-0.19362 0.19363,-0.19362 2.63727,2.62738 2.63728,2.62738 V 49.530709 38.489324 l 1.78593,-0.0017 1.78594,-0.0017 0.46527,-0.817435 0.46527,-0.817435 0.52692,-0.137792 0.52692,-0.137793 v -1.059805 -1.059871 l -0.40327,0.334683 -0.40327,0.334683 -0.16737,-0.167367 -0.16737,-0.167368 0.71656,-0.664086 0.71656,-0.664085 h 0.11866 0.11866 l 0.009,1.521354 0.009,1.521354 0.91414,0.427943 0.91414,0.427944 0.30027,-0.361798 0.30025,-0.361809 h 0.96706 0.96706 l 0.55968,0.392013 0.55967,0.392012 0.32534,-0.392012 0.32535,-0.392013 h 0.96706 0.96707 l 0.55967,0.392013 0.55968,0.392012 0.32534,-0.392012 0.32534,-0.392013 h 1.03797 1.03796 l 0.64944,0.649432 0.64942,0.649431 v 0.27661 0.27661 h 3.43959 3.43958 v -1.852083 -1.852083 h 0.20505 0.20508 l 1.97112,1.984374 1.97112,1.984375 -1.97112,1.984375 -1.97112,1.984375 h -0.20508 -0.20505 v -1.852083 -1.852083 h -3.67207 -3.67208 l -0.33017,-0.797116 -0.33017,-0.797115 -0.66892,-0.167887 -0.66891,-0.167888 -0.42207,0.261804 -0.42207,0.261804 -0.34517,0.703199 -0.34516,0.703199 h -0.25015 -0.25014 v -0.48816 -0.488159 l -0.48386,-0.437882 -0.48385,-0.437883 h -0.71105 -0.71106 l -0.44159,0.926042 -0.4416,0.926042 h -0.21558 -0.21558 v -0.48816 -0.488159 l -0.50577,-0.457714 -0.50577,-0.457715 -0.751,0.08598 -0.751,0.08598 -0.39687,0.85417 -0.39688,0.854171 -0.18003,0.0057 -0.18004,0.0057 -0.0846,-0.595313 -0.0846,-0.595312 -1.38062,-0.07968 -1.38063,-0.07968 -0.16941,0.674993 -0.16941,0.674993 h -1.8234 -1.8234 v 10.776804 10.77681 l 2.63727,-2.62738 2.63728,-2.62738 0.19362,0.19362 0.19362,0.19363 -2.76002,2.76945 -2.76003,2.76944 2.76003,2.76945 2.76002,2.76945 -0.19362,0.19363 -0.19362,0.19362 -2.63727,-2.62734 -2.63727,-2.62737 v 10.1442 10.1442 l 0.59531,0.62803 0.59531,0.62804 3.70417,-0.006 3.70417,-0.006 0.53266,-0.84971 0.53267,-0.8497 1.00891,-0.0833 1.00891,-0.0833 0.61697,0.40425 0.61697,0.40426 0.32125,-0.38708 0.32124,-0.38707 h 0.96706 0.96707 l 0.55968,0.39201 0.55967,0.39201 0.32534,-0.39201 0.32535,-0.39201 h 0.97536 0.97536 l 0.50212,0.36715 0.5021,0.36715 0.58659,-0.38433 0.58655,-0.38433 1.00891,0.0833 1.00891,0.0833 0.53268,0.8497 0.53266,0.84971 5.33781,0.0102 5.33779,0.0102 1.64605,-1.85208 1.64602,-1.85209 h 4.06252 4.06252 v 3.96875 3.96875 h -4.06252 -4.06252 l -1.64602,-1.85208 -1.64605,-1.85208 h -5.66852 -5.66853 v -0.39691 -0.39687 l -0.52917,-0.52917 -0.52917,-0.52916 h -0.62045 -0.62044 l -0.43789,0.48385 -0.43788,0.48385 v 0.44219 0.44219 h -0.25953 -0.25956 l -0.16777,-0.66844 -0.16778,-0.66844 -0.48133,-0.2576 -0.48133,-0.2576 h -0.50556 -0.50554 l -0.43789,0.48385 -0.43788,0.48385 v 0.44219 0.44219 h -0.23249 -0.23248 l -0.33018,-0.79712 -0.33017,-0.79711 -0.62737,-0.15746 -0.62738,-0.15746 -0.40713,0.15623 -0.40714,0.15623 -0.45335,0.79667 -0.45335,0.79667 -0.19844,0.002 -0.19844,0.002 v -0.48816 -0.48816 l -0.50577,-0.45771 -0.50576,-0.45771 -0.75101,0.086 -0.751,0.0861 -0.37848,0.85989 -0.37847,0.8599 h -3.9945 -3.99449 l -0.45308,0.52916 -0.45309,0.52917 h -0.53435 -0.53434 l -0.45309,-0.52917 -0.45308,-0.52916 -20.11568,0.005 -20.11568,0.005 -0.59531,0.62803 -0.59531,0.62803 v 6.44501 l 1e-5,6.44499 0.92604,0.73889 0.92603,0.73888 v 0.864871 0.86488 l -0.4928,0.52895 -0.4928,0.52896 0.4928,0.60858 0.4928,0.60858 v 0.70556 0.70557 l -0.41188,0.58804 -0.41188,0.58804 0.41188,0.58803 0.41188,0.58804 v 0.67601 0.67601 l -0.41188,0.58803 -0.41188,0.58804 0.41188,0.58804 0.41188,0.58804 v 0.6992 0.69919 l -0.54837,0.69714 -0.54837,0.69714 h -0.37767 -0.37767 v 6.80308 6.80307 l 1.32291,-1.30302 1.32292,-1.30303 v -0.32284 -0.32285 l -0.50667,-0.16081 -0.50666,-0.16081 -0.68396,0.17166 -0.68396,0.17167 v -0.26496 -0.26496 l 0.41851,-0.1606 0.41852,-0.1606 h 0.62092 0.62092 l 0.41577,0.41577 0.41578,0.41578 v 0.37721 0.37722 l -0.95683,1.05909 -0.95683,1.0591 h 0.95683 0.95683 v 0.26458 0.26458 h -1.21268 -1.21267 l 0.11019,0.33073 0.1102,0.33073 11.7297,0.0689 11.72969,0.0689 0.49559,-0.53195 0.49559,-0.53196 h 0.50855 0.50855 l 0.50087,0.53762 0.50087,0.53762 3.25814,-0.0746 3.25813,-0.0746 0.50668,-1.52136 0.50669,-1.52135 h 0.22499 0.22498 l 1.00974,2.64077 1.00974,2.64076 h 0.13229 0.13229 l 1.00974,-2.64076 1.00974,-2.64077 h 0.2298 0.2298 l 0.86724,2.64583 0.86725,2.64584 0.14217,-0.005 0.14218,-0.005 1.00974,-2.64076 1.00973,-2.64077 h 0.22981 0.2298 l 0.86724,2.64583 0.86724,2.64584 h 0.16644 0.16644 l 0.31709,-1.05834 0.31708,-1.05833 h 4.09697 4.09697 l 0.23261,-0.59531 0.23261,-0.59531 1.23108,-1.01793 1.23108,-1.01791 -0.0812,-0.56959 -0.0812,-0.56957 -0.99214,0.0582 -0.99213,0.0582 v -0.25164 -0.25163 l 0.66146,-0.16601 0.66146,-0.16602 0.66146,0.16602 0.66146,0.16601 v 0.87999 0.88 l -0.52377,0.474 -0.52376,0.474 0.85449,0.4422 0.85449,0.4422 0.41771,-0.34603 0.41771,-0.34602 h 0.91247 0.9125 l 0.52887,0.37044 0.52888,0.37044 0.5066,-0.37044 0.50662,-0.37044 h 0.92078 0.92078 l 0.48387,0.43788 0.48384,0.43788 0.48384,-0.43788 0.48387,-0.43788 h 0.96105 0.96104 l 0.53946,0.57905 0.53949,0.57906 v 0.34699 0.34698 h 2.77812 2.77813 v 11.17392 11.17392 l 2.76944,-2.76003 2.76945,-2.76002 0.20712,0.20915 0.20711,0.20915 -2.8435,2.75404 -2.84353,2.75404 2.84353,2.75403 2.8435,2.75404 -0.20711,0.20915 -0.20712,0.20915 -2.76945,-2.76002 -2.76944,-2.76003 v 12.09997 12.09996 l -24.6724,0.005 -24.67239,0.005 -0.59531,0.62803 -0.59532,0.62804 0.0102,0.88875 0.0102,0.88875 0.84971,0.53266 0.8497,0.53267 0.0833,1.00891 0.0833,1.00892 -0.38433,0.58656 -0.38433,0.58657 0.36715,0.50211 0.36716,0.50211 v 0.87547 0.87547 l -0.46302,0.46303 -0.46303,0.46302 0.46303,0.46302 0.46302,0.46302 v 0.92604 0.92604 l -0.46302,0.46302 -0.46303,0.46302 0.46303,0.46302 0.46302,0.46302 v 0.77211 0.77212 l -0.16436,0.4283 -0.16435,0.4283 -0.76169,0.39388 -0.76169,0.39388 v 3.43279 3.43279 h 1.85209 1.85208 v 0.20506 0.20506 l -1.92445,1.91161 -1.92445,1.9116 h -0.13269 -0.1327 l -1.9116,-1.92445 z m 3.64464,-0.32451 1.43713,-1.45521 h -3.02463 -3.02463 l 1.43713,1.45521 1.43713,1.45521 h 0.15037 0.15037 z m -129.381245,-24.34166 1.437132,-1.45521 h -3.024632 -3.024632 l 1.437132,1.45521 1.437132,1.45521 h 0.150368 0.150368 z m 52.652085,0 1.43713,-1.45521 h -3.02463 -3.02463 l 1.43713,1.45521 1.43713,1.45521 h 0.15037 0.15037 z m -138.531699,-5.49011 1.47515,-1.65364 10e-4,-0.17658 0.001,-0.17658 -1.50537,-1.74165 -1.50538,-1.74165 h -3.5217 -3.52171 v 3.57187 3.57188 h 3.55074 3.55074 z m -5.66622,-1.78593 v -2.11667 h 0.90715 0.90714 l 0.3676,0.3676 0.36761,0.36761 0.0437,1.58707 0.0437,1.58707 -0.59088,0.15838 -0.59089,0.15838 -0.7276,0.004 -0.72761,0.004 z m 2.06893,0.85989 0.0845,-0.59531 h -0.81215 -0.81215 v 0.67903 0.67903 l 0.7276,-0.0837 0.72761,-0.0837 z m -0.20011,-1.54152 0.34611,-0.41704 -0.37986,-0.24036 -0.37986,-0.24037 -0.46302,-0.004 -0.46302,-0.004 v 0.66145 0.66146 h 0.49677 0.49677 z m 216.568999,3.5259 0.62804,-0.59532 0.005,-11.10753 0.005,-11.10754 -2.63728,2.62738 -2.63727,2.62738 -0.19363,-0.19362 -0.19362,-0.19363 2.76003,-2.76944 2.76001,-2.76945 -2.76003,-2.76945 -2.76002,-2.76945 0.19362,-0.19362 0.19362,-0.19363 2.63728,2.62738 2.63727,2.62738 -0.005,-10.18149 -0.005,-10.1815 -0.62803,-0.59531 -0.62803,-0.59531 -11.60438,0.005 -11.60437,0.005 -0.60588,0.63901 -0.60587,0.63901 0.0767,2.33051 0.0767,2.33052 1.38906,0.49863 1.38906,0.49863 v 0.17905 0.17905 l -2.64621,1.03097 -2.64621,1.03097 0.19882,0.1713 0.19881,0.1713 2.4474,0.86694 2.44739,0.86694 v 0.17975 0.17975 l -2.64621,1.03097 -2.64621,1.03097 0.19882,0.1713 0.19881,0.1713 2.4474,0.86694 2.44739,0.86694 v 0.17975 0.17974 l -2.64621,1.03098 -2.64621,1.03097 0.19882,0.18008 0.19881,0.18008 0.99219,0.31707 0.99219,0.31706 v 4.08052 4.08053 h 0.2766 0.27662 l 0.64943,0.64943 0.64943,0.64943 v 0.7469 0.74691 l -0.41188,0.58804 -0.41188,0.58804 0.41188,0.58803 0.41188,0.58804 v 0.70557 0.70557 l -0.48665,0.60099 -0.48666,0.60099 0.48666,0.48665 0.48666,0.48664 v 0.75807 0.75807 l -0.50099,0.63691 -0.501,0.63692 0.501,0.6187 0.50099,0.61871 v 0.6105 0.61051 l -0.16435,0.4283 -0.16436,0.4283 -0.76168,0.39389 -0.76169,0.39388 v 1.5807 1.58071 h 12.19968 12.19969 z m -20.2649,-8.13594 v -0.26458 h 1.98437 1.98438 v -0.79375 -0.79375 h 0.26458 0.26458 v 1.05833 1.05833 h -2.24896 -2.24895 z m 0.59531,-2.56798 -0.59531,-0.11466 v -1.17222 -1.17222 h 0.26458 0.26458 v 0.89518 0.89518 l 0.52917,0.13838 0.52917,0.13838 v -0.61505 -0.61505 l 0.16059,-0.41851 0.1606,-0.41851 h 0.97711 0.97711 l 0.3175,0.3175 0.3175,0.3175 v 0.70843 0.70844 l -0.40327,0.33468 -0.40327,0.33469 -0.14423,-0.14423 -0.14423,-0.14423 0.32468,-0.51989 0.32467,-0.51988 -0.17254,-0.44964 -0.17255,-0.44965 -0.72911,0.0839 -0.72911,0.0839 0.0582,0.99219 0.0582,0.99219 -0.5874,-0.036 -0.5874,-0.036 z m 15.16629,-11.87071 -0.41577,-0.41578 v -0.49136 -0.49137 l 0.41577,-0.41578 0.41578,-0.41577 h 0.49136 0.49137 l 0.41578,0.41577 0.41577,0.41578 v 0.49137 0.49136 l -0.41577,0.41578 -0.41578,0.41577 h -0.49137 -0.49136 z m -20.25952,-0.32289 v -0.20949 l 1.19062,-1.16851 1.19063,-1.16851 v -0.32396 -0.32396 l -0.50667,-0.16081 -0.50666,-0.16081 -0.68396,0.17167 -0.68396,0.17166 v -0.26496 -0.26496 l 0.41851,-0.1606 0.41852,-0.1606 h 0.62092 0.62092 l 0.41577,0.41578 0.41578,0.41577 v 0.37722 0.37721 l -0.95683,1.05909 -0.95683,1.0591 h 0.95683 0.95683 v 0.26458 0.26459 h -1.45521 -1.45521 z m 3.70417,-0.0551 v -0.26458 h 0.52916 0.52917 v -1.35531 -1.35532 l -0.40327,0.33469 -0.40327,0.33468 -0.16737,-0.16737 -0.16736,-0.16737 0.71655,-0.66408 0.71656,-0.66409 h 0.11866 0.11867 v 1.85209 1.85208 h 0.52916 0.52917 v 0.26458 0.26459 h -1.32292 -1.32291 z m 0.79375,-7.88458 v -1.00542 l 0.3175,-0.3175 0.3175,-0.3175 h 0.84481 0.84482 l 0.15585,0.40613 0.15584,0.40613 0.78536,-0.40613 0.78537,-0.40613 h 0.14543 0.14543 v 0.22292 0.22292 l -0.92604,0.49871 -0.92604,0.4987 v 0.33671 0.33671 h 0.92604 0.92604 v 0.26458 0.26459 h -2.24896 -2.24895 z m 2.06809,-0.25135 -0.0837,-0.72761 h -0.66146 -0.66146 l -0.0837,0.72761 -0.0837,0.7276 h 0.8289 0.8289 z m -1.34049,-3.06217 -0.7276,-0.59573 v -0.1885 -0.1885 h 1.98437 1.98438 v -0.52917 -0.52916 h 0.26458 0.26458 v 1.32291 1.32292 h -0.26458 -0.26458 v -0.52917 -0.52916 h -1.37584 -1.37583 l 0.3175,0.3175 0.3175,0.3175 v 0.21166 0.21167 l -0.19844,-0.01 -0.19844,-0.01 -0.7276,-0.59574 z m 70.70989,23.04317 v -11.70285 l -2.63729,2.62738 -2.63726,2.62738 -0.20701,-0.20904 -0.20698,-0.20903 2.8435,-2.75404 2.84353,-2.75403 -2.84353,-2.75404 -2.8435,-2.75404 0.20698,-0.20903 0.20701,-0.20904 2.63726,2.62738 2.63729,2.62738 v -10.77681 -10.7768 h -2.77812 -2.77813 v -0.51417 -0.51416 l -0.58803,-0.41188 -0.58804,-0.41188 h -0.51562 -0.51559 l -0.48387,0.43789 -0.48385,0.43788 v 0.48816 0.48816 h -0.26458 -0.26458 v -0.39688 -0.39687 l -0.52917,-0.52917 -0.52917,-0.52917 h -0.57449 -0.57446 l -0.48387,0.43789 -0.48384,0.43788 v 0.48816 0.48816 h -0.25953 -0.25956 l -0.16777,-0.66844 -0.16778,-0.66844 -0.48133,-0.2576 -0.48133,-0.25761 h -0.45958 -0.45958 l -0.48386,0.43789 -0.48385,0.43788 v 0.48816 0.48816 h -0.22211 -0.22212 l -0.30138,-0.66146 -0.30138,-0.66146 h -1.20197 -1.20197 l -0.29841,0.65494 -0.29841,0.65494 -4.12481,0.0727 -4.12482,0.0727 -0.49904,1.38906 -0.49903,1.38906 h -0.199 -0.19899 l -0.86695,-2.44739 -0.86694,-2.4474 -0.18648,-0.214 -0.18647,-0.21399 -1.0079,2.66139 -1.00789,2.66139 h -0.18764 -0.18765 l -0.86694,-2.44739 -0.86694,-2.4474 -0.18648,-0.214 -0.18648,-0.21399 -1.00789,2.66139 -1.00789,2.66139 h -0.1756 -0.1756 l -1.00789,-2.66139 -1.00789,-2.66139 -0.19527,0.21399 -0.19526,0.214 -0.31707,0.99219 -0.31706,0.99219 h -3.44792 -3.44792 l -0.62803,0.59531 -0.62803,0.59531 -0.005,10.1815 -0.005,10.18149 2.63727,-2.62738 2.63728,-2.62738 0.19362,0.19363 0.19362,0.19362 -2.76002,2.76945 -2.76002,2.76945 2.76003,2.76945 2.76002,2.76944 -0.19362,0.19363 -0.19362,0.19362 -2.63728,-2.62738 -2.63727,-2.62738 v 11.07024 11.07025 l 0.59531,0.62803 0.59531,0.62804 24.40782,0.005 24.40781,0.005 v -11.70285 z m -29.10416,10.6996 v -0.20949 l 1.19062,-1.16851 1.19063,-1.16851 v -0.32396 -0.32395 l -0.52917,-0.16796 -0.52917,-0.16795 -0.52916,0.16795 -0.52917,0.16796 v -0.25411 -0.25411 l 0.41852,-0.16059 0.41851,-0.1606 h 0.48863 0.48863 l 0.41577,0.41577 0.41577,0.41577 v 0.37722 0.37721 l -0.95682,1.0591 -0.95683,1.05909 h 0.95683 0.95682 v 0.26459 0.26458 h -1.4552 -1.45521 z m 5.55625,-0.31967 v -0.52916 h -0.92604 -0.92605 v -0.18109 -0.18107 l 0.43175,-1.53872 0.43173,-1.53871 h 0.22972 0.22972 v 0.22254 0.22253 l -0.37098,1.23267 -0.37098,1.23268 h 0.63556 0.63557 v -0.66146 -0.66146 h 0.26458 0.26458 v 0.63941 0.63941 l 0.33073,0.15434 0.33073,0.15434 -0.33073,0.15434 -0.33073,0.15434 v 0.50712 0.50712 h -0.26458 -0.26458 z m -18.25625,-23.01874 v -2.11666 h 0.77485 0.77485 l 0.43491,0.43491 0.43491,0.43491 -0.1524,0.6072 -0.1524,0.60721 0.26556,0.16412 0.26555,0.16413 v 0.49465 0.49465 l -0.41577,0.41578 -0.41578,0.41577 h -0.90714 -0.90714 z m 1.82449,1.34557 0.36928,-0.23383 -0.16254,-0.42358 -0.16254,-0.42357 h -0.66976 -0.66977 v 0.66145 0.66146 l 0.46303,-0.004 0.46302,-0.004 0.36928,-0.23383 z m -0.13215,-2.0309 0.16146,-0.42075 -0.14877,-0.24071 -0.14876,-0.24071 h -0.51355 -0.51356 v 0.66146 0.66146 h 0.50086 0.50086 z m 2.54099,2.66174 v -0.14027 l 0.66146,-1.57155 0.66146,-1.57156 V 149.49 149.34973 h -1.19063 -1.19062 v -0.26458 -0.26458 h 1.5875 1.5875 v 0.13833 0.13833 l -0.83044,1.97833 -0.83043,1.97834 h -0.2279 -0.2279 z m -9.10922,-0.80468 -0.41578,-0.41578 v -0.49136 -0.49137 l 0.41578,-0.41578 0.41577,-0.41577 h 0.49137 0.49137 l 0.41577,0.41577 0.41577,0.41578 v 0.49137 0.49136 l -0.41577,0.41578 -0.41577,0.41577 h -0.49137 -0.49137 z m 41.53957,0 -0.41577,-0.41578 v -0.49136 -0.49137 l 0.41577,-0.41578 0.41579,-0.41577 h 0.49136 0.49136 l 0.41579,0.41577 0.41577,0.41578 v 0.49137 0.49136 l -0.41577,0.41578 -0.41579,0.41577 h -0.49136 -0.49136 z m -258.863129,-21.55292 1.40466,-1.59578 v -0.24803 -0.24802 l -1.40466,-1.59578 -1.40466,-1.59578 h -3.2917 -3.29169 v 3.43958 3.43959 h 3.29169 3.2917 z m -5.60807,0.0744 -0.001,-0.19843 0.69817,-1.91823 0.69817,-1.91823 h 0.19484 0.19483 l 0.69577,1.95986 0.69576,1.95987 v 0.1568 0.1568 h -0.24675 -0.24675 l -0.16796,-0.52917 -0.16795,-0.52916 h -0.75809 -0.75809 l -0.16795,0.52916 -0.16795,0.52917 h -0.24675 -0.24676 l -0.001,-0.19844 z m 1.97061,-1.98437 -0.18299,-0.59531 -0.0994,-0.11025 -0.0994,-0.11024 -0.0994,0.11024 -0.0994,0.11025 -0.18299,0.59531 -0.18299,0.59531 h 0.56482 0.56483 z M 260.34258,83.733069 v -3.43958 h -3.68855 -3.68858 l -1.40465,1.59578 -1.40467,1.59578 v 0.24802 0.24803 l 1.40467,1.59578 1.40465,1.59578 h 3.68858 3.68855 z m -3.30729,2.38125 -0.16351,-0.26458 h -0.76314 -0.76313 l -0.41188,-0.58804 -0.41188,-0.58804 v -0.94059 -0.94059 l 0.41188,-0.58803 0.41188,-0.58804 0.58031,0.008 0.58031,0.008 0.48265,0.36584 0.48265,0.36584 -0.0656,1.60822 -0.0657,1.60822 0.17831,0.17829 0.17827,0.17828 v 0.22049 0.22049 h -0.24897 -0.24897 l -0.16352,-0.26459 z m -0.13229,-2.36342 v -1.30508 l -0.57515,-0.18255 -0.57515,-0.18255 -0.35089,0.47987 -0.35089,0.47987 v 0.74318 0.74318 h 0.64585 0.64584 l 0.16352,0.26459 0.16351,0.26458 h 0.11668 0.11668 z m -167.613534,-8.71398 1.058333,-0.48244 0.839324,-0.70858 0.839325,-0.70858 0.68203,-1.36865 0.682029,-1.36866 -0.0058,-1.73399 -0.0058,-1.73399 -0.482447,-1.05833 -0.482446,-1.05833 -0.708578,-0.83933 -0.708578,-0.83932 -1.368656,-0.68203 -1.368636,-0.68203 h -1.748184 -1.748184 l -1.368658,0.68203 -1.368655,0.68203 -0.708578,0.83932 -0.708578,0.83933 -0.482447,1.05833 -0.482446,1.05833 v 1.71979 1.7198 l 0.482446,1.05833 0.482447,1.05833 0.708578,0.83933 0.708578,0.83932 1.368655,0.68203 1.368658,0.68203 1.733986,-0.006 1.733989,-0.006 1.058334,-0.48245 z m -3.964009,-3.46982 -1.028692,-1.05348 0.184007,-0.184 0.184005,-0.18401 0.79099,0.75782 0.79099,0.75781 v -3.48908 -3.48909 h 0.264584 0.264583 v 3.48909 3.48908 l 0.79099,-0.75781 0.790991,-0.75782 0.184004,0.18401 0.184007,0.184 -1.028692,1.05348 -1.028694,1.05347 h -0.157189 -0.157189 z m 2.704362,-23.48375 -1.518478,-1.51848 -1.518478,1.51848 -1.518478,1.51847 h 3.036956 3.036956 z m 153.987491,-10.84792 -1.51847,-1.518478 v 3.036956 3.036957 l 1.51847,-1.518478 1.51849,-1.518479 z m -37.95509,167.888621 -0.2757,-0.34411 -0.17883,-0.58375 -0.17884,-0.58374 0.17185,-0.91603 0.17185,-0.91603 0.7636,-0.31629 0.7636,-0.3163 0.40163,0.15412 0.40162,0.15412 v 0.29072 0.29072 l -0.49189,-0.15613 -0.49189,-0.15612 -0.41798,0.1604 -0.41798,0.16039 -0.15939,0.72568 -0.15939,0.72568 0.26897,0.70743 0.26896,0.70742 h 0.668 0.66801 v -0.52917 -0.52916 h -0.39687 -0.39688 v -0.26459 -0.26458 h 0.67743 0.67743 l -0.0821,0.99219 -0.0821,0.99219 -0.94869,0.0795 -0.94868,0.0795 z m 3.3637,-1.79932 v -2.11667 h 0.22253 0.22254 l 0.76965,1.38907 0.76966,1.38906 0.08,-1.38906 0.08,-1.38907 h 0.25075 0.25076 v 2.11667 2.11667 h -0.22253 -0.22253 l -0.76966,-1.38906 -0.76965,-1.38907 -0.08,1.38907 -0.08,1.38906 h -0.25076 -0.25076 z m 3.96875,0 v -2.11667 h 0.66146 0.66146 l 0.52243,0.52244 0.52244,0.52244 0.17771,0.70806 0.17772,0.70807 -0.47723,0.88616 -0.47723,0.88617 h -0.88438 -0.88438 z m 1.86712,0.75744 0.34383,-0.83006 -0.38697,-0.68942 -0.38696,-0.68942 -0.45393,-0.0874 -0.45392,-0.0874 v 1.6069 1.6069 h 0.49706 0.49707 z m -11.39212,-17.42619 v -2.11666 h 0.26458 0.26459 v 1.85208 1.85208 h 0.79375 0.79375 v 0.26458 0.26459 h -1.05834 -1.05833 z m 2.91042,0 v -2.11666 h 1.16231 1.16232 l 0.1606,0.41851 0.1606,0.41851 v 0.35634 0.35634 l -0.41577,0.41577 -0.41578,0.41578 h -0.64256 -0.64256 v 0.92604 0.92604 h -0.26458 -0.26458 z m 1.98437,-0.92604 v -0.52917 l -0.7276,-0.0837 -0.72761,-0.0837 v 0.69661 0.69661 l 0.72761,-0.0837 0.7276,-0.0837 z m 1.78594,2.86748 -0.33073,-0.13345 v -0.37483 -0.37482 h 0.26458 0.26459 v 0.26458 0.26458 h 0.60854 0.60854 l 0.3175,-0.3175 0.3175,-0.3175 v -0.47121 -0.47121 l -0.66146,-0.16601 -0.66146,-0.16602 v -0.14892 -0.14892 l 0.43789,-0.48385 0.43788,-0.48386 h -0.96705 -0.96705 v -0.26458 -0.26458 h 1.45521 1.45521 v 0.1776 0.1776 l -0.42738,0.47225 -0.42738,0.47225 0.42738,0.42738 0.42738,0.42738 v 0.60155 0.60155 l -0.48386,0.43789 -0.48385,0.43788 -0.64063,-0.0209 -0.64062,-0.0209 -0.33073,-0.13346 z m -134.067591,-10.22287 -0.484267,-0.89923 0.177712,-0.70807 0.177713,-0.70806 0.538708,-0.53871 0.538707,-0.53871 0.558316,0.0824 0.558318,0.0824 0.10427,0.31677 0.104267,0.31678 -0.726501,-0.0522 -0.726501,-0.0522 -0.396369,0.6913 -0.39637,0.69129 0.343824,0.83006 0.34382,0.83006 h 0.629359 0.629359 v -0.52916 -0.52917 h -0.396875 -0.396875 v -0.26458 -0.26459 h 0.677432 0.677428 l -0.08212,0.99219 -0.08212,0.99219 -0.943485,0.0792 -0.943486,0.0792 z m 3.561865,-1.24357 v -2.11666 h 0.222533 0.222534 l 0.769654,1.38906 0.769654,1.38906 0.07997,-1.38906 0.07997,-1.38906 h 0.250756 0.250757 v 2.11666 2.11667 h -0.222533 -0.222534 l -0.769654,-1.38906 -0.769654,-1.38907 -0.07997,1.38907 -0.07997,1.38906 h -0.250756 -0.250757 z m 3.96875,0.016 v -2.13264 h 0.516718 0.516716 l 0.656486,0.29912 0.656485,0.29911 0.170672,1.0102 0.170672,1.0102 -0.353566,0.74121 -0.353568,0.7412 -0.990306,0.0821 -0.990309,0.0821 z m 1.873306,0.85425 0.272708,-0.71727 -0.167944,-0.66914 -0.167941,-0.66914 -0.309751,-0.19703 -0.309753,-0.19704 -0.330729,-0.004 -0.330729,-0.004 v 1.5875 1.5875 h 0.535715 0.535715 l 0.272709,-0.71728 z m 43.16951,0.72087 -0.32823,-0.52558 v -1.06192 -1.06192 l 0.52916,-0.52917 0.52917,-0.52917 h 0.37524 0.37523 l 0.41852,0.1606 0.41851,0.1606 v 0.24132 0.24131 l -0.66489,-0.16689 -0.6649,-0.16688 -0.39344,0.32653 -0.39344,0.32652 v 0.87201 0.872 l 0.1606,0.41851 0.1606,0.41852 h 0.63315 0.63315 v -0.52917 -0.52916 h -0.26458 -0.26458 v -0.26459 -0.26458 h 0.52916 0.52917 v 1.05833 1.05834 h -0.99469 -0.99469 z m 3.37593,-1.5911 v -2.11666 h 0.22254 0.22253 l 0.76965,1.38906 0.76966,1.38906 0.08,-1.38906 0.08,-1.38906 h 0.25076 0.25076 v 2.11666 2.11667 h -0.22254 -0.22253 l -0.76965,-1.38906 -0.76966,-1.38907 -0.08,1.38907 -0.08,1.38906 h -0.25076 -0.25076 z m 3.96875,0 v -2.11666 h 0.79375 0.79375 l 0.52917,0.52916 0.52917,0.52917 -0.008,1.12448 -0.008,1.12448 -0.35149,0.46302 -0.35148,0.46302 h -0.96302 -0.96302 V 177.131 Z m 1.95607,1.16899 0.1606,-0.41852 v -0.85148 -0.85149 l -0.3175,-0.3175 -0.3175,-0.3175 h -0.47625 -0.47625 v 1.5875 1.5875 h 0.63315 0.63315 z m -106.844456,-1.0556 -0.415774,-0.41577 v -0.49137 -0.49137 l 0.415774,-0.41577 0.415775,-0.41577 h 0.491368 0.491368 l 0.415774,0.41577 0.415774,0.41577 v 0.49137 0.49137 l -0.415774,0.41577 -0.415774,0.41578 h -0.491368 -0.491368 z m -15.497023,-6.67288 v -0.2095 l 1.19062,-1.16851 1.19063,-1.16851 v -0.32395 -0.32396 l -0.50667,-0.16081 -0.50666,-0.16081 -0.68396,0.17166 -0.68396,0.17167 v -0.26496 -0.26496 l 0.41851,-0.1606 0.41852,-0.1606 h 0.62092 0.62092 l 0.41577,0.41577 0.41578,0.41578 v 0.37721 0.37722 l -0.95683,1.05909 -0.95683,1.0591 h 0.95683 0.95683 v 0.26458 0.26458 h -1.45521 -1.45521 z m 15.497023,-2.32295 -0.415774,-0.41577 v -0.49137 -0.49137 l 0.415774,-0.41577 0.415775,-0.41578 h 0.491368 0.491368 l 0.415774,0.41578 0.415774,0.41577 v 0.49137 0.49137 l -0.415774,0.41577 -0.415774,0.41578 h -0.491368 -0.491368 z m -35.6053527,-6.06652 v -2.24895 h 0.26458 0.26458 v 1.98437 1.98438 h 0.92604 0.92605 v 0.26458 0.26458 h -1.19063 -1.19062 z m 2.64583,2.05961 v -0.18935 l 1.2178,-1.23639 1.21781,-1.2364 -0.1773,-0.55863 -0.1773,-0.55863 h -0.45842 -0.45842 l -0.31309,0.31309 -0.3131,0.31309 -0.1744,-0.1744 -0.1744,-0.17441 0.33468,-0.40326 0.33468,-0.40327 h 0.61017 0.61016 l 0.41576997,0.41577 0.41578,0.41577 v 0.50951 0.50951 l -0.95682997,1.05909 -0.95683,1.0591 h 0.95683 0.95682997 v 0.26458 0.26458 h -1.45520997 -1.45521 z m 75.9354137,-2.05961 v -2.24895 h 0.264583 0.264583 v 1.98437 1.98438 h 0.926042 0.926041 v 0.26458 0.26458 H 73.67905 72.488425 Z m 2.910416,0 v -2.24895 h 1.005417 1.005416 l 0.3175,0.3175 0.3175,0.3175 v 0.84481 0.84482 l -0.418515,0.1606 -0.418512,0.1606 h -0.639821 -0.639818 v 0.92604 0.92604 h -0.264584 -0.264583 z m 1.984375,-0.92604 v -0.66146 l -0.727604,-0.0837 -0.727604,-0.0837 v 0.82889 0.8289 l 0.727604,-0.0837 0.727604,-0.0837 z m 1.719792,2.91042 v -0.26458 h 0.529166 0.529167 v -1.35532 -1.35531 l -0.40327,0.33468 -0.403267,0.33469 -0.149196,-0.1492 -0.149196,-0.1492 0.602221,-0.81455 0.602223,-0.81454 h 0.214826 0.214826 v 1.98437 1.98438 h 0.529166 0.529167 v 0.26458 0.26458 h -1.322917 -1.322916 z m 45.772912,-1.98438 v -2.24895 h 0.26459 0.26458 v 1.98437 1.98438 h 0.92604 0.92604 v 0.26458 0.26458 h -1.19062 -1.19063 z m 3.175,0 v -2.24895 h 0.88504 0.88503 l 0.43788,0.48385 0.43789,0.48385 v 0.42329 0.42329 l -0.41578,0.41578 -0.41577,0.41577 h -0.64256 -0.64256 v 0.92604 0.92604 h -0.26458 -0.26459 z m 1.85209,-0.39339 0.39687,-0.253 -0.2916,-0.47055 -0.29161,-0.47056 -0.56829,-0.0845 -0.56829,-0.0846 v 0.81215 0.81215 l 0.46302,-0.004 0.46302,-0.004 0.39688,-0.253 z m 1.32291,2.453 v -0.18935 l 1.21781,-1.23639 1.2178,-1.2364 -0.1773,-0.55863 -0.1773,-0.55863 h -0.45842 -0.45842 l -0.31309,0.31309 -0.31309,0.31309 -0.1744,-0.1744 -0.17441,-0.17441 0.33468,-0.40326 0.33469,-0.40327 h 0.61016 0.61016 l 0.41578,0.41577 0.41577,0.41577 v 0.50951 0.50951 l -0.95683,1.05909 -0.95683,1.0591 h 0.95683 0.95683 v 0.26458 0.26458 h -1.45521 -1.45521 z m -103.183442,-1.72888 0.004,-0.85989 0.194384,-0.29067 0.194387,-0.29067 1.502375,-0.17244 1.502373,-0.17243 0.415856,0.41586 0.415854,0.41585 v 0.90715 0.90714 H 30.15504 28.038374 l 0.004,-0.8599 z m 1.800288,-0.26458 -0.08455,-0.59531 H 29.22905 28.699883 l -0.08455,0.59531 -0.08455,0.59531 h 0.698262 0.698262 z m 1.851255,-0.13229 -0.08372,-0.72761 h -0.529167 -0.529167 l -0.08372,0.72761 -0.08372,0.7276 h 0.696605 0.696606 z m -3.494995,-2.60133 -0.160599,-0.41851 v -0.62092 -0.62092 l 0.415774,-0.41578 0.415774,-0.41577 h 0.377214 0.377214 l 1.059095,0.95683 1.059095,0.95683 v -0.95683 -0.95683 h 0.264584 0.264583 v 1.45521 1.45521 h -0.209494 -0.209495 l -1.168511,-1.19063 -1.168511,-1.19062 h -0.323956 -0.323956 l -0.160811,0.50666 -0.160808,0.50667 0.171661,0.68396 0.171665,0.68396 h -0.264959 -0.264959 z m 227.910224,-8.57732 v -2.11666 l 0.8599,0.004 0.85989,0.004 0.29067,0.19439 0.29068,0.19438 0.17242,1.50238 0.17243,1.50237 -0.41584,0.41586 -0.41587,0.41585 h -0.90713 -0.90715 v -2.11667 z m 1.98438,0.92604 v -0.52916 l -0.72761,-0.0837 -0.7276,-0.0837 v 0.6966 0.69661 l 0.7276,-0.0837 0.72761,-0.0837 z m -0.26459,-1.85208 v -0.52917 l -0.59531,-0.0845 -0.59531,-0.0846 v 0.69826 0.69826 l 0.59531,-0.0845 0.59531,-0.0845 z m 2.24896,2.77813 v -0.26459 h 0.49678 0.49676 l 0.32938,-0.39687 0.32938,-0.39688 h -0.65286 -0.65283 l -0.43789,-0.48385 -0.43789,-0.48386 v -0.55558 -0.55558 l 0.41577,-0.41577 0.41579,-0.41577 h 0.62365 0.62365 l 0.41579,0.41577 0.41577,0.41577 v 1.05146 1.05147 l -0.64942,0.64943 -0.64944,0.64943 h -0.54118 -0.54121 z m 1.53458,-1.905 0.3175,-0.3175 v -0.44795 -0.44794 l -0.43415,-0.1666 -0.43415,-0.1666 -0.49189,0.15612 -0.49189,0.15613 v 0.45842 0.45842 l 0.3175,0.3175 0.3175,0.3175 h 0.29104 0.29104 z m -10.37923,1.22464 -0.41577,-0.41578 v -0.49136 -0.49137 l 0.41577,-0.41578 0.41579,-0.41577 h 0.49136 0.49136 l 0.41579,0.41577 0.41577,0.41578 v 0.49137 0.49136 l -0.41577,0.41578 -0.41579,0.41577 h -0.49136 -0.49136 z m -182.537286,-2.14187 -0.176389,-0.17638 v -0.20386 -0.20385 l 0.892405,0.14482 0.892405,0.14482 0.190836,-0.30878 0.190839,-0.30879 -0.162243,-0.64642 -0.16224,-0.64642 h -0.471209 -0.47121 l -0.313089,0.31309 -0.313092,0.31309 -0.162971,-0.16297 -0.162967,-0.16297 0.181816,-1.07616 0.181817,-1.07616 h 1.035076 1.035077 v 0.26458 0.26459 h -0.79375 -0.79375 v 0.3638 0.3638 l 0.772469,0.15449 0.77247,0.1545 0.173289,0.54598 0.173288,0.54598 -0.173032,0.78781 -0.173029,0.7878 h -0.993214 -0.993214 z m 52.492996,-0.32044 -0.28189,-0.52671 v -0.82854 -0.82854 l 0.3042,-0.57792 0.30419,-0.57792 0.29112,-0.19438 0.29112,-0.19439 0.59531,-0.004 0.59531,-0.004 v 0.23151 0.23151 l -0.79375,0.15875 -0.79375,0.15875 v 0.2712 0.2712 h 0.62907 0.62906 l 0.31405,0.37841 0.31405,0.37841 -0.0832,1.01065 -0.0832,1.01065 -0.97488,0.0811 -0.97488,0.0811 z m 1.7854,-0.89223 -0.0829,-0.8599 h -0.50033 -0.50033 l -0.26938,0.42706 -0.26938,0.42706 0.16609,0.43284 0.1661,0.43284 h 0.68652 0.68653 z m -46.781869,-9.062 v -2.24896 h 0.893646 0.893644 l 0.260918,0.33073 0.260919,0.33073 0.168434,1.50238 0.168434,1.50237 -0.415854,0.41586 -0.415856,0.41585 h -0.907142 -0.907143 z m 1.947765,1.32292 0.152294,-0.39688 -0.152294,-0.39687 -0.152297,-0.39688 h -0.633151 -0.63315 v 0.79375 0.79375 h 0.63315 0.633151 z m -0.143426,-2.31511 -0.08455,-0.59531 -0.595313,-0.0845 -0.595312,-0.0845 v 0.67986 0.67986 h 0.67986 0.67986 z m 3.487328,2.57969 v -0.66146 h -0.926042 -0.926042 v -0.10875 -0.10874 l 0.565886,-1.47876 0.565888,-1.47875 h 0.227862 0.227864 v 0.14079 0.14079 l -0.396875,0.94986 -0.396875,0.94985 v 0.23227 0.23228 h 0.529167 0.529167 v -0.66146 -0.66146 h 0.264583 0.264583 v 0.63941 0.63941 l 0.330729,0.15434 0.33073,0.15434 -0.33073,0.15434 -0.330729,0.15434 v 0.63941 0.63941 h -0.264583 -0.264583 z m 47.095832,-1.5875 v -2.24896 h 0.88503 0.88504 l 0.4011,0.46302 0.4011,0.46303 0.023,1.44464 0.023,1.44464 -0.28325,0.3413 -0.28324,0.34129 H 129.60593 128.58 v -2.24896 z m 1.98437,0.92604 v -0.66146 l -0.7276,-0.0837 -0.7276,-0.0837 v 0.82889 0.8289 l 0.7276,-0.0837 0.7276,-0.0837 z m 0.007,-1.59909 0.17069,-0.27617 -0.31976,-0.38528 -0.31976,-0.38529 h -0.49676 -0.49677 v 0.66146 0.66146 h 0.64584 0.64584 z m 2.03013,2.60451 -0.3175,-0.3175 v -1.3524 -1.3524 l 0.53947,-0.57906 0.53947,-0.57906 h 0.51886 0.51886 v 0.26459 0.26458 h -0.46552 -0.46552 l -0.33047,0.52917 -0.33047,0.52916 h 0.6448 0.6448 l 0.41578,0.41578 0.41577,0.41577 v 0.60155 0.60155 l -0.48385,0.43789 -0.48386,0.43788 h -0.52156 -0.52156 z m 1.48166,-0.52917 0.3175,-0.3175 v -0.45842 -0.45842 l -0.5268,-0.1672 -0.52679,-0.1672 -0.26696,0.16499 -0.26695,0.16498 v 0.60175 0.60175 l 0.17639,0.17638 0.17639,0.17639 h 0.29986 0.29986 z m -71.762554,-0.36285 -0.415774,-0.41578 v -0.49137 -0.49136 l 0.415774,-0.41578 0.415774,-0.41577 h 0.491368 0.491368 l 0.415775,0.41577 0.415774,0.41578 v 0.49136 0.49137 l -0.415774,0.41578 -0.415775,0.41577 H 63.228008 62.73664 Z m 8.995833,0 -0.415774,-0.41578 v -0.49137 -0.49136 l 0.415774,-0.41578 0.415774,-0.41577 h 0.491368 0.491368 l 0.415775,0.41577 0.415774,0.41578 v 0.49136 0.49137 l -0.415774,0.41578 -0.415775,0.41577 h -0.491368 -0.491368 z m 43.656251,0 -0.41578,-0.41578 v -0.49137 -0.49136 l 0.41578,-0.41578 0.41577,-0.41577 h 0.49137 0.49137 l 0.41577,0.41577 0.41578,0.41578 v 0.49136 0.49137 l -0.41578,0.41578 -0.41577,0.41577 h -0.4912 -0.49137 z m 8.99583,0 -0.41577,-0.41578 v -0.49137 -0.49136 l 0.41577,-0.41578 0.41578,-0.41577 h 0.49136 0.49137 l 0.41578,0.41577 0.41577,0.41578 v 0.49136 0.49137 l -0.41577,0.41578 -0.41578,0.41577 h -0.49137 -0.49136 z m -94.456246,-6.61459 -0.415774,-0.41577 v -0.49137 -0.49137 l 0.415774,-0.41577 0.415775,-0.41578 h 0.491368 0.491368 l 0.415774,0.41578 0.415774,0.41577 v 0.49137 0.49137 l -0.415774,0.41577 -0.415774,0.41578 h -0.491198 -0.491368 z m -15.496853,-6.72797 v -0.26459 h 0.66146 0.66146 v -1.33222 -1.33223 l -0.55183,0.29533 -0.55183,0.29533 -0.14016,-0.14016 -0.14016,-0.14016 0.75814,-0.66667 0.75813,-0.66666 0.19843,-0.008 0.19844,-0.008 v 1.85208 1.85208 h 0.52917 0.52917 v 0.26459 0.26458 h -1.45521 -1.45521 z m 108.743749,-0.39688 v -0.66146 h -0.92604 -0.92605 v -0.10875 -0.10874 l 0.56589,-1.47876 0.56589,-1.47874 h 0.22786 0.22786 v 0.14079 0.14079 l -0.39687,0.94985 -0.39688,0.94985 v 0.23227 0.23228 h 0.52917 0.52917 v -0.52917 -0.52917 h 0.26458 0.26458 v 0.50712 0.50712 l 0.33073,0.15434 0.33073,0.15434 -0.33073,0.15434 -0.33073,0.15434 v 0.63941 0.63941 h -0.26458 -0.26458 z m 52.84032,0.47793 -0.12601,-0.21334 -0.17956,-0.83772 -0.17956,-0.83771 0.1762,-0.93921 0.1762,-0.93919 0.50141,-0.15914 0.50141,-0.15915 0.51496,0.16344 0.51495,0.16344 0.15426,1.11116 0.15427,1.11116 -0.22364,0.79375 -0.22364,0.79375 -0.81762,0.0811 -0.81763,0.0811 z m 1.5528,-1.29193 0.17753,-0.94628 -0.29215,-0.64122 -0.29216,-0.64121 h -0.27593 -0.27593 l -0.29215,0.64121 -0.29216,0.64122 0.17753,0.94628 0.17752,0.94629 h 0.50519 0.50519 z m 46.67771,1.28611 v -0.18935 l 1.22675,-1.24548 1.22675,-1.24548 -0.17311,-0.45111 -0.1731,-0.45111 -0.92136,0.14951 -0.92135,0.14952 v -0.21964 -0.21964 l 0.41851,-0.1606 0.41852,-0.1606 h 0.48863 0.48862 l 0.41578,0.41577 0.41577,0.41578 v 0.37721 0.37721 l -0.95683,1.0591 -0.95682,1.05909 h 0.95682 0.95683 v 0.26459 0.26458 h -1.45521 -1.4552 z m 24.34166,0 v -0.18935 l 1.22674,-1.24548 1.22677,-1.24548 -0.17121,-0.44617 -0.17121,-0.44618 -0.92327,0.1732 -0.92324,0.17321 v -0.24827 -0.24826 l 0.41852,-0.1606 0.41852,-0.1606 h 0.48863 0.48861 l 0.41579,0.41577 0.41577,0.41578 v 0.37721 0.37721 l -0.95684,1.0591 -0.95681,1.05909 h 0.95681 0.95684 v 0.26459 0.26458 h -1.45521 -1.45521 z m 3.70417,-0.16785 v -0.3862 l 1.05833,0.14196 1.05833,0.14195 v -0.85336 -0.85336 l -0.52916,-0.13838 -0.52917,-0.13838 v -0.14674 -0.14675 l 0.43789,-0.48385 0.43788,-0.48386 h -0.96705 -0.96705 v -0.26457 -0.26459 h 1.32291 1.32292 v 0.23219 0.23218 l -0.40354,0.33492 -0.40357,0.33491 0.42108,0.46528 0.42106,0.46528 -0.0837,1.01814 -0.0837,1.01814 -1.25677,0.0806 -1.25677,0.0806 z M 29.512534,125.12146 29.09676,124.70569 v -0.49137 -0.49137 l 0.415774,-0.41577 0.415775,-0.41577 h 0.491368 0.491368 l 0.415774,0.41577 0.415774,0.41577 v 0.49137 0.49137 l -0.415774,0.41577 -0.415774,0.41577 h -0.491368 -0.491368 z m 179.500886,-4.09663 v -2.13117 l 1.25677,0.0806 1.25677,0.0806 0.0862,0.90429 0.0862,0.90429 -0.41695,0.23334 -0.41694,0.23333 0.39687,0.76747 0.39687,0.76746 v 0.14543 0.14543 h -0.22292 -0.22292 l -0.4987,-0.92604 -0.49871,-0.92604 h -0.33671 -0.3367 v 0.92604 0.92604 h -0.26459 -0.26458 z m 2.06892,-0.9777 0.0846,-0.59531 h -0.81215 -0.81215 v 0.67903 0.67904 l 0.7276,-0.0837 0.72761,-0.0837 z m 1.37066,2.91951 v -0.18935 l 1.22676,-1.24548 1.22675,-1.24548 -0.17311,-0.45111 -0.17311,-0.45111 -0.92135,0.14951 -0.92135,0.14952 v -0.38024 -0.38024 h 1.16231 1.16232 l 0.1606,0.41851 0.1606,0.41851 v 0.37448 0.37447 l -0.95683,1.0591 -0.95683,1.05909 h 0.95683 0.95683 v 0.26459 0.26458 h -1.45521 -1.45521 z m 19.57917,-1.92732 v -2.11666 h 0.26458 0.26459 v 1.85208 1.85208 h 0.79375 0.79375 v 0.26459 0.26458 h -1.05834 -1.05833 z m 3.43958,1.9764 v -0.14026 l 0.66146,-1.57155 0.66146,-1.57156 v -0.14026 -0.14027 h -1.05833 -1.05834 v -0.26458 -0.26458 h 1.45521 1.45521 v 0.13832 0.13833 l -0.83042,1.97834 -0.83045,1.97834 h -0.22789 -0.22791 z m -207.429272,-3.63004 0.004,-0.8599 0.194384,-0.29067 0.194387,-0.29067 1.502375,-0.17243 1.502373,-0.17243 0.415856,0.41585 0.415854,0.41586 v 0.90714 0.90714 H 30.15504 28.038374 l 0.004,-0.85989 z m 1.800288,-0.26459 -0.08455,-0.59531 H 29.22905 28.699883 l -0.08455,0.59531 -0.08455,0.59532 h 0.698262 0.698262 z m 1.851255,-0.13229 -0.08372,-0.7276 h -0.529167 -0.529167 l -0.08372,0.7276 -0.08372,0.72761 h 0.696605 0.696606 z m -37.7868397,-1.78594 v -2.24895 h 0.26458 0.26458 v 1.98437 1.98438 h 0.92604 0.92605 v 0.26458 0.26458 h -1.19063 -1.19062 z m 2.91041,1.98438 v -0.26458 h 0.52917 0.52917 v -1.35532 -1.35531 l -0.40327,0.33468 -0.40327,0.33468 -0.17279,-0.17278 -0.17279,-0.17279 0.57606,-0.53668 0.57606,-0.53668 v -0.25428 -0.25427 h 0.26458 0.26458 v 1.98437 1.98438 h 0.52917 0.52916997 v 0.26458 0.26458 h -1.32291997 -1.32292 z m 31.8161477,-3.07998 -0.595312,-0.64285 v -0.12296 -0.12296 h 1.852083 1.852083 v -0.52917 -0.52916 h 0.264584 0.264583 v 1.32291 1.32292 h -0.264583 -0.264584 v -0.52917 -0.52916 h -1.208455 -1.208455 l 0.167952,0.52916 0.167952,0.52917 -0.216267,-0.0279 -0.216268,-0.0279 z m 147.306771,-7.50335 v -0.26459 h 1.98437 1.98438 v -0.92604 -0.92604 h 0.26458 0.26458 v 1.19062 1.19063 h -2.24896 -2.24895 z m -99.747919,-2.64584 v -2.11666 l 0.859896,0.004 0.859896,0.004 0.290671,0.19438 0.290671,0.19439 0.172432,1.50237 0.172429,1.50238 -0.415854,0.41585 -0.415856,0.41585 h -0.907142 -0.907143 v -2.11657 z m 1.984375,0.92604 v -0.52916 l -0.727604,-0.0837 -0.727604,-0.0837 v 0.6966 0.69661 l 0.727604,-0.0837 0.727604,-0.0837 z m -0.264583,-1.85208 v -0.52917 l -0.595313,-0.0845 -0.595312,-0.0846 v 0.69827 0.69826 l 0.595312,-0.0845 0.595313,-0.0846 z m 2.05052,2.86748 -0.330729,-0.13345 v -0.26037 -0.26036 l 0.548262,0.17401 0.548262,0.17401 0.65954,-0.16553 0.65954,-0.16553 -0.08332,-0.55894 -0.08332,-0.55894 -0.529167,-0.29161 -0.529167,-0.2916 -0.108622,-0.0645 -0.108619,-0.0645 0.480356,-0.53079 0.480359,-0.53079 h -0.967049 -0.96705 v -0.26458 -0.26459 h 1.455209 1.455208 v 0.17761 0.1776 l -0.437883,0.48386 -0.437883,0.48385 0.437883,0.48385 0.437883,0.48386 v 0.55558 0.55558 l -0.415774,0.41577 -0.415774,0.41578 -0.708705,-0.0209 -0.708705,-0.0209 -0.33073,-0.13346 z m 48.617187,-1.94144 v -2.11666 l 0.8599,0.004 0.85989,0.004 0.37809,0.23927 0.37809,0.23927 0.0952,1.65297 0.0952,1.65296 -0.34096,0.21633 -0.34096,0.21632 -0.99219,0.004 -0.99219,0.004 z m 2.06892,0.8599 0.0845,-0.59531 h -0.81215 -0.81215 v 0.67903 0.67903 l 0.7276,-0.0837 0.7276,-0.0837 z m -0.2001,-1.54152 0.34611,-0.41704 -0.37986,-0.24037 -0.37986,-0.24036 -0.46302,-0.004 -0.46302,-0.004 v 0.66145 0.66146 h 0.49677 0.49677 z m 2.16608,2.62306 -0.33073,-0.13345 v -0.26037 -0.26036 l 0.52916,0.16795 0.52917,0.16795 0.52917,-0.16795 0.52916,-0.16795 v -0.45842 -0.45842 l -0.3175,-0.3175 -0.3175,-0.3175 h -0.47625 -0.47625 v 0.26458 0.26459 h -0.26458 -0.26458 v -1.19063 -1.19062 h 1.19062 1.19063 v 0.26458 0.26458 h -0.92605 -0.92604 v 0.39688 0.39687 h 0.62045 0.62045 l 0.43789,0.48386 0.43788,0.48385 v 0.55558 0.55558 l -0.41577,0.41577 -0.41578,0.41578 -0.57641,-0.0209 -0.57642,-0.0209 -0.33072,-0.13345 z m -70.294124,-0.76971 -0.415774,-0.41578 v -0.49136 -0.49137 l 0.415774,-0.41578 0.415774,-0.41577 h 0.491368 0.491368 l 0.415775,0.41577 0.415774,0.41578 v 0.49137 0.49136 l -0.415774,0.41578 -0.415775,0.41577 H 63.228008 62.73664 Z m 8.995833,0 -0.415774,-0.41578 v -0.49136 -0.49137 l 0.415774,-0.41578 0.415774,-0.41577 h 0.491368 0.491368 l 0.415775,0.41577 0.415774,0.41578 v 0.49137 0.49136 l -0.415774,0.41578 -0.415775,0.41577 h -0.491368 -0.491368 z m 43.656251,0 -0.41578,-0.41578 v -0.49136 -0.49137 l 0.41578,-0.41578 0.41577,-0.41577 h 0.49137 0.49137 l 0.41577,0.41577 0.41578,0.41578 v 0.49137 0.49136 l -0.41578,0.41578 -0.41577,0.41577 h -0.49137 -0.49137 z m 8.99583,0 -0.41577,-0.41578 v -0.49136 -0.49137 l 0.41577,-0.41578 0.41578,-0.41577 h 0.49136 0.49137 l 0.41578,0.41577 0.41577,0.41578 v 0.49137 0.49136 l -0.41577,0.41578 -0.41578,0.41577 h -0.49137 -0.49136 z m 53.2285,-1.64035 -1.25677,-0.41803 v -0.21813 -0.21813 h 0.23131 0.23132 l 1.0916,0.38513 1.0916,0.38514 v -0.64972 -0.64972 h -0.66146 -0.66146 v -0.26458 -0.26459 h 0.63941 0.63941 l 0.15434,-0.33073 0.15434,-0.33073 0.15434,0.33073 0.15434,0.33073 h 0.63941 0.63941 v 0.26459 0.26458 h -0.66146 -0.66145 v 0.92604 0.92604 l -0.33073,-0.0253 -0.33073,-0.0253 -1.25677,-0.41803 z M 98.41759,82.410159 v -0.26459 h 0.529167 0.529167 v -1.20845 -1.20846 l -0.529167,0.16795 -0.529167,0.16796 v -0.1381 -0.13809 l 0.673484,-0.67349 0.673486,-0.67348 h 0.120264 0.120266 v 1.85208 1.85208 h 0.52917 0.52916 v 0.26459 0.26458 H 99.740507 98.41759 Z m 3.97806,-0.24719 -0.27389,-0.51178 v -1.18912 -1.18912 l 0.41577,-0.41577 0.41578,-0.41577 h 0.35907 0.35908 l 0.41538,0.41537 0.41537,0.41538 0.16728,0.66648 0.16727,0.66648 -0.34152,1.03481 -0.34151,1.03481 h -0.7421 -0.74209 z m 1.56888,-0.52917 0.27389,-0.51177 v -0.62828 -0.62829 l -0.3377,-0.46184 -0.33771,-0.46185 -0.45604,0.175 -0.45605,0.175 v 1.25051 1.25052 l 0.17639,0.17638 0.17639,0.17639 h 0.34347 0.34347 z m 71.63505,0.85741 -0.12601,-0.21335 -0.17956,-0.83771 -0.17956,-0.83771 0.1762,-0.93921 0.1762,-0.9392 0.50141,-0.15914 0.50141,-0.15914 0.51496,0.16344 0.51495,0.16344 0.15426,1.11116 0.15427,1.11116 -0.22364,0.79375 -0.22364,0.79375 -0.81762,0.0811 -0.81763,0.0811 z m 1.5528,-1.29193 0.17753,-0.94628 -0.29215,-0.64122 -0.29216,-0.64121 h -0.27593 -0.27593 l -0.29215,0.64121 -0.29216,0.64122 0.17753,0.94628 0.17752,0.94629 h 0.50519 0.50519 z m -35.07854,-8.97558 v -2.24896 h 0.26458 0.26459 v 1.98438 1.98437 h 0.79375 0.79375 v 0.26458 0.26459 h -1.05834 -1.05833 z m 2.97656,2.07373 -0.33073,-0.13345 v -0.37483 -0.37483 h 0.26459 0.26458 v 0.26459 0.26458 h 0.60854 0.60854 l 0.3175,-0.3175 0.3175,-0.3175 v -0.47121 -0.47121 l -0.66146,-0.16601 -0.66145,-0.16602 v -0.2035 -0.20351 l 0.39687,-0.32937 0.39688,-0.32938 v -0.23219 -0.23218 h -0.92605 -0.92604 v -0.26459 -0.26458 h 1.45521 1.45521 v 0.23219 0.23218 l -0.39688,0.32938 -0.39687,0.32938 v 0.25108 0.25109 l 0.39687,0.39687 0.39688,0.39688 v 0.60155 0.60155 l -0.48385,0.43788 -0.48386,0.43789 -0.64062,-0.0209 -0.64063,-0.0209 -0.33073,-0.13346 z m 83.01302,-2.07373 v -2.24896 h 0.26458 0.26459 v 1.98438 1.98437 h 0.92604 0.92604 v 0.26458 0.26459 h -1.19063 -1.19062 z m 3.3483,1.7651 -0.43788,-0.48385 0.001,-0.90521 0.001,-0.90521 0.52429,-0.85989 0.52429,-0.8599 h 0.66535 0.66534 v 0.26458 0.26459 h -0.47625 -0.47625 l -0.3175,0.3175 -0.3175,0.3175 v 0.21166 0.21167 h 0.50753 0.50752 l 0.41852,0.1606 0.41852,0.1606 v 0.97711 0.97711 l -0.3175,0.3175 -0.3175,0.3175 h -0.56753 -0.56754 l -0.43788,-0.48386 z m 1.63505,-0.80613 0.0885,-0.62313 -0.26035,-0.26035 -0.26035,-0.26035 -0.55579,0.17641 -0.55581,0.1764 v 0.45842 0.45842 l 0.32523,0.32522 0.32522,0.32522 0.40238,-0.0766 0.40238,-0.0766 z m -134.364596,-8.4996 v -2.11666 h 0.264583 0.264583 v 2.11666 2.11667 h -0.264583 -0.264583 z m 1.587496,1.85209 v -0.26459 h 0.52917 0.52917 v -1.16585 -1.16586 l -0.52917,0.13838 -0.52917,0.13838 v -0.15112 -0.15112 l 0.67349,-0.67349 0.67348,-0.67348 h 0.12027 0.12026 v 1.85208 1.85208 h 0.52917 0.52917 v 0.26459 0.26458 h -1.32292 -1.32292 z m 121.97292,-5.55625 v -2.11667 h 0.90714 0.90714 l 0.43491,0.43491 0.43491,0.43491 -0.1524,0.60721 -0.1524,0.60721 0.26556,0.16412 0.26555,0.16412 v 0.49465 0.49466 l -0.41577,0.41577 -0.41578,0.41577 h -1.03943 -1.03943 z m 2.08907,1.34556 0.36928,-0.23382 -0.16254,-0.42358 -0.16254,-0.42358 h -0.80205 -0.80206 v 0.66146 0.66146 l 0.59531,-0.004 0.59532,-0.004 0.36928,-0.23383 z m -0.22026,-2.02719 0.34612,-0.41704 -0.37986,-0.24036 -0.37987,-0.24037 -0.46302,-0.004 -0.46302,-0.004 v 0.66146 0.66146 h 0.49677 0.49677 z m 2.26678,2.39817 -0.40012,-0.40012 0.0885,-1.48513 0.0885,-1.48514 0.35882,-0.22736 0.35881,-0.22736 h 0.39688 0.39687 l 0.35882,0.22736 0.35881,0.22736 0.0886,1.48514 0.0885,1.48513 -0.40012,0.40012 -0.40012,0.40012 h -0.49137 -0.49137 z m 1.55295,-0.92279 v -0.66146 l -0.5965,-0.0847 -0.59649,-0.0847 -0.15942,0.41543 -0.15942,0.41543 0.15942,0.41543 0.15942,0.41543 0.59649,-0.0847 0.5965,-0.0847 z m 0,-1.84846 v -0.39325 l -0.49113,-0.0946 -0.49112,-0.0946 -0.26635,0.26634 -0.26634,0.26634 0.18712,0.30277 0.18712,0.30276 0.57035,-0.0813 0.57035,-0.0813 z m -19.29568,2.22643 -0.41578,-0.41577 v -0.49137 -0.49137 l 0.41578,-0.41577 0.41577,-0.41578 h 0.49137 0.49137 l 0.41577,0.41578 0.41577,0.41577 v 0.49137 0.49137 l -0.41577,0.41577 -0.41577,0.41578 h -0.49137 -0.49137 z m 8.99583,0 -0.41578,-0.41577 v -0.49137 -0.49137 l 0.41578,-0.41577 0.41577,-0.41578 h 0.49137 0.49137 l 0.41577,0.41578 0.41578,0.41577 v 0.49137 0.49137 l -0.41578,0.41577 -0.41577,0.41578 h -0.49137 -0.49137 z M 81.869107,39.956558 81.219674,39.307127 v -0.817803 -0.817803 l 0.667094,-0.667095 0.667097,-0.667095 0.568952,0.08381 0.568949,0.08381 0.10427,0.316777 0.104267,0.316777 -0.726501,-0.05219 -0.726501,-0.05219 -0.415374,0.727604 -0.415378,0.727604 0.407019,0.727604 0.407022,0.727604 h 0.515398 0.515398 l 0.08917,-0.46302 0.08917,-0.463021 h -0.416277 -0.416274 v -0.264593 -0.264583 h 0.661459 0.661458 v 0.895183 0.895184 l -0.595313,0.159535 -0.595312,0.159539 -0.210463,0.0036 -0.210465,0.0036 -0.649431,-0.649433 z m 3.319317,-1.467234 v -2.116666 h 0.222533 0.222533 l 0.769655,1.389062 0.769654,1.389062 0.07997,-1.389062 0.07997,-1.389062 h 0.250756 0.250756 v 2.116666 2.116667 h -0.222533 -0.222533 l -0.769654,-1.389063 -0.769655,-1.389062 -0.07997,1.389062 -0.07997,1.389063 h -0.250757 -0.250756 z m 3.96875,0 v -2.116666 h 0.516718 0.516715 l 0.660914,0.301132 0.660913,0.301131 0.166309,0.757202 0.166309,0.757201 -0.166309,0.757201 -0.166309,0.757203 -0.660913,0.30113 -0.660914,0.301133 h -0.516715 -0.516718 z m 1.581486,1.332233 0.390864,-0.247166 v -1.085067 -1.085067 l -0.390864,-0.247165 -0.390861,-0.247165 -0.330729,-0.0041 -0.330729,-0.0041 v 1.5875 1.5875 l 0.330729,-0.004 0.330729,-0.004 0.390861,-0.247163 z m 156.71895,0.467518 -0.58184,-0.281101 -0.16679,-0.759325 -0.16677,-0.759325 0.16867,-0.768017 0.1687,-0.768018 0.77361,-0.320447 0.77365,-0.320447 0.40161,0.154119 0.40163,0.154119 v 0.277928 0.277928 l -0.59531,-0.139965 -0.59531,-0.139966 -0.39087,0.25385 -0.39084,0.253849 v 1.085067 1.085067 l 0.39084,0.250886 0.39087,0.250883 0.39383,-0.06885 0.39383,-0.06885 0.0886,-0.459981 0.0886,-0.459983 h -0.41627 -0.41627 v -0.264589 -0.264583 h 0.66146 0.66146 v 0.895183 0.895184 l -0.59531,0.159535 -0.59532,0.159539 -0.13229,-0.01429 -0.13229,-0.01429 -0.58185,-0.281101 z m 3.09539,-1.799751 v -2.116666 h 0.22254 0.22252 l 0.76967,1.389062 0.76965,1.389062 0.08,-1.389062 0.08,-1.389062 h 0.25077 0.25074 v 2.116666 2.116667 h -0.22254 -0.22251 l -0.76967,-1.389063 -0.76965,-1.389062 -0.08,1.389062 -0.08,1.389063 h -0.25077 -0.25075 z m 3.96875,0 v -2.116666 h 0.6735 0.67347 l 0.64944,0.649431 0.64942,0.649432 v 0.817803 0.817803 l -0.64942,0.649431 -0.64944,0.649433 h -0.67347 -0.6735 z m 1.84298,0.725731 0.40598,-0.725731 -0.40598,-0.725732 -0.40595,-0.725732 -0.45394,-0.08742 -0.45392,-0.08742 v 1.6263 1.626301 l 0.45392,-0.08742 0.45394,-0.08742 z m -41.79506,-1.876682 v -0.386195 l 1.05833,0.141952 1.05834,0.141952 v -0.853357 -0.853358 l -0.52917,-0.13838 -0.52917,-0.13838 v -0.146746 -0.146745 l 0.43789,-0.483854 0.43788,-0.483854 h -0.96705 -0.96705 v -0.264584 -0.264583 h 1.32292 1.32291 v 0.232186 0.232187 l -0.40355,0.334917 -0.40355,0.334916 0.42107,0.465276 0.42107,0.465276 -0.0837,1.018142 -0.0837,1.018141 -1.25677,0.08064 -1.25677,0.08064 z m 6.08542,-10.09384 v -2.248959 h 0.26458 0.26458 v 1.984375 1.984375 h 0.92605 0.92604 v 0.264584 0.264583 h -1.19063 -1.19062 z m 3.175,0 v -2.248959 h 0.88503 0.88503 l 0.43789,0.483855 0.43788,0.483854 v 0.423289 0.423288 l -0.41578,0.415774 -0.41577,0.415774 h -0.64256 -0.64256 v 0.926041 0.926042 h -0.26458 -0.26458 z m 1.85208,-0.393395 0.39687,-0.253 -0.2916,-0.470553 -0.29161,-0.470552 -0.56829,-0.08455 -0.56829,-0.08455 v 0.812152 0.812152 l 0.46302,-0.004 0.46302,-0.0041 z m 3.43958,1.980895 v -0.661459 h -0.92604 -0.92604 v -0.175182 -0.175183 l 0.44519,-1.412317 0.4452,-1.412318 h 0.21626 0.21627 v 0.231318 0.231319 l -0.38514,1.091598 -0.38514,1.091599 h 0.64972 0.64972 v -0.661459 -0.661458 h 0.26459 0.26458 v 0.63941 0.639409 l 0.33073,0.154341 0.33073,0.15434 -0.33073,0.15434 -0.33073,0.154341 v 0.639409 0.63941 h -0.26458 -0.26459 z"
       id="path21" />
  </g>
</svg>
