<?xml version="1.0" encoding="UTF-8" standalone="no"?>
<!-- Created with Inkscape (http://www.inkscape.org/) -->

<svg
   width="406.22229mm"
   height="211.99741mm"
   viewBox="0 0 406.22229 211.9974"
   version="1.1"
   id="svg5"
   inkscape:version="1.1.2 (b8e25be833, 2022-02-05)"
   sodipodi:docname="DSFQ_AND.svg"
   inkscape:export-filename="C:\JoSim\DSFQLib\.Shuntless\mitll_DSFQ_AND_Adjustable\diagrams\bitmap.png"
   inkscape:export-xdpi="1000.01"
   inkscape:export-ydpi="1000.01"
   xmlns:inkscape="http://www.inkscape.org/namespaces/inkscape"
   xmlns:sodipodi="http://sodipodi.sourceforge.net/DTD/sodipodi-0.dtd"
   xmlns="http://www.w3.org/2000/svg"
   xmlns:svg="http://www.w3.org/2000/svg">
  <sodipodi:namedview
     id="namedview7"
     pagecolor="#ffffff"
     bordercolor="#666666"
     borderopacity="1.0"
     inkscape:pageshadow="2"
     inkscape:pageopacity="0.0"
     inkscape:pagecheckerboard="0"
     inkscape:document-units="mm"
     showgrid="false"
     inkscape:zoom="0.7198092"
     inkscape:cx="644.61526"
     inkscape:cy="259.79107"
     inkscape:window-width="2160"
     inkscape:window-height="1256"
     inkscape:window-x="6709"
     inkscape:window-y="49"
     inkscape:window-maximized="1"
     inkscape:current-layer="layer1" />
  <defs
     id="defs2" />
  <g
     inkscape:label="Layer 1"
     inkscape:groupmode="layer"
     id="layer1"
     transform="translate(118.97809,-59.719994)">
    <path
       style="fill:#000000;stroke-width:0.264583"
       d="m 198.07821,271.45108 -0.576,-0.23214 -0.54848,-1.23993 -0.54848,-1.23993 v -0.65816 -0.65816 l 0.70102,-1.28801 0.70104,-1.28802 0.88474,-0.16597 0.88474,-0.16598 0.66317,0.16645 0.66321,0.16645 v 0.36853 0.36852 l -1.24452,-0.0428 -1.24452,-0.0428 -0.63458,1.13749 -0.63455,1.1375 0.16624,0.88619 0.16626,0.88618 0.5528,0.70278 0.55282,0.70278 0.82928,-0.0806 0.82931,-0.0806 0.0829,-0.8599 0.0829,-0.8599 h -0.54591 -0.54594 v -0.39687 -0.39688 h 0.92604 0.92604 v 1.46176 1.46176 l -0.67868,0.25803 -0.67868,0.25804 -0.57809,-0.0168 -0.57809,-0.0168 -0.576,-0.23214 z m 4.94163,-3.30619 v -3.57187 l 0.33072,0.004 0.33073,0.004 1.45521,2.54179 1.45521,2.5418 0.0757,-2.54548 0.0757,-2.54548 h 0.38729 0.3873 v 3.57187 3.57188 l -0.33073,-0.004 -0.33073,-0.004 -1.4552,-2.54179 -1.45521,-2.54179 -0.0757,2.54548 -0.0757,2.54548 h -0.3873 -0.38729 z m 6.61458,0 v -3.57187 l 1.12448,0.004 1.12448,0.004 0.66146,0.33051 0.66145,0.33051 0.4626,0.92236 0.46263,0.92236 v 1.05833 1.05834 l -0.46263,0.92236 -0.4626,0.92236 -0.66145,0.33051 -0.66146,0.33051 -1.12448,0.004 -1.12448,0.004 v -3.57188 z m 2.93743,2.28028 0.61481,-0.49784 0.01,-1.59687 0.01,-1.59688 -0.64143,-0.6834 -0.64143,-0.68341 h -0.74763 -0.74763 v 2.77812 2.77813 h 0.76443 0.76443 l 0.61482,-0.49785 z m -10.80879,-11.15953 -3.24114,-3.17451 v -0.25697 -0.25697 h 3.175 3.175 l -0.003,-3.24115 -0.003,-3.24115 -0.79219,-0.45076 -0.79216,-0.45077 -0.30695,-0.67371 -0.30697,-0.67371 h -8.29191 -8.29191 v -3.55086 -3.55085 l 0.73285,-0.16096 0.73287,-0.16096 0.75842,-0.60476 0.75843,-0.60476 V 237.0914 235.97 l -0.73472,-0.76688 -0.73472,-0.76689 -0.75655,-0.16617 -0.75658,-0.16617 v -0.34278 -0.34278 l 0.72761,-0.15458 0.7276,-0.15458 0.7637,-0.62319 0.76366,-0.62319 V 230.7414 229.62 l -0.71956,-0.75108 -0.71959,-0.75107 -0.77171,-0.15434 -0.76975,-0.15435 v -0.37404 -0.37404 l 0.88374,-0.16579 0.8837,-0.16579 0.60757,-0.64672 0.60756,-0.64672 v -1.11759 -1.11759 l -0.83399,-0.74518 -0.83402,-0.74518 h -0.67667 -0.67668 l 0.0878,-0.46302 0.0878,-0.46302 0.68934,-0.0803 0.68935,-0.0803 0.73353,-0.76564 0.73353,-0.76564 v -1.08303 -1.08303 l -0.60756,-0.64672 -0.60757,-0.64672 -0.8837,-0.16578 -0.88374,-0.16579 v -13.92441 -13.92441 l -4.4346,4.42886 -4.4346,4.42885 h -0.3279 -0.3279 v -0.32797 -0.32797 l 4.56123,-4.56682 4.56123,-4.56682 -4.56123,-4.56682 -4.56123,-4.56683 v -0.32796 -0.32798 h 0.3279 0.3279 l 4.4346,4.42886 4.4346,4.42885 v -7.69368 -7.69367 l -0.67371,-0.30697 -0.67371,-0.30696 -0.45077,-0.79216 -0.45077,-0.79217 -11.79764,-0.002 -11.79763,-0.002 -0.29499,0.64747 -0.29501,0.64746 -0.67352,0.4413 -0.6735,0.4413 v 44.55186 44.55186 l -33.66823,0.0102 -33.668228,0.0102 -0.530847,0.84392 -0.530847,0.84392 -0.725924,0.2553 -0.725924,0.25529 -0.725924,-0.25529 -0.725924,-0.2553 -0.530847,-0.84392 -0.530847,-0.84392 H 45.989624 6.0375405 l -0.5308468,0.84392 -0.5308468,0.84392 -0.725924,0.2553 -0.7259241,0.25529 -0.7259241,-0.25529 -0.725924,-0.2553 -0.5308468,-0.84392 -0.5308468,-0.84408 -25.7307291,-0.0102 -25.73073,-0.0102 v -3.41127 -3.41128 l 0.418515,-0.1606 0.418513,-0.1606 h 0.457771 0.457769 l 0.637757,-0.85989 0.63776,-0.8599 0.0013,-1.01926 0.0013,-1.01927 -0.858057,-0.76667 -0.858057,-0.76667 H -49.793717 -50.451 v -0.36381 -0.3638 l 0.830177,-0.16604 0.830178,-0.16603 0.667205,-0.71993 0.667205,-0.71992 0.02397,-1.11006 0.02397,-1.11005 -0.637627,-0.67884 -0.637628,-0.67884 -0.883727,-0.16579 -0.883726,-0.16579 v -0.33798 -0.33798 l 0.883726,-0.16579 0.883727,-0.16579 0.637628,-0.67884 0.637627,-0.67884 -0.02397,-1.11005 -0.02397,-1.11006 -0.667205,-0.71992 -0.667205,-0.71993 -0.830178,-0.16603 -0.830225,-0.16604 v -0.3638 -0.3638 h 0.657283 0.657286 l 0.858057,-0.76668 0.858057,-0.76667 -0.0013,-1.01926 -0.0013,-1.01927 -0.620495,-0.83655 -0.620493,-0.83654 -0.893548,-0.16763 -0.893501,-0.16763 -1.93e-4,-6.93333 -1.93e-4,-6.93332 -2.513349,-0.91284 -2.513348,-0.91284 v -0.28273 -0.28272 l 3.373437,-1.25871 3.373438,-1.2587 1.281271,-0.58931 1.281271,-0.58931 -4.654709,-1.70905 -4.654708,-1.70906 v -0.28431 -0.28432 l 4.622689,-1.6973 4.622686,-1.69729 -0.720082,-0.2963 -0.720085,-0.2963 -3.902604,-1.42613 -3.902604,-1.42612 v -0.30113 -0.30113 l 4.614198,-1.84341 4.614199,-1.84342 -2.100657,-0.76381 -2.100657,-0.76381 v -2.54928 -2.54927 l -0.673714,-0.30697 -0.673714,-0.30696 -0.450765,-0.79217 -0.450765,-0.79216 -2.016705,-0.002 -2.016704,-0.002 -0.162097,-1.01369 -0.162097,-1.0137 -0.560957,-0.50765 -0.560956,-0.50766 h -1.273821 -1.273823 l -0.657532,0.61772 -0.657532,0.61771 -0.169524,0.90364 -0.169523,0.90363 h -0.351068 -0.35107 l -0.162097,-1.01369 -0.162097,-1.0137 -0.560957,-0.50765 -0.560956,-0.50766 h -1.318046 -1.318048 l -0.638548,0.74235 -0.638551,0.74236 v 0.779 0.77899 h -0.384887 -0.384884 l -0.169524,-0.90363 -0.169523,-0.90364 -0.657532,-0.61771 -0.657532,-0.61772 h -1.273824 -1.27382 l -0.560957,0.50766 -0.560956,0.50765 -0.162097,1.0137 -0.162097,1.01369 h -0.333613 -0.333613 l -0.165788,-0.88372 -0.165788,-0.88373 -0.591262,-0.54107 -0.591261,-0.54107 -0.618316,-0.18784 -0.618315,-0.18783 -0.887011,0.16641 -0.88701,0.1664 -0.545195,0.88215 -0.545195,0.88214 v 0.56408 0.56408 h -9.626733 -9.626728 l -2.61025,3.02511 -2.61025,3.0251 -6.68073,0.0176 -6.68073,0.0174 v -6.61458 -6.61459 l 6.68073,0.0152 6.68073,0.0152 2.60125,3.15979 2.60125,3.15979 h 9.238855 9.238856 v -0.43179 -0.43179 l 0.536281,-0.86772 0.536284,-0.86773 0.826117,-0.28798 0.826116,-0.28799 h 0.903952 0.903954 l 0.577919,0.29765 0.577919,0.29765 0.595312,0.54222 0.595313,0.54223 v -0.3146 -0.31459 l 0.859895,-0.52429 0.859896,-0.52429 1.141873,-0.001 1.141873,-0.001 0.577919,0.29764 0.577919,0.29765 0.595312,0.54222 0.595313,0.54223 v -0.31459 -0.3146 l 0.859896,-0.52429 0.859895,-0.52429 h 1.190625 1.190625 l 0.859896,0.52429 0.859896,0.52429 v 0.3146 0.31459 l 0.595313,-0.54223 0.595312,-0.54222 0.577919,-0.29765 0.577919,-0.29764 h 1.088866 1.088866 l 0.776132,0.40135 0.776134,0.40135 0.401352,0.77614 0.401354,0.77613 v 0.41001 0.41002 h 1.605267 1.605267 l 0.873371,-0.92605 0.873368,-0.92604 h 0.86356 0.863561 l 0.873368,0.92604 0.873371,0.92605 H -23.33121 0.91369897 L 1.78707,182.15518 2.6604385,181.22914 h 0.7687178 0.7687151 l 2.0443137,-2.05637 2.0443138,-2.05638 v -0.53654 -0.53654 l -0.3175,-0.3175 -0.3175,-0.3175 H 6.7939896 5.9364776 l -0.1635204,0.26458 -0.1635205,0.26459 H 5.2281748 4.8469155 v -0.38757 -0.38757 l 0.5117729,-0.27389 0.511773,-0.27389 h 1.0251573 1.0251572 l 0.5135907,0.37555 0.5135906,0.37554 v 1.20359 1.20358 l -1.5792186,1.59587 -1.5792159,1.59587 h 1.6453618 1.6453644 v 0.39687 0.39688 H 7.0897752 5.0992989 l 0.433406,0.66146 0.4334034,0.66146 5.5919657,-3e-5 5.591967,-2e-5 0.91295,-2.64581 0.912947,-2.64581 h 0.288063 0.288059 l 1.033926,2.97656 1.033923,2.97656 0.698391,1.82602 0.698392,1.82601 0.92252,-2.22289 0.922523,-2.22289 0.899165,-2.57968 0.899165,-2.57969 h 0.282456 0.282456 l 1.033926,2.97656 1.033923,2.97656 0.688144,1.79934 0.688144,1.79933 1.214356,-3.38683 1.214355,-3.38684 0.488733,-1.38906 0.488731,-1.38906 h 0.301217 0.301218 l 1.819492,4.75702 1.819492,4.75703 0.787842,-2.11119 0.787841,-2.11119 6.752784,-0.003 6.752783,-0.003 0.438721,-1.04476 0.438725,-1.04475 0.884192,-0.53907 0.884195,-0.53906 1.137619,-0.001 1.137618,-0.001 0.748549,0.38709 0.748548,0.38709 0.172173,0.44867 0.172169,0.44868 0.803307,-0.76962 0.803307,-0.76962 h 1.685044 1.685044 l 0.787458,0.75443 0.787455,0.75444 0.282665,-0.52817 0.282665,-0.52816 0.838817,-0.29242 0.838819,-0.29241 H 69.859 70.762954 l 0.577919,0.29765 0.577918,0.29765 0.595313,0.54222 0.595312,0.54222 v -0.31459 -0.31459 l 0.859896,-0.52429 0.859896,-0.52429 h 1.190625 1.190625 l 0.885854,0.54007 0.885854,0.54008 0.411052,1.04643 0.411051,1.04644 h 4.590074 4.590074 v 18.58406 18.58406 l 4.434607,-4.42885 4.434607,-4.42857 h 0.327893 0.327893 v 0.32797 0.32797 l -4.561226,4.56682 -4.561229,4.56682 4.561229,4.56682 4.561226,4.56682 v 0.32797 0.32798 h -0.327893 -0.327893 l -4.434607,-4.42886 -4.434607,-4.42885 v 17.12885 17.12885 l 1.058333,1.05834 1.058333,1.05833 h 33.205207 33.20521 l -0.0103,-44.11927 -0.0101,-44.11927 -0.84394,-0.53085 -0.84392,-0.53084 -0.25529,-0.72593 -0.2553,-0.72592 0.2553,-0.72592 0.25529,-0.72593 0.84392,-0.53085 0.84394,-0.53084 0.0101,-6.54844 0.0103,-6.54844 -33.27135,0.0102 -33.271358,0.0102 -0.530847,0.84392 -0.530847,0.84392 -0.725924,0.2553 -0.725924,0.25529 -0.725924,-0.25529 -0.725924,-0.2553 -0.530847,-0.84392 -0.530847,-0.84392 H 45.989624 6.0375405 l -0.5308468,0.84392 -0.5308468,0.84392 -0.725924,0.2553 -0.7259241,0.25529 -0.7259241,-0.25529 -0.725924,-0.2553 -0.5308468,-0.84392 -0.5308468,-0.84391 -25.7384101,-0.0102 -25.738408,-0.0102 0.07382,-3.50573 0.07383,-3.50573 0.839287,-0.13229 0.839288,-0.13229 0.609909,-0.77964 0.609907,-0.77963 v -0.94296 -0.94296 l -0.523155,-0.72176 -0.523153,-0.72176 -0.992187,-0.16915 -0.992188,-0.16915 v -0.33475 -0.33475 l 0.418515,-0.1606 0.418513,-0.1606 h 0.457771 0.457769 l 0.637757,-0.85989 0.63776,-0.8599 0.0013,-1.01926 0.0013,-1.01927 -0.858057,-0.76667 -0.858057,-0.76667 h -0.657286 -0.657283 v -0.36743 -0.36743 l 0.883726,-0.16579 0.883727,-0.16579 0.637628,-0.67872 0.637627,-0.67873 v -1.14799 -1.14799 l -0.637627,-0.67873 -0.637628,-0.67872 -0.883727,-0.16579 -0.883726,-0.16578 v -0.36743 -0.36743 h 0.657283 0.657286 l 0.858057,-0.76668 0.858057,-0.76667 -0.0013,-1.01926 -0.0013,-1.01927 -0.635479,-0.85681 -0.635479,-0.85681 -0.878565,-0.16482 -0.878562,-0.16482 -1.93e-4,-6.91587 -1.93e-4,-6.91587 -2.513349,-0.91284 -2.513348,-0.91284 v -0.28272 -0.28273 l 3.373437,-1.25871 3.373438,-1.2587 1.281271,-0.58931 1.281271,-0.58931 -4.654709,-1.70905 -4.654708,-1.709055 v -0.284316 -0.284316 l 4.611412,-1.693159 4.611415,-1.693156 -4.611415,-1.842299 -4.611412,-1.842299 v -0.301003 -0.301 l 4.643421,-1.704912 4.643425,-1.704909 -2.129883,-0.792855 -2.12988,-0.792859 -0.0017,-2.651741 -0.0017,-2.651742 -0.792165,-0.450766 -0.792165,-0.450765 -0.306965,-0.673714 -0.306964,-0.673713 h -2.04475 -2.044753 l -0.171574,-0.914577 -0.171577,-0.914577 -0.687301,-0.540631 -0.687303,-0.540632 h -1.00235 -1.002353 l -0.779941,0.656278 -0.779941,0.656277 -0.159785,0.798931 -0.159787,0.798931 h -0.374044 -0.374044 l -0.171575,-0.914577 -0.171577,-0.914577 -0.6873,-0.540631 -0.687303,-0.540632 h -1.043003 -1.043006 l -0.773396,0.773398 -0.773398,0.773397 v 0.681811 0.681811 h -0.40349 -0.403489 l -0.159787,-0.798931 -0.159785,-0.798931 -0.779941,-0.656277 -0.779942,-0.656278 h -1.002352 -1.002351 l -0.687302,0.540632 -0.687301,0.540631 -0.171577,0.914577 -0.171574,0.914577 h -0.346408 -0.346406 l -0.172765,-0.786598 -0.172768,-0.786597 -0.794596,-0.668611 -0.7946,-0.668611 h -1.050665 -1.050669 l -0.667112,0.719827 -0.667113,0.719827 -0.147076,0.735382 -0.147077,0.735381 h -9.602658 -9.602653 l -2.60125,3.159791 -2.60125,3.159792 -6.28385,0.01521 -6.28386,0.01521 v -6.614583 -6.614584 l 6.28386,0.01761 6.28385,0.01761 2.61025,3.025103 2.61025,3.025103 h 9.201169 9.201171 l 0.160885,-0.641016 0.160885,-0.641016 0.814192,-0.814192 0.814194,-0.814193 h 1.510996 1.510996 l 0.882735,0.736941 0.882734,0.73694 0.788898,-0.73694 0.788897,-0.736941 h 1.503368 1.503368 l 0.882735,0.736941 0.882734,0.73694 0.788898,-0.73694 0.788897,-0.736941 h 1.531538 1.531538 l 0.788898,0.736941 0.788898,0.73694 0.882734,-0.73694 0.882735,-0.736941 h 1.42436 1.424358 l 0.754158,0.537008 0.754158,0.537007 0.332026,0.918201 0.332025,0.918201 h 1.552115 1.552115 l 0.873371,-0.926042 0.873368,-0.926041 h 0.86356 0.863561 l 0.873368,0.926041 0.873371,0.926042 H -23.33121 0.91369897 l 0.89596383,-0.949997 0.8959639,-0.949998 1.0044985,0.06094 1.0044986,0.06094 0.8598959,-0.03698 0.8598958,-0.03698 V 71.54058 69.272724 L 6.0186413,69.688497 5.6028671,70.104271 H 5.2248913 4.8469155 v -0.396875 -0.396875 h 0.2621518 0.2621492 l 0.5977466,-0.922766 0.5977441,-0.922767 0.3307291,-0.0033 0.3307292,-0.0033 v 3.175 3.175 h 0.9260417 0.9260417 v 0.396875 0.396875 H 7.2188575 5.3574634 l 0.2832021,0.529166 0.2832021,0.529167 5.6130854,-1.93e-4 5.613088,-1.94e-4 0.912839,-2.513348 0.912839,-2.513348 h 0.287652 0.287652 l 1.709055,4.654708 1.709055,4.654709 0.589307,-1.281271 0.589306,-1.281271 1.258705,-3.373438 1.258708,-3.373437 h 0.279392 0.279389 l 1.697297,4.622688 1.697297,4.622687 0.296301,-0.720083 0.296299,-0.720084 1.426123,-3.902604 1.426125,-3.902604 h 0.301131 0.301132 l 1.843411,4.614199 1.843413,4.614199 0.763809,-2.100658 0.76381,-2.100657 h 6.792982 6.792981 l 0.335455,-0.809857 0.335452,-0.809857 0.8461,-0.645352 0.846098,-0.645351 h 1.476028 1.476026 l 0.76068,0.76068 0.76068,0.760679 0.851347,-0.760679 0.851347,-0.76068 h 1.446861 1.44686 l 0.851348,0.76068 0.851347,0.760679 0.760679,-0.760679 0.76068,-0.76068 h 1.510996 1.510996 l 0.882734,0.736941 0.882735,0.73694 0.788898,-0.73694 0.788897,-0.736941 h 1.452528 1.452531 l 0.798383,0.568499 0.798383,0.568499 0.370491,0.886709 0.37049,0.88671 h 4.626658 4.626658 v 18.716352 18.716357 l 4.434607,-4.42886 4.434607,-4.42885 h 0.327893 0.327893 v 0.32797 0.32797 l -4.561226,4.56682 -4.561229,4.56682 4.561229,4.56682 4.561226,4.56683 v 0.32796 0.32798 h -0.327893 -0.327893 l -4.434607,-4.42886 -4.434607,-4.42885 v 17.12885 17.12886 l 1.058333,1.05833 1.058333,1.05833 h 33.602087 33.60208 v 6.87917 6.87917 l 1.05833,1.05833 1.05834,1.05833 h 11.74353 11.74353 l 0.4413,-0.6735 0.4413,-0.67351 0.64746,-0.295 0.64746,-0.29501 V 154.236 143.20272 l -1.52135,-0.14268 -1.52136,-0.14266 -1.51468,-0.57205 -1.51466,-0.57205 -1.59452,-1.1738 -1.59448,-1.1738 -1.1738,-1.59449 -1.1738,-1.59449 -0.60653,-1.51468 -0.60655,-1.51467 v -3.3073 -3.30729 l 0.60655,-1.51468 0.60653,-1.51467 1.1738,-1.5945 1.1738,-1.59449 1.59448,-1.17379 1.59452,-1.1738 1.51466,-0.57205 1.51468,-0.57205 1.52136,-0.14267 1.52135,-0.14267 v -8.95908 -8.959089 h -3.175 -3.175 V 98.34457 98.009872 l 3.27713,-3.269273 3.27716,-3.269274 0.22857,0.09824 0.2286,0.09824 3.10885,3.196627 3.10886,3.196627 v 0.309103 0.309102 h -3.04271 -3.04271 v 8.958816 8.95881 l 1.38906,0.14568 1.38907,0.14567 1.51468,0.56931 1.51466,0.56932 1.59451,1.1738 1.59449,1.17379 1.1738,1.59449 1.1738,1.5945 0.60653,1.51467 0.60655,1.51468 v 3.30729 3.3073 l -0.60655,1.51467 -0.60653,1.51468 -1.1738,1.59449 -1.1738,1.59449 -1.59449,1.1738 -1.59451,1.1738 -1.51466,0.56932 -1.51468,0.56931 -1.38907,0.14567 -1.38906,0.14567 v 10.94319 10.9432 l 1.05833,1.05833 1.05834,1.05833 h 16.28965 16.28963 l 0.87337,-0.92604 0.87338,-0.92604 h 0.86355 0.86355 l 0.87905,0.93206 0.87905,0.93205 4.82415,-0.0722 4.82412,-0.0722 0.20847,-0.80526 0.20844,-0.80527 0.86648,-0.64994 0.86648,-0.64995 1.51353,0.009 1.51352,0.009 0.74258,0.71144 0.74258,0.71143 0.74287,-0.63833 0.7429,-0.63834 0.77708,-0.17067 0.77708,-0.17068 1.02372,0.17296 1.02373,0.17296 0.60677,0.64587 0.60677,0.64587 0.67884,-0.64354 0.67887,-0.64355 0.97149,-0.17856 0.97153,-0.17857 0.792,0.17396 0.79201,0.17395 0.74289,0.63834 0.74287,0.63833 0.74258,-0.71143 0.74258,-0.71144 1.51924,-0.009 1.51924,-0.009 0.78803,0.61645 0.78804,0.61645 0.28763,0.83876 0.28762,0.83876 2.68894,0.0754 2.68893,0.0754 v -3.18426 -3.18426 l 6.81302,0.0176 6.81302,0.0176 2.64584,3.04157 2.64583,3.04156 0.24188,0.34656 0.24186,0.34656 -2.88769,3.3209 -2.88772,3.3209 -6.81302,0.0202 -6.81302,0.0203 V 171.175 168 h -3.0144 -3.01439 l -0.16061,-0.41851 -0.1606,-0.41851 v -0.45778 -0.45777 l -0.85989,-0.63775 -0.8599,-0.63776 -1.01925,-0.001 -1.01928,-0.001 -0.76666,0.85806 -0.76668,0.85806 v 0.65728 0.65729 h -0.36381 -0.3638 l -0.16602,-0.83018 -0.16606,-0.83018 -0.71993,-0.66721 -0.7199,-0.6672 -1.15306,-0.024 -1.15305,-0.024 -0.77219,0.86407 -0.77218,0.86407 v 0.65728 0.65729 h -0.36743 -0.36743 l -0.16579,-0.88373 -0.16578,-0.88373 -0.67885,-0.63763 -0.67884,-0.63762 -1.11006,0.024 -1.11006,0.024 -0.7199,0.6672 -0.71993,0.66721 -0.16605,0.83018 -0.16603,0.83018 h -0.3638 -0.3638 v -0.65729 -0.65728 l -0.76669,-0.85806 -0.76665,-0.85806 -1.01928,0.001 -1.01926,0.001 -0.83653,0.62049 -0.83656,0.6205 -0.16764,0.89354 L 237.12711,168 h -5.23721 -5.23722 l -0.29498,0.64747 -0.29501,0.64746 -0.67352,0.4413 -0.6735,0.4413 1.8e-4,2.41697 2.2e-4,2.41696 2.51333,0.91284 2.51335,0.91284 v 0.28765 0.28765 l -4.62269,1.6973 -4.6227,1.6973 0.72009,0.2963 0.72009,0.2963 3.90261,1.42612 3.9026,1.42613 v 0.27951 0.27953 l -3.37344,1.2587 -3.37343,1.25871 -1.28127,0.58931 -1.28128,0.5893 4.65471,1.70906 4.65471,1.70905 v 0.28432 0.28431 l -4.64341,1.70492 -4.64344,1.7049 2.1299,0.79286 2.12987,0.79286 v 8.48557 8.48556 l 0.91802,0.33197 0.91803,0.33196 0.53022,0.67408 0.53023,0.67406 0.16547,0.88196 0.16544,0.88195 -0.29847,0.90438 -0.29845,0.90438 -0.64334,0.60437 -0.64331,0.60437 0.64463,0.50707 0.64464,0.50707 0.31281,1.04413 0.31285,1.04414 -0.31285,1.04414 -0.31281,1.04414 -0.64464,0.50707 -0.64463,0.50706 0.65543,0.61577 0.65545,0.61576 0.28533,0.95234 0.28533,0.95234 -0.30015,1.11473 -0.30017,1.11473 -0.65151,0.42689 -0.65151,0.42688 0.76886,0.87568 0.76885,0.87567 0.17378,0.79126 0.1738,0.79126 -0.28736,1.06717 -0.28737,1.06717 -0.72099,0.50776 -0.72099,0.50776 -0.59531,0.18483 -0.59531,0.18484 v 3.15717 3.15717 h -8.55649 -8.5565 l -0.29498,0.64746 -0.29501,0.64746 -0.67352,0.4413 -0.6735,0.4413 v 3.27686 3.27687 h 3.19439 3.1944 l -0.0855,0.33072 -0.0855,0.33073 -3.19662,3.10886 -3.19664,3.10885 -0.24294,-0.008 -0.24297,-0.008 z m 6.54259,-0.62755 2.24312,-2.26716 -5.28582,0.003 -5.28582,0.003 2.56016,2.52984 2.56013,2.52985 0.48258,-0.26615 0.48254,-0.26615 2.24311,-2.26716 z m -206.7824621,-0.824 0.4412985,-0.6735 0.6474645,-0.29501 0.6474646,-0.295 v -17.21867 -17.21868 l -4.4346073,4.42885 -4.4346072,4.42886 h -0.3278928 -0.3278929 v -0.32798 -0.32797 l 4.5612263,-4.56682 4.5612288,-4.56682 -4.5612288,-4.56682 -4.5612263,-4.56682 v -0.32797 -0.32797 h 0.3278929 0.3278928 l 4.4346072,4.42885 4.4346073,4.42885 v -17.08638 -17.08638 l -0.6737139,-0.30697 -0.6737138,-0.30696 -0.4507654,-0.79217 -0.4507653,-0.79216 -24.3653421,-0.002 -24.365344,-0.002 -0.295006,0.64747 -0.295005,0.64746 -0.673505,0.4413 -0.673507,0.4413 1.93e-4,2.28468 1.93e-4,2.28467 2.513349,0.91284 2.513348,0.91284 v 0.28273 0.28272 l -3.373437,1.25871 -3.373438,1.2587 -1.281271,0.58931 -1.281271,0.58931 4.654709,1.70905 4.654708,1.70906 v 0.28444 0.28445 l -3.902604,1.42612 -3.902604,1.42613 -0.720085,0.29629 -0.720082,0.29631 4.622686,1.69729 4.622689,1.6973 v 0.301 0.301 l -4.614198,1.84341 -4.614199,1.84342 2.096366,0.76225 2.096368,0.76225 0.07043,6.87608 0.07044,6.87609 0.805264,0.20855 0.805268,0.20854 0.649941,0.86649 0.649943,0.86649 -0.0092,1.51352 -0.0092,1.51353 -0.711433,0.74258 -0.711435,0.74257 0.638334,0.74288 0.638336,0.74288 0.173956,0.79201 0.173955,0.79202 -0.178564,0.9715 -0.178565,0.97151 -0.643549,0.67885 -0.643546,0.67886 0.645872,0.60676 0.645874,0.60677 0.172958,1.02373 0.172959,1.02374 -0.170675,0.77708 -0.170675,0.77708 -0.638336,0.74288 -0.638334,0.74287 0.711435,0.74258 0.711433,0.74258 0.0092,1.51924 0.0092,1.51925 -0.616444,0.78803 -0.616448,0.78803 -0.838761,0.28763 -0.838763,0.28762 -0.0754,2.68894 -0.0754,2.68893 h 25.378829 25.3788253 l 0.4412986,-0.6735 z M -42.248919,239.83448 v -3.57188 h 0.396875 0.396875 v 3.175 3.175 h 1.455209 1.455208 v 0.39688 0.39687 h -1.852083 -1.852084 z m 5.027084,-0.0299 v -3.60173 l 1.880928,0.10628 1.880928,0.10628 0.36803,0.50331 0.368031,0.50331 v 0.76058 0.76057 l -0.273892,0.51178 -0.273894,0.51177 h -0.371951 -0.371951 l -0.162148,0.26236 -0.162147,0.26236 0.807993,1.17437 0.80799,1.17438 v 0.28306 0.28305 l -0.33073,-0.002 -0.330729,-0.002 -1.021315,-1.58519 -1.021313,-1.58518 h -0.500041 -0.500039 v 1.5875 1.5875 h -0.396875 -0.396875 v -3.60174 z m 3.386667,-0.68452 0.3175,-0.3175 v -0.55562 -0.55563 l -0.3175,-0.3175 -0.3175,-0.3175 h -1.137709 -1.137708 v 1.19063 1.19062 h 1.137708 1.137709 z m 3.16177,4.10387 -0.46302,-0.121 v -0.36501 -0.36501 l 1.280773,0.15169 1.280774,0.15169 0.57131,-0.30576 0.571309,-0.30575 v -0.52375 -0.52375 l -0.849212,-0.51643 -0.849212,-0.51644 -0.740489,-0.16264 -0.740487,-0.16264 -0.262384,-0.49026 -0.262382,-0.49027 v -0.62828 -0.62829 l 0.331597,-0.45348 0.331597,-0.45349 0.976534,-0.15847 0.976535,-0.15847 0.940827,0.1765 0.940826,0.1765 v 0.36472 0.36471 l -1.6179,-0.046 -1.617901,-0.046 -0.298974,0.46302 -0.298976,0.46303 0.279966,0.44383 0.279966,0.44384 0.962533,0.28377 0.962533,0.28376 0.674375,0.59357 0.674378,0.59356 v 0.67523 0.67524 l -0.649433,0.64943 -0.64943,0.64943 -1.136507,-0.0307 -1.136505,-0.0307 z m 5.357813,-0.12832 v -0.31069 l 1.852083,-1.91006 1.852084,-1.91007 v -0.63674 -0.63674 l -0.3175,-0.3175 -0.3175,-0.3175 h -0.85751 -0.857512 l -0.16352,0.26459 -0.16352,0.26458 h -0.381262 -0.38126 v -0.38757 -0.38756 l 0.511773,-0.2739 0.511773,-0.27389 h 1.075727 1.075727 l 0.559885,0.55989 0.559882,0.55988 -0.142957,1.06583 -0.142957,1.06582 -1.533123,1.54929 -1.533122,1.54929 h 1.645361 1.645365 v 0.39688 0.39687 h -2.248959 -2.248958 z m 19.6252865,-20.14541 -0.5752862,-0.61237 v -0.92901 -0.92902 l 0.6123649,-0.57528 0.6123649,-0.57529 h 0.9290156 0.929013 l 0.5752888,0.61236 0.5752862,0.61237 v 0.92901 0.92902 l -0.6123649,0.57529 -0.6123649,0.57528 H -4.1859967 -5.1150096 Z M -42.248919,201.99906 v -3.57187 h 1.599526 1.599528 l 0.64943,0.64943 0.649433,0.64943 v 0.79534 0.79535 l -0.330729,0.28404 -0.330729,0.28404 -0.503381,0.34766 -0.503377,0.34767 0.834107,1.21234 0.834109,1.21233 v 0.28306 0.28306 l -0.330729,-0.002 -0.330729,-0.002 -1.021316,-1.58518 -1.021313,-1.58519 h -0.500041 -0.500039 v 1.5875 1.5875 h -0.396875 -0.396875 v -3.57187 z m 3.192394,-0.67077 0.511773,-0.27389 v -0.64284 -0.64284 l -0.511773,-0.27389 -0.511773,-0.27389 h -0.943435 -0.943436 v 1.19062 1.19063 h 0.943436 0.943435 z m 3.356044,4.06026 -0.463021,-0.121 v -0.36501 -0.36501 l 1.318218,0.15613 1.318215,0.15612 0.401577,-0.33328 0.401574,-0.33327 v -0.45577 -0.45576 l -0.497872,-0.45057 -0.497875,-0.45057 -0.954222,-0.26347 -0.954222,-0.26347 -0.291915,-0.54545 -0.291915,-0.54545 0.167897,-0.89497 0.167896,-0.89497 0.500386,-0.2678 0.500387,-0.26779 0.87729,0.004 0.87729,0.004 0.595312,0.15954 0.595313,0.15953 v 0.33056 0.33056 l -1.486419,-0.0307 -1.486416,-0.0307 -0.298167,0.46303 -0.298167,0.46302 0.29177,0.46255 0.291769,0.46255 0.999471,0.28042 0.999472,0.28042 0.518218,0.63998 0.518221,0.63998 -0.151125,0.93128 -0.151127,0.93129 -0.453488,0.3316 -0.453485,0.33159 -1.07391,-0.0307 -1.073909,-0.0307 -0.463021,-0.121 z m 5.093229,-0.15497 v -0.33735 l 1.984375,-1.97113 1.984375,-1.97113 v -0.54902 -0.54901 l -0.3175,-0.3175 -0.3175,-0.3175 h -0.728384 -0.728382 l -0.675027,0.30756 -0.675026,0.30756 -0.197321,-0.19805 -0.197318,-0.19804 0.624623,-0.50639 0.624626,-0.50639 h 1.110742 1.110744 l 0.513591,0.37554 0.513591,0.37555 v 1.20358 1.20359 l -1.579219,1.59587 -1.579216,1.59587 h 1.645362 1.645364 v 0.39687 0.39688 h -2.38125 -2.38125 z m 117.061691,52.58051 0.441299,-0.6735 0.647464,-0.29501 0.647465,-0.295 v -17.08629 -17.0863 l -4.302401,4.29647 -4.302397,4.29648 H 79.258058 78.93025 v -0.32798 -0.32797 l 4.561226,-4.56682 4.561229,-4.56682 -4.561229,-4.56682 -4.561226,-4.56682 v -0.32797 -0.32797 h 0.327808 0.327811 l 4.302397,4.29647 4.302401,4.29647 v -18.0548 -18.05481 h -4.61822 -4.618218 l -0.169524,-0.90363 -0.169524,-0.90364 -0.657531,-0.61772 -0.657532,-0.61772 h -1.273824 -1.27382 l -0.560957,0.50766 -0.560956,0.50766 -0.162097,1.0137 -0.162097,1.01369 h -0.333613 -0.333613 l -0.165788,-0.88372 -0.165788,-0.88373 -0.591262,-0.54107 -0.591262,-0.54107 -0.618315,-0.18784 -0.618315,-0.18783 -0.887011,0.16641 -0.88701,0.1664 -0.545195,0.88214 -0.545195,0.88215 v 0.56408 0.56408 h -0.36743 -0.367429 l -0.170471,-0.85989 -0.170474,-0.8599 -0.550257,-0.66146 -0.550259,-0.66146 h -1.395555 -1.395556 l -0.550259,0.66146 -0.550257,0.66146 -0.170473,0.8599 -0.170471,0.85989 h -0.36743 -0.367429 v -0.56408 -0.56408 l -0.545195,-0.88215 -0.545196,-0.88214 -0.88701,-0.1664 -0.88701,-0.16641 -0.618316,0.18783 -0.618315,0.18784 -0.591262,0.54107 -0.591262,0.54107 -0.165787,0.88373 -0.165788,0.88372 -6.915868,2e-4 -6.915867,1.9e-4 -0.912839,2.51335 -0.912839,2.51335 -0.277786,-5.3e-4 -0.277786,-5.3e-4 -1.536411,-4.03445 -1.536412,-4.03429 -0.315672,-0.72582 -0.315671,-0.72583 -1.700091,4.76072 -1.700094,4.76073 h -0.303982 -0.303983 l -1.692476,-4.7144 -1.692476,-4.7144 -1.223523,3.19304 -1.223523,3.19305 -0.606751,1.52135 -0.60675,1.52136 h -0.311558 -0.31156 l -1.710727,-4.7473 -1.710724,-4.7473 -0.774306,2.23375 -0.774306,2.23376 h -5.85547 -5.85547 l -0.2950051,0.64747 -0.2950051,0.64746 -0.6735049,0.4413 -0.6735074,0.4413 v 16.96604 16.96604 l 4.3024002,-4.29647 4.3023973,-4.29647 h 0.327811 0.327808 v 0.32797 0.32797 l -4.561226,4.56682 -4.5612288,4.56682 4.5612288,4.56682 4.561226,4.56682 v 0.32797 0.32798 h -0.327808 -0.327811 l -4.3023973,-4.29648 -4.3024002,-4.29647 v 16.99647 16.99647 l 0.9921875,1.03629 0.9921875,1.03628 39.9878005,0.022 39.9878,0.022 0.441298,-0.6735 z M 17.546916,220.78448 v -3.57188 l 1.389062,0.006 1.389063,0.006 0.661458,0.50844 0.661458,0.50845 0.05729,1.4039 0.05729,1.4039 0.166515,1.09911 0.166518,1.09911 -0.554537,0.55454 -0.554538,0.55455 h -1.719792 -1.719791 z m 3.386666,2.46062 0.3175,-0.3175 v -0.59923 -0.59923 l -0.511773,-0.2739 -0.511773,-0.27389 h -0.943435 -0.943435 v 1.19063 1.19062 h 1.137708 1.137708 z m -0.264583,-3.175 0.3175,-0.3175 v -0.38927 -0.38927 l -0.437883,-0.48385 -0.437882,-0.48386 H 19.2257 18.340666 v 1.19063 1.19062 h 1.005416 1.005417 z m 3.161771,4.00048 -0.463021,-0.26969 v -0.38373 -0.38372 h 0.381259 0.381262 l 0.163521,0.26458 0.16352,0.26458 h 0.927823 0.927819 l 0.511773,-0.27389 0.511773,-0.27389 v -0.90743 -0.90742 l -0.511773,-0.27389 -0.511773,-0.27389 h -0.54656 -0.546561 l 0.01074,-0.33073 0.01074,-0.33073 0.792842,-0.92604 0.79284,-0.92605 -1.729634,-0.0782 -1.729637,-0.0782 v -0.38478 -0.38479 h 2.38125 2.38125 l -0.01074,0.33073 -0.01074,0.33073 -0.79002,0.92446 -0.790016,0.92445 0.47004,0.3233 0.470043,0.32328 0.330729,0.28404 0.330729,0.28404 -0.004,1.11405 -0.004,1.11405 -0.194384,0.29112 -0.194387,0.29112 -0.577919,0.30419 -0.577919,0.30419 -1.141872,-0.008 -1.141873,-0.008 -0.463021,-0.26969 z M 9.3909517,222.95024 8.8156655,222.33787 v -0.92901 -0.92902 l 0.6123649,-0.57528 0.6123646,-0.57529 h 0.929016 0.929013 l 0.575289,0.61236 0.575286,0.61237 v 0.92901 0.92902 l -0.612365,0.57529 -0.612365,0.57528 H 10.895254 9.9662406 Z m 70.1145843,0 -0.575286,-0.61237 v -0.92901 -0.92902 l 0.612365,-0.57528 0.612365,-0.57529 h 0.929015 0.929013 l 0.575289,0.61236 0.575286,0.61237 v 0.92901 0.92902 l -0.612365,0.57529 -0.612364,0.57528 h -0.929016 -0.929013 z m 123.894034,22.1759 0.87338,-0.92604 h 0.86355 0.86355 l 0.87339,0.92604 0.87336,0.92605 h 8.08755 8.08757 v -3.15398 -3.15398 l 0.73284,-0.16096 0.73287,-0.16096 0.75843,-0.60476 0.75843,-0.60476 V 237.0914 235.97 l -0.73472,-0.76688 -0.73473,-0.76689 -0.75655,-0.16617 -0.75657,-0.16617 v -0.34278 -0.34278 l 0.7276,-0.15458 0.72761,-0.15458 0.76369,-0.62319 0.76367,-0.62319 V 230.7414 229.62 l -0.71956,-0.75108 -0.71959,-0.75107 -0.77171,-0.15434 -0.77171,-0.15435 v -0.37404 -0.37404 l 0.88373,-0.16579 0.88371,-0.16579 0.60756,-0.64672 0.60757,-0.64672 v -1.11759 -1.11759 l -0.834,-0.74518 -0.83402,-0.74518 h -0.67667 -0.67667 l 0.0878,-0.46302 0.0878,-0.46302 0.68935,-0.0803 0.68935,-0.0803 0.73353,-0.76564 0.73353,-0.76564 v -1.08303 -1.08303 l -0.60757,-0.64672 -0.60756,-0.64672 -0.88371,-0.16578 -0.88373,-0.16579 -1.9e-4,-8.63566 -2.1e-4,-8.63566 -2.51333,-0.91284 -2.51335,-0.91284 v -0.28778 -0.28778 l 3.9026,-1.42613 3.9026,-1.42612 0.72009,-0.2963 0.72009,-0.2963 -4.62269,-1.6973 -4.62269,-1.69729 v -0.301 -0.30101 l 4.61142,-1.8423 4.61139,-1.84229 -4.61139,-1.69316 -4.61142,-1.69316 v -0.28432 -0.28431 l 4.64341,-1.70491 4.64343,-1.70491 -2.12989,-0.79286 -2.12987,-0.79286 v -2.67541 -2.67542 l -0.67371,-0.30697 -0.67371,-0.30696 -0.45077,-0.79216 -0.45077,-0.79217 -16.42785,-0.002 -16.42784,-0.002 -0.29499,0.64747 -0.29501,0.64746 -0.67352,0.4413 -0.6735,0.4413 v 7.57333 7.57334 l 4.30239,-4.29647 4.30242,-4.29648 h 0.32779 0.32782 v 0.32798 0.32797 l -4.56123,4.56682 -4.56123,4.56682 4.56123,4.56682 4.56123,4.56682 v 0.32797 0.32797 h -0.32782 -0.32779 l -4.30242,-4.29647 -4.30239,-4.29647 v 13.37144 13.37145 l 0.91803,0.33196 0.91802,0.33197 0.53023,0.67407 0.53022,0.67407 0.16547,0.88195 0.16545,0.88196 -0.29848,0.90438 -0.29845,0.90438 -0.64334,0.60437 -0.6433,0.60436 0.64463,0.50707 0.64463,0.50707 0.31282,1.04414 0.31284,1.04413 -0.31284,1.04414 -0.31282,1.04414 -0.64463,0.50707 -0.64463,0.50707 0.65542,0.61576 0.65545,0.61576 0.28533,0.95234 0.28533,0.95234 -0.30015,1.11473 -0.30016,1.11474 -0.65151,0.42688 -0.65151,0.42688 0.76885,0.87568 0.76885,0.87567 0.17378,0.79126 0.1738,0.79126 -0.28736,1.06717 -0.28736,1.06717 -0.72099,0.50776 -0.72099,0.50776 -0.59532,0.18483 -0.59531,0.18484 v 2.76029 2.7603 h 7.82299 7.82296 l 0.87337,-0.92604 z m -9.11099,-17.99166 v -3.57188 h 0.39688 0.39687 v 3.175 3.175 h 1.45521 1.45521 v 0.39688 0.39687 h -1.85208 -1.85209 z m 5.02709,0 v -3.57188 h 1.57678 1.57681 l 0.67215,0.7249 0.67218,0.7249 v 0.69168 0.69167 l -0.64884,0.70009 -0.64881,0.7001 h -1.20328 -1.20324 v 1.4552 1.45521 h -0.39688 -0.39687 z m 3.32364,-0.67954 0.49527,-0.54725 -0.39653,-0.70952 -0.39653,-0.70953 -1.11604,-0.0814 -1.11606,-0.0813 v 1.33813 1.33813 h 1.01732 1.01732 z m 2.76178,3.85454 v -0.39688 h 0.79375 0.79375 v -2.12597 -2.12598 l -0.51179,0.27389 -0.51176,0.2739 h -0.28199 -0.28196 v -0.29265 -0.29266 l 0.64582,-0.508 0.64582,-0.508 0.16576,-0.52226 0.16576,-0.52227 h 0.37904 0.37905 v 3.175 3.175 h 0.92604 0.92604 v 0.39688 0.39687 h -2.11667 -2.11666 z m -17.52865,-23.7014 -0.46302,-0.26969 v -0.38373 -0.38372 h 0.38126 0.38127 l 0.16351,0.26458 0.16351,0.26458 h 0.98981 0.9898 l 0.3175,-0.3175 0.3175,-0.3175 v -0.83211 -0.83212 l -0.48384,-0.43788 -0.48387,-0.43789 h -0.57446 -0.57449 v -0.31813 -0.31813 l 0.84566,-0.87249 0.84563,-0.8725 h -1.63938 -1.63941 v -0.39687 -0.39688 h 2.24896 2.24895 v 0.34738 0.34737 l -0.75808,0.72628 -0.75806,0.72628 0.75806,0.75808 0.75808,0.75807 v 1.21098 1.21098 l -0.52916,0.52917 -0.52917,0.52916 -1.25677,-0.008 -1.25677,-0.008 -0.46302,-0.26969 z m 5.62239,-0.1111 v -0.39688 h 0.92605 0.92604 v -2.1029 -2.1029 l -0.80725,0.28141 -0.80727,0.28141 -0.15062,-0.15062 -0.15063,-0.15063 0.9579,-0.90339 0.95787,-0.9034 v -0.29949 -0.29949 h 0.39687 0.39688 v 3.175 3.175 h 0.92604 0.92604 v 0.39688 0.39687 h -2.24896 -2.24896 z m 6.87917,-20.37292 v -3.57187 h 1.41658 1.41658 l 0.70009,0.64882 0.70009,0.64883 -0.004,0.60794 -0.004,0.60795 -0.24072,0.38043 -0.24072,0.38044 0.37706,0.53833 0.37706,0.53833 v 0.86717 0.86717 l -0.52917,0.52917 -0.52917,0.52917 h -1.71979 -1.71979 v -3.57188 z m 3.38667,2.46063 0.3175,-0.3175 v -0.59924 -0.59923 l -0.51179,-0.27389 -0.51175,-0.27389 h -0.94345 -0.94343 v 1.19062 1.19063 h 1.13771 1.13771 z m -0.16402,-3.51789 0.30089,-0.66038 -0.47985,-0.53024 -0.47988,-0.53024 h -0.88503 -0.88503 v 1.19062 1.19063 h 1.064 1.06402 z m 3.45808,4.37069 -0.59531,-0.25367 v -0.4054 -0.4054 h 0.38126 0.38127 l 0.16351,0.26458 0.16351,0.26459 h 0.98981 0.98981 l 0.3175,-0.3175 0.3175,-0.3175 v -0.83212 -0.83212 l -0.48385,-0.43788 -0.48387,-0.43788 h -0.67437 -0.67437 l -0.32938,0.39687 -0.32938,0.39688 h -0.36446 -0.36449 l 0.003,-0.59532 0.003,-0.59531 0.16685,-1.38906 0.16684,-1.38906 h 1.94752 1.94752 v 0.39687 0.39688 h -1.5875 -1.5875 v 0.50752 0.50753 l -0.13608,0.35457 -0.13604,0.35458 1.13233,-0.0901 1.13234,-0.0901 0.72353,0.67053 0.7235,0.67053 v 1.15269 1.15269 l -0.35245,0.48202 -0.35248,0.48201 -1.30116,0.0953 -1.3012,0.0953 -0.59531,-0.25367 z m -14.83669,-1.41225 -0.57529,-0.61237 v -0.92901 -0.92902 l 0.61238,-0.57528 0.61235,-0.57529 h 0.92901 0.92903 l 0.57528,0.61236 0.57528,0.61237 v 0.92901 0.92902 l -0.61237,0.57529 -0.61235,0.57528 h -0.92901 -0.92903 z m -295.79944,-1.7033 2.50469,-2.84483 -2.49566,-2.97601 -2.49566,-2.976 h -6.05815 -6.05816 v 5.82084 5.82083 h 6.04913 6.04912 z m -9.57585,-2.84371 v -3.57188 h 1.34031 1.34031 l 0.50039,0.2678 0.50038,0.2678 0.1679,0.89497 0.16789,0.89496 -0.28028,0.52373 -0.28029,0.52372 0.52065,0.47119 0.52065,0.47118 v 0.71411 0.7141 l -0.64882,0.7001 -0.64883,0.70009 h -1.60013 -1.60013 z m 3.22031,2.34024 0.48385,-0.43788 v -0.26889 -0.26889 l -0.43788,-0.48385 -0.43788,-0.48386 h -1.01733 -1.01732 v 1.19063 1.19062 h 0.97135 0.97136 z m -0.52917,-3.175 0.48386,-0.43788 v -0.43525 -0.43524 l -0.3175,-0.3175 -0.3175,-0.3175 h -0.87313 -0.87312 v 1.19063 1.19062 h 0.70677 0.70677 z m 394.11409,-12.06285 2.63126,-2.97574 -2.63052,-2.97739 -2.63051,-2.97739 h -6.19085 -6.19086 v 5.95313 5.95312 h 6.19012 6.19011 z m -7.69763,0.99136 -0.39687,-0.39688 h -0.97028 -0.97026 l -0.74387,-0.43941 -0.74385,-0.43941 -0.15687,-0.78428 -0.15685,-0.78429 v -0.99219 -0.99219 l 0.15685,-0.78429 0.15687,-0.78428 0.74385,-0.43941 0.74387,-0.43941 h 0.92205 0.92205 l 0.58446,0.47326 0.58447,0.47327 0.1371,1.70954 0.13714,1.70955 -0.29448,1.05833 -0.29451,1.05834 0.39597,0.29375 0.39598,0.29375 v 0.30156 0.30156 h -0.37798 -0.37796 z m -1.49301,-1.45521 -0.39688,-0.25648 -0.46302,-0.004 -0.46302,-0.004 v -0.39688 -0.39687 h 0.60259 0.60259 l 0.61682,0.43204 0.61685,0.43205 0.23172,-0.3659 0.23175,-0.3659 0.004,-1.46248 0.004,-1.46249 -0.41188,-0.58803 -0.41188,-0.58804 h -0.77874 -0.77875 l -0.52917,0.52916 -0.52917,0.52917 v 1.5875 1.5875 l 0.52917,0.52917 0.52917,0.52916 0.59531,-0.004 0.59531,-0.004 z M 1.5231879,150.65785 l 0.4412985,-0.67351 0.6474645,-0.295 0.6474646,-0.29501 v -17.21867 -17.21868 l -4.4346073,4.42885 -4.4346072,4.42886 h -0.3278928 -0.3278929 v -0.32798 -0.32796 l 4.5612263,-4.56683 4.5612288,-4.56682 -4.5612288,-4.56682 -4.5612263,-4.56682 v -0.32797 -0.32797 h 0.3278929 0.3278928 l 4.4346072,4.42885 4.4346073,4.42886 V 95.87455 78.655877 L 2.5857016,78.348913 1.9119878,78.041948 1.4612224,77.249782 1.0104571,76.457617 l -24.3653421,-0.0017 -24.365344,-0.0017 -0.295006,0.647465 -0.295005,0.647464 -0.673505,0.441299 -0.673507,0.441298 1.93e-4,2.416966 1.93e-4,2.416966 2.513349,0.912839 2.513348,0.912839 v 0.287652 0.287653 l -4.654708,1.709055 -4.654709,1.709055 1.281271,0.589306 1.281271,0.589306 3.373438,1.258705 3.373437,1.258708 v 0.279392 0.279389 l -4.622689,1.697297 -4.622686,1.697297 0.720082,0.296301 0.720085,0.296299 3.902604,1.426123 3.902604,1.426129 v 0.30113 0.30113 l -4.614198,1.84341 -4.614199,1.84342 2.100657,0.76381 2.100657,0.76381 v 6.80456 6.80456 l 0.880293,0.29052 0.88029,0.29052 0.641064,0.85448 0.641061,0.85448 -0.0093,1.52467 -0.0093,1.52468 -0.714129,0.71412 -0.714126,0.71413 0.72346,0.75513 0.723464,0.75514 v 1.68504 1.68505 l -0.723464,0.75513 -0.72346,0.75513 0.714126,0.71413 0.714129,0.71413 0.0093,1.53005 0.0093,1.53005 -0.717147,0.9171 -0.717151,0.9171 0.717151,0.74854 0.717147,0.74855 v 1.50398 1.50398 l -0.642792,0.85681 -0.642789,0.85682 -0.878565,0.16481 -0.878562,0.16482 v 2.74868 2.74868 H -24.287681 1.0818893 Z M -42.248919,132.67823 v -3.57188 h 0.396875 0.396875 v 3.175 3.175 h 1.455209 1.455208 v 0.39688 0.39687 h -1.852083 -1.852084 z m 5.027084,-0.0299 v -3.60173 l 1.880928,0.10628 1.880928,0.10628 0.36803,0.50331 0.368031,0.50332 v 0.76057 0.76057 l -0.273892,0.51178 -0.273894,0.51177 h -0.371951 -0.371951 l -0.162148,0.26236 -0.162147,0.26236 0.807993,1.17437 0.80799,1.17438 v 0.28306 0.28305 l -0.33073,-0.002 -0.330729,-0.002 -1.021315,-1.58519 -1.021313,-1.58518 h -0.500041 -0.500039 v 1.5875 1.5875 h -0.396875 -0.396875 v -3.60173 z m 3.386667,-0.68452 0.3175,-0.3175 v -0.55562 -0.55563 l -0.3175,-0.3175 -0.3175,-0.3175 h -1.137709 -1.137708 v 1.19063 1.19062 h 1.137708 1.137709 z m 3.16177,4.10387 -0.46302,-0.121 v -0.36501 -0.36501 l 1.326975,0.15716 1.326973,0.15716 0.52511,-0.47521 0.525108,-0.47522 v -0.31486 -0.31486 l -0.463021,-0.40444 -0.46302,-0.40443 -1.058334,-0.32722 -1.058333,-0.32723 -0.330729,-0.41825 -0.330729,-0.41825 v -0.69261 -0.69261 l 0.331597,-0.45349 0.331597,-0.45349 0.976534,-0.15847 0.976535,-0.15847 0.940827,0.17651 0.940826,0.1765 v 0.36471 0.36471 l -1.6179,-0.046 -1.617901,-0.046 -0.298974,0.46302 -0.298976,0.46302 0.277137,0.43935 0.277138,0.43935 1.231056,0.35896 1.231056,0.35896 0.408684,0.58348 0.40868,0.58347 v 0.61462 0.61461 l -0.649433,0.64943 -0.64943,0.64943 -1.136507,-0.0307 -1.136505,-0.0307 z m 5.622396,-0.21449 v -0.39688 h 0.926042 0.926042 v -2.43114 -2.43114 l -0.539475,0.57906 -0.539472,0.57906 h -0.38657 -0.386567 v -0.22056 -0.22056 l 1.017691,-1.10236 1.017691,-1.10236 h 0.305226 0.305226 v 3.175 3.175 h 0.79375 0.79375 v 0.39688 0.39687 h -2.116667 -2.116667 z M -5.6902985,115.52937 -6.2655847,114.917 v -0.92901 -0.92902 l 0.6123649,-0.57529 0.6123649,-0.57528 h 0.9290156 0.929013 l 0.5752888,0.61236 0.5752862,0.61237 v 0.92901 0.92902 l -0.6123649,0.57528 -0.6123649,0.57529 H -4.1859967 -5.1150096 Z M -42.248919,94.842812 v -3.571875 h 1.472603 1.472602 l 0.577918,0.304192 0.577919,0.304194 0.194387,0.291118 0.194384,0.291121 0.004,0.849464 0.004,0.849466 -0.330729,0.284038 -0.330729,0.284038 -0.50338,0.347668 -0.503378,0.347665 0.834107,1.212337 0.834109,1.212334 v 0.283059 0.283056 l -0.330729,-0.0024 -0.330729,-0.0024 -1.021316,-1.585188 -1.021312,-1.585185 h -0.500042 -0.500038 v 1.5875 1.5875 h -0.396875 -0.396875 v -3.571875 z m 3.192394,-0.670766 0.511773,-0.273894 v -0.64284 -0.642839 l -0.511773,-0.273894 -0.511773,-0.273892 h -0.943435 -0.943436 v 1.190625 1.190625 h 0.943436 0.943435 z m 3.356044,4.060256 -0.463021,-0.120999 v -0.358357 -0.358357 l 1.444517,0.149087 1.444519,0.149088 0.302495,-0.663903 0.302493,-0.663903 -0.283133,-0.529043 -0.283136,-0.529042 -1.190892,-0.299871 -1.19089,-0.299868 -0.272986,-0.51008 -0.272987,-0.510079 v -0.678852 -0.678852 l 0.529167,-0.529167 0.529167,-0.529167 0.992187,0.0036 0.992188,0.0036 0.595312,0.159538 0.595313,0.159536 v 0.33056 0.33056 l -1.486419,-0.03069 -1.486416,-0.03069 -0.298167,0.463021 -0.298167,0.463021 0.291521,0.462158 0.291523,0.462158 1.19934,0.338741 1.199341,0.338741 0.323694,0.781465 0.323694,0.781465 -0.162661,0.648092 -0.16266,0.648094 -0.415378,0.415375 -0.415377,0.415377 -1.10558,-0.03069 -1.10558,-0.03069 -0.463021,-0.121002 z m 5.357813,-0.21449 v -0.396875 h 0.926041 0.926042 v -2.236652 -2.236653 l -0.776669,0.445746 -0.776671,0.445749 -0.175829,-0.175831 -0.175831,-0.175832 0.9525,-0.9525 0.9525,-0.9525 v -0.255762 -0.255765 h 0.396875 0.396875 v 3.175 3.175 h 0.926042 0.926041 v 0.396875 0.396875 h -2.248958 -2.248958 z m 116.797107,52.640038 0.441299,-0.67351 0.647464,-0.295 0.647465,-0.29501 v -17.08629 -17.0863 l -4.302401,4.29648 -4.302397,4.29647 H 79.258058 78.93025 v -0.32798 -0.32796 l 4.561226,-4.56683 4.561229,-4.56682 -4.561229,-4.56682 -4.561226,-4.56682 v -0.32797 -0.32797 h 0.327808 0.327811 l 4.302397,4.29647 4.302401,4.29647 V 94.641367 76.454271 H 83.553844 78.917021 L 78.757234,75.65534 78.597449,74.856409 77.817508,74.200132 77.037566,73.543854 h -1.002353 -1.00235 l -0.687303,0.540632 -0.6873,0.540631 -0.171577,0.914577 -0.171574,0.914577 H 72.9687 72.622295 L 72.44953,75.667673 72.276762,74.881076 71.482165,74.212465 70.687566,73.543854 H 69.6369 68.586232 l -0.667112,0.719827 -0.667113,0.719827 -0.147077,0.735382 -0.147076,0.735381 H 66.615076 66.272295 L 66.109692,75.713946 65.94709,74.973621 65.284213,74.258738 64.621334,73.543854 h -1.169209 -1.16921 l -0.662879,0.714884 -0.662877,0.714883 -0.162602,0.740325 -0.162602,0.740325 H 60.289174 59.946395 L 59.799319,75.71889 59.652242,74.983508 58.98513,74.263681 58.318017,73.543854 h -1.050668 -1.050666 l -0.794599,0.668611 -0.794597,0.668611 -0.172767,0.786597 -0.172765,0.786598 -6.924292,1.93e-4 -6.924289,1.94e-4 -0.912839,2.513348 -0.912839,2.513348 h -0.282728 -0.282726 l -1.258707,-3.373437 -1.258705,-3.373438 -0.589307,-1.281271 -0.589306,-1.281271 -1.709055,4.654709 -1.709055,4.654708 h -0.284316 -0.284316 l -1.693159,-4.611413 -1.693156,-4.611414 -1.842299,4.611414 -1.842299,4.611413 h -0.301003 -0.301001 l -1.704911,-4.643422 -1.704909,-4.643423 -0.792856,2.129881 -0.792858,2.129881 H 11.840607 5.990188 L 5.6951829,77.101736 5.4001778,77.7492 4.7266729,78.190499 4.0531655,78.631797 v 17.098333 17.09833 l 4.3024002,-4.29647 4.3023973,-4.29647 h 0.327811 0.327808 v 0.32797 0.32797 l -4.561226,4.56682 -4.5612288,4.56682 4.5612288,4.56682 4.561226,4.56683 v 0.32796 0.32798 h -0.327808 -0.327811 l -4.3023973,-4.29647 -4.3024002,-4.29648 v 16.99648 16.99647 l 0.9921875,1.03628 0.9921875,1.03629 39.9878005,0.022 39.9878,0.022 0.441298,-0.6735 z M 17.546916,113.62823 v -3.57188 h 1.467233 1.467237 l 0.64943,0.64944 0.649433,0.64943 -0.004,0.60734 -0.004,0.60734 -0.240718,0.38043 -0.240721,0.38043 0.377063,0.53834 0.377063,0.53833 v 0.86717 0.86717 l -0.529166,0.52917 -0.529167,0.52916 H 19.266811 17.54702 v -3.57187 z m 3.386666,2.46062 0.3175,-0.3175 v -0.59923 -0.59923 l -0.511773,-0.27389 -0.511773,-0.2739 h -0.943435 -0.943435 v 1.19063 1.19062 h 1.137708 1.137708 z m -0.193754,-3.42013 0.301112,-0.56264 -0.286131,-0.62798 -0.286131,-0.628 h -1.064006 -1.064006 v 1.19063 1.19062 h 1.049025 1.049023 z m 2.892504,4.13451 v -0.39688 h 0.926042 0.926042 v -2.26396 -2.26396 l -0.588039,0.41188 -0.588037,0.41188 h -0.338005 -0.338003 v -0.35441 -0.3544 l 0.665356,-0.30316 0.665356,-0.30315 0.303154,-0.66536 0.303157,-0.66536 h 0.354407 0.354404 v 3.175 3.175 h 0.926041 0.926042 v 0.39688 0.39687 H 25.881291 23.632332 Z M 9.3909517,115.52941 8.8156655,114.91704 v -0.92901 -0.92902 l 0.6123649,-0.57529 0.6123646,-0.57528 h 0.929016 0.929013 l 0.575289,0.61236 0.575286,0.61237 v 0.92901 0.92902 l -0.612365,0.57528 -0.612365,0.57529 H 10.895254 9.9662406 Z m 70.1145843,0 -0.575286,-0.61237 v -0.92901 -0.92902 l 0.612365,-0.57529 0.612365,-0.57528 h 0.929015 0.929013 l 0.575289,0.61236 0.575286,0.61237 v 0.92901 0.92902 l -0.612365,0.57528 -0.612364,0.57529 h -0.929016 -0.929013 z m 110.604514,25.75248 1.69801,-0.52447 1.52869,-1.09466 1.52865,-1.09466 1.16398,-1.58114 1.16396,-1.58114 0.532,-1.72239 0.532,-1.7224 v -2.06093 -2.06092 l -0.532,-1.7224 -0.532,-1.72239 -1.16396,-1.58115 -1.16398,-1.58114 -1.52865,-1.09466 -1.52869,-1.09465 -1.69801,-0.52447 -1.69805,-0.52447 h -2.06092 -2.06091 l -1.69805,0.52447 -1.69801,0.52447 -1.52869,1.09465 -1.52865,1.09466 -1.16398,1.58114 -1.16396,1.58115 -0.532,1.72239 -0.532,1.7224 v 2.06092 2.06093 l 0.532,1.7224 0.532,1.72239 1.15051,1.56287 1.15052,1.56286 1.41922,1.04181 1.41923,1.04181 1.72691,0.58876 1.72691,0.58876 2.15495,0.007 2.15492,0.007 1.69805,-0.52447 z m -5.55255,-6.42797 -1.646,-1.66076 v -0.32361 -0.32361 h 0.32166 0.32162 l 1.26588,1.24682 1.26584,1.24683 v -6.00933 -6.00932 h 0.39688 0.39687 v 6.00932 6.00933 l 1.26585,-1.24683 1.26587,-1.24682 h 0.32163 0.32165 v 0.33837 0.33837 l -1.66076,1.646 -1.66076,1.64601 h -0.26512 -0.26511 z m 7.08525,-37.039509 v -0.07111 l -2.58453,-2.57484 -2.58455,-2.574838 -2.63602,2.645947 -2.63602,2.64595 h 5.22057 5.22055 z m -295.21512,-18.779892 2.49566,-2.976002 -2.50469,-2.844831 -2.50469,-2.844832 h -5.65225 -5.65225 v 5.820834 5.820833 h 5.66128 5.66128 z m -9.58786,0.660898 -0.003,-0.198438 1.11983,-3.373437 1.11984,-3.373438 h 0.27982 0.27981 l 1.11984,3.373438 1.11984,3.373437 -0.003,0.198438 -0.003,0.198437 h -0.3586 -0.3586 l -0.24662,-0.859896 -0.24661,-0.859895 h -1.30311 -1.30311 l -0.24662,0.859895 -0.24661,0.859896 h -0.3586 -0.3586 l -0.003,-0.198437 z m 3.2903,-3.042708 -0.18791,-0.595313 -0.30768,-0.891702 -0.30766,-0.891701 -0.33487,1.117679 -0.33486,1.117678 -0.14173,0.369336 -0.14173,0.369335 h 0.97218 0.97218 z M 232.124,227.13448 v -3.57188 h 0.39688 0.39687 v 3.175 3.175 h 1.45521 1.45521 v 0.39688 0.39687 h -1.85208 -1.85209 z m 5.02709,0 v -3.57188 h 1.57678 1.57681 l 0.67215,0.7249 0.67217,0.7249 v 0.70996 0.70995 l -0.78562,0.78563 -0.78563,0.78562 0.78563,1.08452 0.78562,1.08452 v 0.26688 0.26687 l -0.33073,-0.003 -0.33073,-0.003 -1.00806,-1.45208 -1.00806,-1.45207 h -0.51329 -0.51329 v 1.45521 1.45521 h -0.39688 -0.39687 v -3.57188 z m 3.32364,-0.67954 0.49527,-0.54725 -0.39653,-0.70952 -0.39653,-0.70953 -1.11604,-0.0814 -1.11606,-0.0813 v 1.33813 1.33813 h 1.01732 1.01732 z m 3.02636,0.67954 v -3.57188 h 1.43631 1.43629 l 0.4154,0.41538 0.41537,0.41537 0.16626,0.66247 0.16627,0.66247 -0.26792,0.588 -0.26789,0.58801 0.36661,0.50139 0.36663,0.50139 v 0.87547 0.87547 l -0.52917,0.52917 -0.52916,0.52916 h -1.5875 -1.5875 z m 3.12208,2.46062 0.3175,-0.3175 v -0.55562 -0.55563 l -0.3175,-0.3175 -0.3175,-0.3175 h -1.00542 -1.00541 v 1.19063 1.19062 h 1.00541 1.00542 z m -0.19376,-3.42013 0.30113,-0.56264 -0.28615,-0.62799 -0.28612,-0.62799 h -0.93173 -0.9317 v 1.19063 1.19062 h 0.91672 0.91673 z m 2.89251,4.13451 v -0.39688 h 0.92604 0.92604 v -2.1029 -2.1029 l -0.80724,0.28141 -0.80727,0.28141 -0.15063,-0.15062 -0.15063,-0.15063 0.9579,-0.90339 0.95787,-0.9034 v -0.29949 -0.29949 h 0.39688 0.39687 v 3.175 3.175 h 0.92604 0.92605 v 0.39688 0.39687 h -2.24896 -2.24896 z m -146.57917,-9.525 v -3.57188 h 1.37458 1.37459 l 0.74208,0.71096 0.74208,0.71096 v 0.48326 0.48325 l -0.31102,0.49803 -0.31103,0.49804 0.44332,0.44331 0.44332,0.44332 -0.004,0.841 -0.004,0.841 -0.19438,0.29112 -0.19439,0.29112 -0.57792,0.30419 -0.57792,0.30419 h -1.4726 -1.4726 v -3.57187 z m 3.19239,2.50423 0.51178,-0.27389 v -0.64284 -0.64284 l -0.51178,-0.2739 -0.51177,-0.27389 h -0.94343 -0.94344 v 1.19063 1.19062 h 0.94344 0.94343 z m -0.14717,-3.43305 0.4814,-0.53194 -0.61881,-0.65868 -0.6188,-0.65869 h -0.74763 -0.74763 v 1.19063 1.19062 h 0.88503 0.88504 z m 5.95061,3.44236 v -1.05833 h -1.4552 -1.45521 v -0.27859 -0.27859 l 0.70862,-2.36725 0.70862,-2.36724 h 0.34971 0.34971 l -0.003,0.33073 -0.003,0.33073 -0.52576,1.67721 -0.52575,1.67722 v 0.24101 0.24102 h 0.92604 0.92604 v -1.05834 -1.05833 h 0.39688 0.39687 v 1.05833 1.05834 h 0.52917 0.52917 v 0.39687 0.39688 h -0.52917 -0.52917 v 1.05833 1.05833 h -0.39687 -0.39688 z M 94.586786,222.95024 94.0115,222.33787 v -0.92901 -0.92902 l 0.612365,-0.57528 0.612365,-0.57529 h 0.929016 0.929012 l 0.575289,0.61236 0.575287,0.61237 v 0.92901 0.92902 l -0.612365,0.57529 -0.612365,0.57528 h -0.929016 -0.929013 z m 130.885804,-16.56278 -0.62463,-0.50639 0.19733,-0.19805 0.1973,-0.19804 0.67503,0.30756 0.67503,0.30756 h 0.86069 0.86066 l 0.3175,-0.3175 0.3175,-0.3175 v -0.83211 -0.83212 l -0.48384,-0.43788 -0.48387,-0.43789 h -0.57446 -0.57449 v -0.31813 -0.31813 l 0.84566,-0.87249 0.84563,-0.8725 h -1.77167 -1.77171 v -0.39687 -0.39688 h 2.38125 2.38125 v 0.34738 0.34737 l -0.75808,0.72628 -0.75806,0.72628 0.75806,0.75808 0.75808,0.75807 v 1.21098 1.21098 l -0.52916,0.52917 -0.52917,0.52916 h -1.2936 -1.2936 z m 5.59308,0.26665 v -0.23975 l 1.85981,-1.7955 1.85981,-1.79549 0.14705,-0.58595 0.14708,-0.58595 -0.29641,-0.55381 -0.29638,-0.55381 h -1.01661 -1.01664 l -0.32938,0.39688 -0.32938,0.39687 h -0.23217 -0.2322 v -0.38187 -0.38187 l 0.58804,-0.41188 0.58804,-0.41188 h 1.0115 1.01147 l 0.68157,0.68157 0.68157,0.68158 -0.13208,0.98477 -0.13208,0.98478 -1.55372,1.50332 -1.55368,1.50332 1.65364,0.005 1.65365,0.005 v 0.39687 0.39688 h -2.38125 -2.38125 v -0.23975 z m 7.14375,-20.53005 v -3.57187 h 1.70058 1.70058 l 0.54838,0.69714 0.54838,0.69714 -0.0185,0.69192 -0.0185,0.69192 -0.19335,0.49169 -0.19336,0.4917 -0.59074,0.31615 -0.59073,0.31616 0.80269,1.10809 0.80269,1.10809 v 0.26687 0.26688 l -0.33072,-0.003 -0.33073,-0.003 -1.00807,-1.45207 -1.00806,-1.45208 h -0.51329 -0.51329 v 1.45521 1.45521 h -0.39688 -0.39687 v -3.57188 z m 3.38667,-0.44979 0.3175,-0.3175 v -0.52156 -0.52157 l -0.43789,-0.48385 -0.43789,-0.48385 h -1.01732 -1.01732 v 1.32291 1.32292 h 1.13771 1.13771 z m 2.96333,0.47965 v -3.60173 h 1.41658 1.41658 l 0.70008,0.64882 0.70009,0.64883 -0.004,0.60794 -0.004,0.60795 -0.24071,0.38043 -0.24072,0.38044 0.37706,0.53833 0.37705,0.53833 v 0.8166 0.8166 l -0.36803,0.50331 -0.36804,0.50332 -1.88092,0.10628 -1.88092,0.10628 v -3.60173 z m 3.38667,2.43077 0.3175,-0.3175 v -0.59924 -0.59923 l -0.51179,-0.27389 -0.51175,-0.27389 h -0.94346 -0.94342 v 1.19062 1.19063 h 1.13771 1.13771 z m -0.16402,-3.51789 0.30088,-0.66038 -0.47984,-0.53024 -0.47988,-0.53024 h -0.88503 -0.88503 v 1.19062 1.19063 h 1.06399 1.06403 z m 2.86277,4.23226 v -0.39687 h 0.92604 0.92604 v -2.26396 -2.26397 l -0.58804,0.41188 -0.58803,0.41188 h -0.33801 -0.338 v -0.3544 -0.35441 l 0.66534,-0.30316 0.66538,-0.30315 0.30313,-0.66536 0.30316,-0.66535 h 0.35441 0.35441 v 3.175 3.175 h 0.92604 0.92604 v 0.39687 0.39688 h -2.24896 -2.24895 z m -73.50806,-1.27382 -0.57528,-0.61237 v -0.92901 -0.92902 l 0.61238,-0.57528 0.61235,-0.57529 h 0.92901 0.92903 l 0.57528,0.61236 0.57528,0.61237 v 0.92901 0.92902 l -0.61237,0.57529 -0.61236,0.57528 h -0.929 -0.92903 z m -165.421263,-6.80654 -0.539734,-0.53973 -0.254016,-0.66811 -0.254018,-0.66812 v -1.24368 -1.24367 l 0.492778,-0.92191 0.492779,-0.92192 0.687186,-0.24576 0.687187,-0.24577 0.685866,0.3125 0.685866,0.31251 0.383127,0.91695 0.383128,0.91695 v 1.20762 1.20762 l -0.374476,0.89625 -0.374475,0.89625 -0.534173,0.28588 -0.534172,0.28588 h -0.546561 -0.54656 z m 1.863934,-0.51929 0.495663,-0.26527 0.175252,-1.16866 0.175252,-1.16865 -0.185378,-1.09724 -0.185375,-1.09724 -0.64644,-0.29454 -0.646441,-0.29453 -0.584097,0.58409 -0.584096,0.5841 v 1.68466 1.68467 l 0.504028,0.55694 0.504029,0.55695 h 0.240969 0.240969 z m 75.934132,0.72167 v -0.33735 l 1.984375,-1.97113 1.984375,-1.97113 v -0.54902 -0.54901 l -0.3175,-0.3175 -0.3175,-0.3175 h -0.876715 -0.876715 l -0.513543,0.32071 -0.513543,0.32071 -0.177012,-0.17701 -0.177012,-0.17701 0.151072,-0.39369 0.151075,-0.39368 0.939945,-0.17634 0.939948,-0.17633 0.938001,0.17596 0.938004,0.17598 0.271872,0.71337 0.271876,0.71337 -0.157909,0.79251 -0.157911,0.79251 -1.506704,1.52259 -1.506705,1.5226 h 1.645362 1.645364 v 0.39687 0.39688 h -2.38125 -2.38125 z m 6.350001,-0.0595 v -0.39687 h 0.926041 0.926042 v -2.26396 -2.26397 l -0.588039,0.41188 -0.588037,0.41188 h -0.338005 -0.338002 v -0.23346 -0.23345 l 1.089461,-1.08946 1.089459,-1.08946 h 0.233458 0.233455 v 3.175 3.175 h 0.926042 0.926041 v 0.39687 0.39688 H 98.112542 95.863584 Z M -76.380169,170.51364 v -3.57187 h 0.396875 0.396875 v 3.175 3.175 h 1.455208 1.455209 v 0.39687 0.39688 h -1.852084 -1.852083 z m 4.510812,3.24115 0.01289,-0.33073 1.011994,-1.45283 1.011994,-1.45282 -1.02489,-1.50922 -1.02489,-1.50922 v -0.2791 -0.2791 l 0.330729,0.001 0.330729,0.001 0.920261,1.43878 0.920261,1.43879 0.931822,-1.43662 0.931823,-1.43662 0.330729,-0.004 0.33074,-0.003 v 0.2791 0.2791 l -1.02489,1.50922 -1.02489,1.50922 1.011994,1.45282 1.011995,1.45283 0.01288,0.33073 0.01289,0.33073 -0.330729,-0.004 -0.330729,-0.004 -0.931823,-1.43662 -0.931823,-1.43662 -0.920261,1.43879 -0.92026,1.43878 -0.330729,0.001 -0.330729,0.001 0.01288,-0.33073 z m 6.072521,0.02 v -0.3107 l 1.852084,-1.91006 1.852083,-1.91006 v -0.63674 -0.63674 l -0.3175,-0.3175 -0.3175,-0.3175 h -0.857509 -0.857512 l -0.163521,0.26458 -0.16352,0.26458 h -0.381262 -0.381259 v -0.38756 -0.38757 l 0.511773,-0.27389 0.511773,-0.27389 h 1.075727 1.075727 l 0.559885,0.55988 0.559882,0.55988 -0.142957,1.06583 -0.142957,1.06583 -1.533123,1.54929 -1.533123,1.54929 h 1.645362 1.645364 v 0.39687 0.39688 h -2.248958 -2.248959 z m 86.254168,-3.29104 v -3.60173 l 1.880929,0.10628 1.880928,0.10629 0.36803,0.50331 0.36803,0.50331 v 0.76057 0.76058 l -0.273891,0.51177 -0.273894,0.51177 h -0.371952 -0.371951 l -0.162147,0.26236 -0.162147,0.26236 0.807992,1.17438 0.80799,1.17437 v 0.28306 0.28306 l -0.330729,-0.002 -0.330729,-0.002 -1.021316,-1.58518 -1.021313,-1.58519 h -0.500041 -0.500039 v 1.5875 1.5875 h -0.396875 -0.396875 v -3.60173 z m 3.386667,-0.68451 0.3175,-0.3175 v -0.55563 -0.55562 l -0.3175,-0.3175 -0.3175,-0.3175 h -1.137708 -1.137709 v 1.19062 1.19063 h 1.137709 1.137708 z m 2.963333,0.71437 v -3.57187 h 1.084493 1.084493 l 0.897498,0.42589 0.897496,0.42589 0.294241,1.09272 0.29424,1.09273 -0.161213,1.17617 -0.161211,1.17618 -0.409064,0.62431 -0.409065,0.62431 -0.664845,0.25277 -0.664845,0.25278 h -1.041109 -1.041109 z m 2.930443,2.09535 0.641433,-0.68277 v -1.58956 -1.58956 l -0.624624,-0.50579 -0.624625,-0.50579 h -0.764437 -0.76444 v 2.77812 2.77813 h 0.747631 0.747628 z m 2.890391,1.1752 v -0.30133 l 1.984375,-2.07702 1.984375,-2.07702 v -0.35877 -0.35876 l -0.483854,-0.43789 -0.483854,-0.43788 h -0.823447 -0.82345 l -0.16352,0.26458 -0.163521,0.26459 h -0.381261 -0.38126 v -0.38757 -0.38756 l 0.511773,-0.2739 0.511773,-0.27389 h 1.040046 1.040045 l 0.69714,0.54837 0.69714,0.54837 v 0.76959 0.76958 l -1.751841,1.85705 -1.75184,1.85704 h 1.75184 1.751841 v 0.39687 0.39688 h -2.38125 -2.38125 z M 59.0865,170.51364 v -3.57187 h 0.396875 0.396875 v 3.175 3.175 h 1.455208 1.455208 v 0.39687 0.39688 H 60.938583 59.0865 Z m 5.027083,0 v -3.57187 h 1.041109 1.041109 l 0.69074,0.26262 0.690737,0.26262 0.511302,1.12644 0.511299,1.12644 0.0058,0.67566 0.0058,0.67565 -0.670989,1.3465 -0.670988,1.3465 -0.585783,0.15705 -0.585782,0.15704 -0.992187,0.004 -0.992209,0.004 z m 3.132082,1.39911 0.618543,-1.24672 -0.173815,-0.79137 -0.173813,-0.79137 -0.530077,-0.67389 -0.530077,-0.67388 H 65.68188 64.907333 v 2.79489 2.79489 l 0.859896,-0.0829 0.859896,-0.0829 z m 2.688751,1.86207 v -0.3107 l 1.852084,-1.91006 1.852083,-1.91006 v -0.63674 -0.63674 l -0.3175,-0.3175 -0.3175,-0.3175 h -0.857509 -0.857512 l -0.163521,0.26458 -0.16352,0.26459 H 70.580259 70.199 v -0.38757 -0.38756 l 0.511773,-0.2739 0.511773,-0.27389 H 72.298273 73.374 l 0.559885,0.55988 0.559882,0.55989 -0.142957,1.06582 -0.142957,1.06583 -1.533123,1.54929 -1.533123,1.54929 h 1.645362 1.645364 v 0.39687 0.39688 h -2.248958 -2.248959 z m 102.063024,-8.17716 -0.46302,-0.26968 v -0.38373 -0.38373 h 0.38126 0.38127 l 0.16351,0.26458 0.16351,0.26459 h 0.92784 0.92782 l 0.51175,-0.2739 0.51179,-0.27389 v -0.90742 -0.90742 l -0.51179,-0.2739 -0.51175,-0.27389 h -0.54658 -0.54655 l 0.0108,-0.33073 0.0109,-0.33073 0.79282,-0.92604 0.79285,-0.92604 -1.72963,-0.0782 -1.72964,-0.0782 v -0.38479 -0.38478 h 2.38125 2.38125 l -0.0108,0.33073 -0.0109,0.33072 -0.79002,0.92446 -0.79002,0.92446 0.47006,0.32329 0.47003,0.32329 0.33073,0.28404 0.33073,0.28404 -0.004,1.11404 -0.004,1.11405 -0.19439,0.29112 -0.19439,0.29112 -0.57793,0.30419 -0.5779,0.3042 -1.14189,-0.008 -1.14186,-0.008 -0.46302,-0.26968 z m 6.6998,-0.22432 -0.51009,-0.51009 -0.18142,-1.2097 -0.1814,-1.2097 0.17576,-1.172 0.17574,-1.172 0.53496,-0.68008 0.53496,-0.68008 h 0.75533 0.75534 l 0.53496,0.68008 0.53496,0.68008 0.17574,1.172 0.17576,1.172 -0.1814,1.2097 -0.18142,1.2097 -0.5101,0.51009 -0.51009,0.5101 h -0.79375 -0.79375 z m 2.30045,-1.0774 0.34843,-0.66146 -0.0948,-1.53163 -0.0948,-1.53163 -0.57769,-0.57769 -0.5777,-0.57768 -0.59531,0.59531 -0.59531,0.59531 v 1.80407 1.80407 l 0.37372,0.4503 0.37373,0.45031 0.5457,-0.0789 0.54568,-0.0789 z m 64.0909,-12.8323 v -3.57187 h 0.39687 0.39688 v 3.175 3.175 h 1.4552 1.45521 v 0.39687 0.39688 h -1.85208 -1.85208 z m 4.96093,3.2861 -0.46302,-0.26968 v -0.38373 -0.38373 h 0.38127 0.38126 l 0.16351,0.26459 0.16352,0.26458 h 0.9898 0.98981 l 0.3175,-0.3175 0.3175,-0.3175 v -0.83212 -0.83211 l -0.48384,-0.43789 -0.48387,-0.43788 h -0.57447 -0.57449 v -0.31813 -0.31814 l 0.84566,-0.87249 0.84564,-0.87249 h -1.63939 -1.63941 v -0.39688 -0.39687 h 2.24896 2.24896 v 0.34737 0.34738 l -0.75808,0.72628 -0.75806,0.72628 0.75806,0.75808 0.75808,0.75807 v 1.21098 1.21098 l -0.52917,0.52916 -0.52916,0.52917 -1.25678,-0.008 -1.25677,-0.008 -0.46302,-0.26968 z M 203.549,123.15323 v -3.57188 h 0.39688 0.39687 v 3.57188 3.57187 h -0.39687 -0.39688 z m 2.91042,3.175 v -0.39688 h 0.79375 0.79375 v -2.12597 -2.12598 l -0.51179,0.2739 -0.51175,0.27389 h -0.282 -0.28196 v -0.29265 -0.29265 l 0.64582,-0.50801 0.64582,-0.508 0.16576,-0.52226 0.16576,-0.52227 h 0.37905 0.37904 v 3.175 3.175 h 0.92604 0.92604 v 0.39688 0.39687 h -2.11666 -2.11667 z m -103.71667,-12.7 v -3.57188 h 1.4445 1.4445 l 0.67217,0.7249 0.67216,0.7249 v 0.56563 0.56561 l -0.40487,0.33602 -0.40487,0.33601 0.53716,0.50044 0.53717,0.50044 -0.004,0.84959 -0.004,0.84959 -0.19438,0.29112 -0.19439,0.29112 -0.57792,0.30419 -0.57792,0.30419 h -1.4726 -1.4726 v -3.57187 z m 3.19239,2.50423 0.51178,-0.27389 v -0.64284 -0.64284 l -0.51178,-0.27389 -0.51177,-0.2739 h -0.94343 -0.94344 v 1.19063 1.19062 h 0.94344 0.94343 z m -0.11719,-3.57484 0.35739,-0.54143 -0.40838,-0.58305 -0.40838,-0.58304 h -0.91104 -0.91104 v 1.2066 1.2066 l 0.96204,-0.0821 0.96203,-0.0821 z m 2.74563,4.33179 v -0.3107 l 1.85209,-1.91006 1.85208,-1.91006 v -0.44247 -0.44247 l -0.27389,-0.51177 -0.27389,-0.51178 h -0.88434 -0.88434 l -0.32937,0.39688 -0.32938,0.39687 h -0.23219 -0.23218 v -0.37797 -0.37798 l 0.41577,-0.41577 0.41578,-0.41578 h 1.15282 1.15283 l 0.41538,0.41538 0.41537,0.41538 0.16138,0.64295 0.16137,0.64296 -0.17792,0.7276 -0.17792,0.72761 -1.36308,1.38906 -1.36308,1.38906 h 1.51231 1.51232 v 0.39688 0.39687 h -2.24896 -2.24896 z m -13.976794,-1.36 -0.575286,-0.61237 v -0.92901 -0.92902 l 0.612365,-0.57529 0.612365,-0.57528 h 0.929016 0.929012 l 0.575289,0.61236 0.575287,0.61237 v 0.92901 0.92902 l -0.612365,0.57528 -0.612365,0.57529 h -0.929016 -0.929013 z m 84.378134,-26.974352 -0.63928,-0.326829 -0.33277,-0.926041 -0.33277,-0.926042 -0.0201,-1.040945 -0.0201,-1.040942 0.54874,-1.133552 0.54875,-1.133554 0.94657,-0.177578 0.94658,-0.177578 0.66587,0.235408 0.66588,0.235408 0.10909,0.328591 0.10911,0.328594 -1.18033,-0.161785 -1.18033,-0.161782 -0.54605,0.546036 -0.54602,0.54604 -0.1751,0.933341 -0.1751,0.933344 0.23516,0.994368 0.23516,0.99437 0.67111,0.376688 0.67112,0.376684 0.70927,-0.178014 0.70927,-0.178014 v -0.78871 -0.78871 h -0.66146 -0.66146 v -0.396875 -0.396875 h 1.05833 1.05834 v 1.461757 1.461757 l -0.67869,0.258035 -0.67868,0.258034 -0.71038,-0.0039 -0.71038,-0.0039 -0.63928,-0.326829 z m 5.2695,-3.237245 v -3.571875 l 0.33073,0.0019 0.33073,0.0019 1.38255,2.577843 1.38255,2.577846 0.007,-2.579687 0.007,-2.579688 h 0.39688 0.39687 v 3.571875 3.571875 l -0.33073,-0.0019 -0.33073,-0.0019 -1.38255,-2.577843 -1.38255,-2.577846 -0.007,2.579687 -0.007,2.579687 h -0.39688 -0.39687 z m 6.61458,0 v -3.571875 l 0.99219,0.0036 0.99219,0.0036 0.58539,0.156943 0.58539,0.156943 0.53909,1.113604 0.53908,1.113605 -0.0201,1.040942 -0.0201,1.040945 -0.33277,0.926042 -0.33276,0.926042 -0.63929,0.326829 -0.63929,0.326829 -1.12448,0.0039 -1.12448,0.0039 v -3.571875 z m 2.57135,2.377175 0.57246,-0.400952 0.17494,-1.16671 0.17497,-1.166709 -0.31284,-0.947912 -0.31285,-0.947912 -0.49056,-0.262554 -0.49059,-0.262551 h -0.54658 -0.54655 v 2.778125 2.778125 h 0.60259 0.60259 z M 11.604607,73.877405 l -0.672055,-0.724783 -0.166389,-0.886924 -0.166388,-0.886925 0.158258,-1.364855 0.158258,-1.364855 0.684233,-0.595313 0.684234,-0.595312 h 0.501962 0.501962 l 0.673098,0.306683 0.673094,0.306683 0.26392,0.950087 0.263922,0.950088 0.0016,1.132978 0.0016,1.132977 -0.374476,0.896247 -0.374475,0.896247 -0.534173,0.28588 -0.534397,0.28588 h -0.535853 -0.535853 z m 2.087266,-0.577598 0.460304,-0.508631 0.142459,-1.06211 0.14246,-1.062111 -0.179155,-0.954976 -0.179155,-0.954976 -0.678275,-0.309043 -0.678275,-0.309042 -0.630367,0.732847 -0.63037,0.732848 0.0011,1.242016 0.0011,1.242017 0.524287,0.859896 0.524288,0.859896 h 0.359757 0.359756 l 0.460307,-0.508631 z m 76.086294,0.905506 v -0.396875 h 0.926041 0.926042 v -2.236653 -2.236652 l -0.776668,0.445747 -0.776672,0.445747 -0.175828,-0.175831 -0.175832,-0.175831 0.9525,-0.9525 0.9525,-0.9525 V 67.714202 67.458438 H 92.027125 92.424 v 3.175 3.175 h 0.926042 0.926041 v 0.396875 0.396875 h -2.248958 -2.248958 z m 6.085417,0 v -0.396875 h 0.926041 0.926042 v -2.263962 -2.263961 l -0.588039,0.411878 -0.588037,0.411878 h -0.338005 -0.338002 v -0.233456 -0.233456 l 1.089461,-1.08946 1.089459,-1.089461 h 0.233458 0.233455 v 3.175 3.175 h 0.926042 0.926041 v 0.396875 0.396875 H 98.112542 95.863584 Z M -76.380169,63.357396 v -3.571875 h 0.396875 0.396875 v 3.175 3.175 h 1.455208 1.455209 v 0.396875 0.396875 h -1.852084 -1.852083 z m 4.510812,3.241146 0.01289,-0.330729 1.011994,-1.452827 1.011994,-1.452827 -1.02489,-1.509218 -1.024879,-1.509218 v -0.279101 -0.279101 l 0.330729,0.0014 0.330729,0.0014 0.920261,1.438784 0.92026,1.438785 0.931823,-1.43662 0.931823,-1.43662 0.330729,-0.0035 0.330729,-0.0036 v 0.279101 0.279101 l -1.02489,1.509218 -1.02489,1.509218 1.011994,1.452827 1.011995,1.452827 0.01288,0.330729 0.01291,0.330729 -0.330729,-0.0035 -0.330729,-0.0035 -0.931823,-1.43662 -0.931823,-1.43662 -0.92026,1.438785 -0.920261,1.438784 -0.330729,0.0014 -0.330729,0.0014 0.01288,-0.330729 z m 6.337105,-0.06615 v -0.396875 h 0.926041 0.926042 V 63.735064 61.33461 l -0.69714,0.54837 -0.69714,0.548371 h -0.228902 -0.228901 v -0.343179 -0.343178 l 1.003342,-0.979738 1.003345,-0.979739 h 0.319572 0.319574 v 3.175 3.175 h 0.79375 0.79375 v 0.396875 0.396875 h -2.116667 -2.116666 z m 85.989584,-3.204857 v -3.601732 l 1.880929,0.106281 1.880928,0.106283 0.36803,0.503311 0.36803,0.503312 v 0.760574 0.760575 l -0.273891,0.511772 -0.273894,0.511773 h -0.371952 -0.371951 l -0.162147,0.26236 -0.162147,0.262359 0.807992,1.174374 0.80799,1.174375 v 0.283057 0.283058 l -0.330729,-0.0023 -0.330729,-0.0023 -1.021316,-1.585185 -1.021313,-1.585211 h -0.500041 -0.500039 v 1.5875 1.5875 h -0.396875 -0.396875 z m 3.386667,-0.684518 0.3175,-0.3175 v -0.555625 -0.555625 l -0.3175,-0.3175 -0.3175,-0.3175 h -1.137708 -1.137709 v 1.190625 1.190625 h 1.137709 1.137708 z m 2.963333,0.714375 v -3.571875 h 1.084493 1.084493 l 0.895149,0.424777 0.895151,0.424776 0.267841,0.964286 0.26784,0.964286 v 0.661459 0.661458 l -0.26217,0.926042 -0.262168,0.926041 -0.923271,0.595313 -0.923269,0.595312 h -1.062046 -1.062043 z m 2.829518,2.139576 0.742358,-0.63855 v -1.633786 -1.633785 l -0.624624,-0.50579 -0.624625,-0.50579 h -0.764437 -0.76444 v 2.778125 2.778125 h 0.646706 0.646702 z m 3.255899,1.035424 v -0.396875 h 0.926042 0.926042 V 63.735064 61.33461 l -0.69714,0.54837 -0.697141,0.548371 h -0.228901 -0.228902 v -0.343179 -0.343178 l 1.003343,-0.979738 1.003345,-0.979739 h 0.319571 0.319575 v 3.175 3.175 h 0.926041 0.926042 v 0.396875 0.396875 h -2.248958 -2.248959 z m 26.193751,-3.175 v -3.571875 h 0.396875 0.396875 v 3.175 3.175 h 1.455208 1.455208 v 0.396875 0.396875 H 60.938583 59.0865 Z m 5.027083,-0.03276 v -3.604638 l 1.499164,0.124322 1.499163,0.124322 0.482293,0.595607 0.482293,0.595606 0.309383,1.032626 0.309383,1.032627 -0.33209,1.108407 -0.332086,1.108407 -0.796108,0.743676 -0.796107,0.743676 h -1.162645 -1.162643 z m 2.732191,2.023476 0.662564,-0.787412 0.165632,-0.754123 0.165634,-0.754124 L 67.545679,62.279365 67.25175,61.50628 66.832285,61.042775 66.412818,60.57927 h -0.752743 -0.752742 v 2.778125 2.778125 h 0.63794 0.637936 z M 70.199,66.532396 v -0.396875 h 0.79375 0.79375 V 63.87156 61.607599 l -0.588039,0.411878 -0.588037,0.411878 H 70.404711 70.199 l 0.0072,-0.33073 0.0072,-0.330729 0.922444,-0.992187 0.922443,-0.992188 h 0.261022 0.261022 v 3.175 3.175 h 0.926042 0.926041 v 0.396875 0.396875 h -2.116666 -2.116667 v -0.396875 z"
       id="path1572" />
  </g>
</svg>
