<?xml version="1.0" encoding="UTF-8" standalone="no"?>
<!-- Created with Inkscape (http://www.inkscape.org/) -->

<svg
   width="512.36554mm"
   height="199.59387mm"
   viewBox="0 0 512.36554 199.59387"
   version="1.1"
   id="svg5"
   inkscape:version="1.1.2 (b8e25be833, 2022-02-05)"
   sodipodi:docname="circuitdiagram.svg"
   xmlns:inkscape="http://www.inkscape.org/namespaces/inkscape"
   xmlns:sodipodi="http://sodipodi.sourceforge.net/DTD/sodipodi-0.dtd"
   xmlns="http://www.w3.org/2000/svg"
   xmlns:svg="http://www.w3.org/2000/svg">
  <sodipodi:namedview
     id="namedview7"
     pagecolor="#ffffff"
     bordercolor="#666666"
     borderopacity="1.0"
     inkscape:pageshadow="2"
     inkscape:pageopacity="0.0"
     inkscape:pagecheckerboard="0"
     inkscape:document-units="mm"
     showgrid="false"
     inkscape:zoom="0.98520767"
     inkscape:cx="844.492"
     inkscape:cy="490.25197"
     inkscape:window-width="3840"
     inkscape:window-height="1526"
     inkscape:window-x="2869"
     inkscape:window-y="49"
     inkscape:window-maximized="1"
     inkscape:current-layer="layer1" />
  <defs
     id="defs2" />
  <g
     inkscape:label="Layer 1"
     inkscape:groupmode="layer"
     id="layer1"
     transform="translate(213.07656,-4.2660668)">
    <path
       style="fill:#000000;stroke-width:0.264583"
       d="m 260.57144,203.68263 -0.17639,-0.17638 v -6.17362 -6.17361 H 234.50163 208.6082 l -0.63756,1.23888 -0.63754,1.23887 -1.15959,0.61321 -1.15962,0.61321 h -0.97509 -0.9751 l -1.15961,-0.61321 -1.15959,-0.61321 -0.63754,-1.23887 -0.63757,-1.23888 H 118.18151 36.893621 l -0.637545,1.23888 -0.637545,1.23887 -1.159603,0.61321 -1.159603,0.61321 h -0.975103 -0.975103 l -1.152142,-0.60927 -1.152138,-0.60926 -0.622234,-1.17667 -0.622231,-1.17667 -52.176096,-0.1323 -52.17609,-0.13229 -0.0708,-6.87916 -0.0708,-6.87917 0.45211,-0.33073 0.45211,-0.33073 h 0.78608 0.78608 l 1.14069,-0.66849 1.14069,-0.66849 0.65483,-1.11745 0.65482,-1.11744 0.17098,-1.06945 0.17097,-1.06945 -0.31425,-1.17951 -0.31426,-1.17951 -1.26794,-1.22839 -1.26794,-1.22839 -1.1548,-0.1914 -1.1548,-0.1914 -0.46302,-0.24316 -0.46302,-0.24317 v -0.52816 -0.52816 l 0.33073,-0.10424 0.33073,-0.10424 1.27773,-0.17139 1.27772,-0.1714 1.27731,-1.23742 1.2773,-1.23741 0.31426,-1.17951 0.31425,-1.17951 -0.17097,-1.06945 -0.17098,-1.06945 -0.64545,-1.10145 -0.64545,-1.10146 -0.9699,-0.59943 -0.96989,-0.59943 -1.34755,-0.30227 -1.34755,-0.30228 -0.0847,-0.57771 -0.0847,-0.57771 0.34928,-0.11136 0.34929,-0.11136 1.27773,-0.17139 1.27773,-0.1714 1.2773,-1.23742 1.27731,-1.23741 0.31425,-1.17951 0.31426,-1.17951 -0.17098,-1.06945 -0.17098,-1.06945 -0.64545,-1.10145 -0.64544,-1.10146 -0.9699,-0.59943 -0.9699,-0.59942 -1.34755,-0.3035 -1.34755,-0.30349 v -0.64146 -0.64146 l 1.05834,-0.14848 1.05833,-0.14848 0.92604,-0.47703 0.92604,-0.47704 0.72054,-0.67398 0.72053,-0.67398 0.43368,-1.3057 0.43369,-1.3057 -0.1757,-1.09897 -0.1757,-1.09897 -0.64545,-1.10145 -0.64544,-1.10145 -0.9699,-0.59943 -0.9699,-0.59943 -1.34755,-0.30346 -1.34755,-0.30347 -0.0684,-14.04108 -0.0684,-14.041086 -2.97425,-1.085942 -2.97426,-1.085943 -2.11667,-0.76671 -2.11666,-0.766712 v -0.581715 -0.581716 l 6.35,-2.325291 6.34999,-2.325293 3.04271,-1.196842 3.04271,-1.196843 -0.66146,-0.25391 -0.66146,-0.25391 -6.74687,-2.541278 -6.74687,-2.541278 -1.98438,-0.768094 -1.98437,-0.768093 v -0.587502 -0.587499 l 6.35,-2.325291 6.34999,-2.325293 3.04271,-1.197597 3.04271,-1.197597 -0.52917,-0.214818 -0.52916,-0.21482 -8.86354,-3.223437 -8.86354,-3.223438 V 64.41559 63.827996 l 1.98437,-0.768093 1.98438,-0.768094 6.74687,-2.541278 6.74687,-2.541278 0.66146,-0.250639 0.66146,-0.250643 -4.23333,-1.661684 -4.23334,-1.661684 -0.13229,-5.580388 -0.13229,-5.580385 -1.17667,-0.621877 -1.17667,-0.621876 -0.62171,-1.176671 -0.62172,-1.176671 -4.39883,-0.132292 -4.39883,-0.132292 -0.29572,-1.483092 -0.29572,-1.48309 -0.44967,-0.686282 -0.44967,-0.686282 -0.92301,-0.741045 -0.92301,-0.741042 -1.2625,-0.279186 -1.26252,-0.279185 -1.31617,0.259847 -1.31618,0.259845 -1.24222,1.242216 -1.242208,1.242219 -0.17334,1.290663 -0.17334,1.290664 -0.10423,0.33073 -0.10424,0.330729 h -0.52816 -0.52816 l -0.2739,-0.511773 -0.27389,-0.511773 -10e-4,-0.744998 -0.001,-0.744998 -0.50729,-0.831956 -0.5073,-0.831953 -0.94118,-0.755547 -0.94118,-0.755544 -1.26251,-0.279186 -1.26251,-0.279185 -1.31618,0.259847 -1.31618,0.259845 -1.23296,1.232966 -1.23297,1.232966 -0.19356,1.167622 -0.19356,1.167625 -0.24317,0.463021 -0.24317,0.463021 h -0.52816 -0.52816 l -0.10424,-0.330729 -0.10423,-0.33073 -0.17334,-1.290664 -0.17334,-1.290663 -1.24221,-1.242219 -1.24222,-1.242216 -1.31618,-0.256927 -1.31617,-0.256926 -1.16613,0.233926 -1.16613,0.233929 -0.95712,0.633394 -0.95713,0.633396 -0.50845,0.860738 -0.50845,0.860737 -0.29749,1.326332 -0.2975,1.32633 -0.57771,0.0847 -0.57772,0.0847 -0.11135,-0.349284 -0.11136,-0.349287 -0.17334,-1.290664 -0.17334,-1.290664 -1.24221,-1.242219 -1.24222,-1.242216 -1.31618,-0.256926 -1.31617,-0.256927 -1.16613,0.233926 -1.16612,0.233929 -0.95713,0.633394 -0.95713,0.633397 -0.51444,0.864153 -0.51444,0.86415 -0.29362,1.455208 -0.29362,1.455209 -19.18584,0.06786 -19.18583,0.06786 -5.53181,6.346589 -5.53167,6.34659 -12.30312,-0.06445 -12.30313,-0.06445 V 37.568405 24.074656 l 12.30313,-0.06076 12.30312,-0.06076 5.54724,6.47691 5.54724,6.476909 h 18.44492 18.44492 l 0.41093,-1.413515 0.41091,-1.413513 0.53845,-0.684524 0.53845,-0.684522 1.07108,-0.848313 1.07108,-0.848314 1.63635,-0.342476 1.63634,-0.342477 1.67188,0.349419 1.67188,0.349417 0.70408,0.624305 0.70408,0.624305 0.76365,0.856483 0.76365,0.85648 0.50296,-0.639413 0.50296,-0.639416 1.07109,-0.848313 1.07108,-0.848314 1.63635,-0.342476 1.63634,-0.342477 1.67188,0.349419 1.67188,0.349417 0.69907,0.624305 0.69908,0.624305 0.8264,0.896091 0.82641,0.896093 0.56344,-0.791292 0.56345,-0.791289 0.96962,-0.739563 0.96961,-0.739563 1.61959,-0.33896 1.61957,-0.338963 1.63554,0.341834 1.63553,0.341833 1.0719,0.848957 1.07189,0.848956 0.51093,0.649536 0.51092,0.649533 0.54245,-0.761798 0.54245,-0.761802 0.969618,-0.739563 0.96961,-0.739563 1.61958,-0.33896 1.61958,-0.338963 1.63554,0.341834 1.63553,0.341833 1.0719,0.848957 1.07189,0.848956 0.53845,0.684522 0.53844,0.684524 0.41092,1.413513 0.41092,1.413515 h 3.64966 3.64964 l 0.63755,-1.238871 0.63755,-1.238872 1.1596,-0.613212 1.1596,-0.613211 h 0.9751 0.97511 l 1.1596,0.613211 1.1596,0.613212 0.63755,1.238872 0.63754,1.238871 h 49.537892 49.53789 l 0.637545,-1.238871 0.637546,-1.238872 1.159602,-0.613212 1.159603,-0.613211 h 0.975103 0.975103 l 1.159603,0.613211 1.159603,0.613212 0.638976,1.241655 0.638977,1.241653 11.363062,-0.06893 11.363087,-0.06893 1.927727,-5.027084 1.927755,-5.027083 h 0.587745 0.587745 l 2.325291,6.35 2.32529,6.35 1.19761,3.042708 1.197584,3.042709 0.214815,-0.529167 0.214815,-0.529167 3.223445,-8.863541 3.223445,-8.863542 h 0.587587 0.587587 l 0.768111,1.984375 0.768086,1.984375 2.54127,6.746875 2.541296,6.746875 0.253894,0.661458 0.253921,0.661459 1.196843,-3.042709 1.196842,-3.042708 2.325291,-6.35 2.32529,-6.35 h 0.588883 0.58891 l 2.430542,6.35 2.430568,6.35 1.030602,2.844271 1.03063,2.844271 h 0.1473 0.14732 l 1.481,-4.034896 1.48103,-4.034896 13.9078,-0.06848 13.90777,-0.06847 0.41024,-1.411184 0.41024,-1.411185 0.53845,-0.684524 0.53845,-0.684523 1.07109,-0.848312 1.07109,-0.848315 1.63634,-0.342476 1.63634,-0.342477 1.67187,0.349419 1.67188,0.349417 0.70408,0.624305 0.70409,0.624306 0.76364,0.856483 0.76366,0.85648 0.50295,-0.639414 0.50297,-0.639416 1.07109,-0.848312 1.07108,-0.848315 1.63635,-0.342476 1.63634,-0.342477 1.67187,0.349419 1.67188,0.349417 0.69908,0.624305 0.69908,0.624306 0.8264,0.896091 0.8264,0.896093 0.56346,-0.791292 0.56343,-0.791289 0.96962,-0.739564 0.96962,-0.739563 1.61959,-0.33896 1.61957,-0.338963 1.63555,0.341834 1.63552,0.341833 1.0719,0.848958 1.07188,0.848955 0.51094,0.649537 0.51091,0.649533 0.54245,-0.761799 0.54245,-0.761801 0.96962,-0.739564 0.96962,-0.739563 1.61959,-0.33896 1.61957,-0.338963 1.63555,0.341834 1.63552,0.341833 1.0719,0.848958 1.07188,0.848955 0.53846,0.684523 0.53845,0.684524 0.40995,1.410192 0.40994,1.41019 9.44105,0.06947 9.44105,0.06947 0.0671,37.436166 0.067,37.436168 8.95694,-8.95403 8.95694,-8.954026 0.49797,0.0959 0.49795,0.0959 0.0959,0.498018 0.0959,0.498014 -9.35188,9.354674 -9.35188,9.35468 9.35188,9.35467 9.35188,9.35467 -0.0959,0.49802 -0.0959,0.49802 -0.49795,0.0959 -0.49797,0.0959 -8.95786,-8.95495 -8.95784,-8.95494 v 34.95394 34.95394 l 1.2464,0.64143 1.2464,0.64142 0.64143,1.2464 0.64142,1.2464 h 25.88864 25.88863 l 0.0709,-6.28385 0.0709,-6.28385 13.62604,-0.0632 13.62604,-0.0632 5.75469,6.59331 5.75468,6.5933 v 0.30128 0.30128 l -5.75468,6.59167 -5.75469,6.59167 -13.51579,0.005 -13.51582,0.005 -0.17637,-0.17638 z m 31.66211,-7.36423 5.21298,-5.95313 -5.21298,-5.95312 -5.21298,-5.95313 h -12.519 -12.51902 v 11.90625 11.90625 h 12.51902 12.519 z m -15.08337,2.10759 -0.83963,-0.37279 -0.14393,-0.2329 -0.14396,-0.23291 -1.94479,0.12481 -1.94482,0.12481 -0.89824,-0.46449 -0.89823,-0.4645 -0.53901,-0.67322 -0.53898,-0.67322 -0.44252,-1.20909 -0.44251,-1.20909 v -2.51354 -2.51354 l 0.44251,-1.20909 0.44252,-1.20909 0.53898,-0.67322 0.53901,-0.67322 0.83693,-0.4328 0.83693,-0.43279 h 1.48148 1.48148 l 0.71448,0.37325 0.71446,0.37326 0.69172,0.75122 0.69176,0.75123 0.30043,1.24164 0.30046,1.24164 v 2.41151 2.4115 l -0.30186,1.24165 -0.30189,1.24164 -0.35957,0.41771 -0.3596,0.41771 v 0.13742 0.13742 l 1.07075,0.48283 1.07074,0.48284 -0.0786,0.54953 -0.0786,0.54954 -0.52917,0.0496 -0.52916,0.0496 z m -3.31996,-2.94789 -0.70803,-0.70802 -1.13805,-0.15188 -1.13805,-0.15188 v -0.66146 -0.66146 l 1.11154,-0.0807 1.11154,-0.0807 0.74054,0.46333 0.74054,0.46333 0.55153,0.65226 0.55152,0.65226 0.29858,-0.18453 0.29856,-0.18453 0.27292,-0.98263 0.27289,-0.98262 v -2.24896 -2.24896 l -0.27083,-0.97518 -0.27085,-0.97518 -0.80632,-0.67847 -0.80632,-0.67846 h -1.26693 -1.26693 l -0.67209,0.52867 -0.6721,0.52868 -0.42193,1.23825 -0.4219,1.23825 v 2.0224 2.0224 l 0.4219,1.23825 0.42193,1.23825 0.6721,0.52867 0.67209,0.52868 h 1.21507 1.21507 z m -245.433976,-7.15298 0.641422,-1.2464 1.246404,-0.64142 1.246402,-0.64143 v -35.08625 -35.08626 l -9.090122,9.08726 -9.090125,9.08726 -0.497983,-0.0959 -0.497983,-0.0959 -0.100939,-0.52412 -0.100936,-0.52413 9.490607,-9.32856 9.490606,-9.32857 -9.490606,-9.32857 -9.490607,-9.328563 0.100936,-0.524124 0.100939,-0.524124 0.497983,-0.0959 0.497983,-0.0959 9.090125,9.087261 9.090122,9.08726 V 77.224059 42.270092 L 30.28407,41.628671 29.037666,40.987249 28.396244,39.740845 27.754823,38.494443 h -49.53789 -49.537885 l -0.64143,1.246402 -0.64142,1.246404 -1.25198,0.644293 -1.25198,0.644289 0.0717,5.018048 0.0717,5.018045 4.89479,1.918364 4.894794,1.918364 v 0.584862 0.584861 l -9.092684,3.406932 -9.09269,3.406933 -0.14568,0.145685 -0.14569,0.145685 0.11025,0.0848 0.11024,0.0848 7.80521,2.824948 7.80521,2.824948 1.32292,0.503304 1.322914,0.503304 v 0.590179 0.59018 l -4.630204,1.824741 -4.63021,1.824744 -4.49792,1.626711 -4.49792,1.626711 -0.11024,0.08594 -0.11025,0.08594 0.14569,0.145685 0.14568,0.145685 9.09269,3.406933 9.092684,3.406932 v 0.582498 0.582499 l -5.159374,2.028923 -5.15937,2.028923 -4.0326,1.44273 -4.03259,1.442734 -2.7e-4,0.132291 -2.6e-4,0.132292 4.16515,1.488702 4.16516,1.488699 0.13229,13.978634 0.13229,13.97865 0.79375,0.16496 0.79375,0.16496 0.79375,0.41933 0.79375,0.41933 0.96304,1.01399 0.96303,1.01399 0.42939,0.85326 0.42939,0.85326 0.15724,1.52799 0.15724,1.52799 -0.55424,1.5875 -0.55424,1.5875 -1.00885,0.95257 -1.00884,0.95256 -0.36567,0.12189 -0.36567,0.12189 1.26129,1.16261 1.26128,1.16261 0.50226,0.9845 0.50225,0.9845 0.16825,1.43155 0.16825,1.43154 -0.44934,1.5646 -0.44934,1.5646 -1.37183,1.32292 -1.37183,1.32291 1.15137,1.04782 1.15136,1.04781 0.50156,0.98312 0.50155,0.98313 0.16825,1.43155 0.16825,1.43154 -0.44866,1.5646 -0.44867,1.5646 -1.39112,1.32081 -1.39112,1.3208 1.39045,1.32503 1.39044,1.32503 0.44934,1.56459 0.44934,1.5646 -0.16825,1.43155 -0.16825,1.43154 -0.50213,0.97261 -0.50214,0.97261 -1.01461,0.96303 -1.0146,0.96303 -0.84676,0.42603 -0.84675,0.42603 h -0.6746 -0.6746 v 5.68854 5.68854 h 51.425722 51.425714 l 0.641421,-1.2464 z m -66.060166,-25.79324 -0.135781,-0.35384 0.07082,-6.74232 0.07082,-6.74232 2.381249,-0.0711 2.38125,-0.0711 0.862314,0.53175 0.862315,0.53173 0.525758,0.86232 0.525759,0.86231 0.0011,2.17384 0.0011,2.17384 -0.432081,0.90608 -0.432083,0.90608 -0.993005,0.5581 -0.993005,0.5581 h -1.606491 -1.606492 l -0.07728,2.05052 -0.07727,2.05053 -0.596495,0.0847 -0.596496,0.0847 -0.135781,-0.35384 z m 4.881724,-5.89119 0.748549,-0.3871 0.164353,-0.42829 0.164354,-0.4283 v -1.8508 -1.8508 l -0.787442,-0.78744 -0.787445,-0.78744 -1.395367,0.0802 -1.39537,0.0802 -0.07528,3.02653 -0.07528,3.02653 0.133119,0.34691 0.13312,0.3469 h 1.21207 1.212066 z m -27.37555,1.6468 -0.131537,-0.34278 0.07082,-6.74232 0.07082,-6.74232 h 0.661459 0.661458 l 0.07091,6.27523 0.07091,6.27523 2.971795,0.0748 2.971794,0.0748 v 0.66145 0.66146 l -3.643444,0.0737 -3.643448,0.0737 z m 10.858015,-0.0318 -1.058333,-0.31887 v -0.65298 -0.65298 l 0.79375,0.0647 0.79375,0.0647 2.029754,0.16652 2.029756,0.16652 0.682223,-0.68222 0.682225,-0.68223 v -0.79102 -0.79102 l -0.596789,-0.69381 -0.596791,-0.69381 -1.820646,-0.50485 -1.820645,-0.50485 -0.637905,-0.41798 -0.637903,-0.41797 -0.515546,-0.84551 -0.515545,-0.84552 v -1.05834 -1.05833 l 0.525758,-0.86232 0.525759,-0.86231 0.862314,-0.52576 0.862314,-0.52576 1.984375,0.0191 1.984375,0.0191 0.926042,0.33421 0.926041,0.3342 v 0.63786 0.63785 l -0.79375,-0.0731 -0.793749,-0.0731 -1.910075,-0.15381 -1.910075,-0.15382 -0.801904,0.8019 -0.801905,0.80191 v 0.70216 0.70217 l 0.732256,0.73225 0.732255,0.73225 1.450557,0.34634 1.450557,0.34634 0.984647,0.61941 0.98465,0.6194 0.404413,0.78205 0.404415,0.78205 -0.0127,1.00533 -0.0127,1.00533 -0.452001,0.92435 -0.452001,0.92435 -0.924353,0.45201 -0.924354,0.452 -1.852083,-0.008 -1.852083,-0.008 -1.058334,-0.31888 z m 64.150878,-40.46635 -1.152139,-0.60926 -0.609266,-1.15214 -0.609267,-1.15214 v -0.97511 -0.9751 l 0.609267,-1.15214 0.609266,-1.15214 1.152139,-0.60927 1.152141,-0.60926 h 0.975104 0.975103 l 1.152141,0.60926 1.152139,0.60927 0.609267,1.15214 0.609266,1.15214 v 0.9751 0.97511 l -0.609266,1.15214 -0.609267,1.15214 -1.152139,0.60926 -1.152141,0.60927 H 16.97839 16.003286 Z m -75.00457,-35.690579 -0.135699,-0.353632 0.07074,-6.874822 0.07074,-6.874822 2.982778,-0.07487 2.98278,-0.07487 0.905994,0.691036 0.905997,0.691036 0.542996,0.920311 0.542997,0.920311 v 1.283509 1.283512 l -1.188152,1.222518 -1.188153,1.222518 -0.528966,0.195678 -0.528965,0.195678 1.7346,2.452505 1.7346,2.452502 -0.08633,0.453062 -0.08633,0.453062 -0.532074,0.07662 -0.532072,0.07662 -2.111057,-3.051636 -2.111058,-3.051635 -0.983522,-0.0016 -0.983522,-0.0016 -0.07481,2.976563 -0.07481,2.976562 -0.596495,0.0847 -0.596495,0.0847 -0.135703,-0.353629 z m 6.409325,-8.202054 0.872493,-0.845651 v -0.864933 -0.864934 l -0.821159,-0.935247 -0.821158,-0.935249 h -2.089258 -2.089258 v 2.645834 2.645833 h 2.037923 2.037927 z m 6.759472,7.981563 -1.12448,-0.499628 v -0.54832 -0.54832 l 0.342509,-0.131432 0.342508,-0.131434 1.145966,0.40432 1.145963,0.404321 h 1.316112 1.316109 l 0.899583,-0.899584 0.899583,-0.899583 v -0.519943 -0.519944 l -0.532193,-0.676576 -0.532196,-0.676577 -1.782908,-0.582631 -1.782911,-0.582631 -0.956982,-0.5252 -0.956979,-0.525198 -0.432083,-0.906084 -0.432081,-0.906085 v -0.775798 -0.775798 l 0.420892,-0.86887 0.420891,-0.868873 1.037849,-0.727605 1.037849,-0.727604 h 1.826615 1.826617 l 1.212559,0.519764 1.212561,0.519766 v 0.546872 0.546873 l -0.342508,0.131432 -0.342508,0.131434 -1.145966,-0.40432 -1.145964,-0.404321 h -1.393962 -1.393963 l -0.821729,0.767612 -0.821733,0.767612 v 0.819888 0.819888 l 0.493763,0.493763 0.493763,0.493763 1.292174,0.478139 1.292175,0.478142 1.190625,0.447884 1.190625,0.447884 0.718815,1.027607 0.718814,1.02761 0.0088,0.844772 0.0088,0.844772 -0.567693,0.962166 -0.56769,0.962168 -1.014553,0.640455 -1.01455,0.640459 -1.791194,-0.01868 -1.791195,-0.01868 -1.124479,-0.499628 z m 247.095448,106.44685 0.64143,-1.2464 1.2464,-0.64142 1.2464,-0.64143 v -34.95394 -34.95394 l -8.95784,8.95494 -8.95787,8.95494 -0.49797,-0.0959 -0.49794,-0.0959 -0.0959,-0.49801 -0.0959,-0.49802 9.35189,-9.35467 9.35188,-9.35468 -9.35188,-9.35467 -9.35189,-9.354677 0.0959,-0.498014 0.0959,-0.498018 0.49794,-0.0959 0.49797,-0.0959 8.95787,8.954939 8.95784,8.95495 V 75.207265 38.501126 l -9.43801,-0.06949 -9.438,-0.06949 -0.29607,-1.483092 -0.2961,-1.48309 -0.44965,-0.686282 -0.44966,-0.686282 -0.92303,-0.741045 -0.923,-0.741042 -1.26251,-0.279186 -1.26251,-0.279185 -1.31617,0.259847 -1.31617,0.259845 -1.24222,1.242216 -1.24222,1.242218 -0.17335,1.290664 -0.17333,1.290664 -0.10425,0.33073 -0.10422,0.330729 h -0.52816 -0.52816 l -0.2739,-0.511773 -0.27389,-0.511773 v -0.744998 -0.744998 l -0.50729,-0.831956 -0.50731,-0.831953 -0.94118,-0.755547 -0.94117,-0.755544 -1.26252,-0.279186 -1.26251,-0.279185 -1.31617,0.259847 -1.31617,0.259845 -1.23298,1.232966 -1.23296,1.232966 -0.19357,1.167622 -0.19357,1.167625 -0.24315,0.463021 -0.24318,0.463021 h -0.52816 -0.52816 l -0.10422,-0.330729 -0.10425,-0.33073 -0.17333,-1.290664 -0.17335,-1.290664 -1.24222,-1.242218 -1.24222,-1.242216 -1.31617,-0.256927 -1.31617,-0.256926 -1.16612,0.233926 -1.16613,0.233929 -0.95713,0.633394 -0.95713,0.633396 -0.50845,0.860738 -0.50845,0.860737 -0.29749,1.326332 -0.2975,1.32633 -0.57772,0.0847 -0.57769,0.0847 -0.11136,-0.349284 -0.11137,-0.349287 -0.17332,-1.290664 -0.17336,-1.290664 -1.24222,-1.242219 -1.24222,-1.242216 -1.31617,-0.256926 -1.31617,-0.256927 -1.16612,0.233926 -1.16613,0.233929 -0.95713,0.633394 -0.95713,0.633397 -0.51443,0.864153 -0.51445,0.86415 -0.29361,1.455208 -0.29358,1.455209 -14.04594,0.06845 -14.04593,0.06845 -0.67278,1.78363 -0.67276,1.78363 -1.17176,3.175 -1.17173,3.175 h -0.57825 -0.57825 l -3.40693,-9.09268 -3.406934,-9.092684 -0.145679,-0.145685 -0.14568,-0.145685 -0.08594,0.110241 -0.08594,0.110244 -1.626711,4.497917 -1.626712,4.497916 -1.824744,4.630209 -1.824752,4.630208 h -0.582904 -0.582903 l -3.406934,-9.092681 -3.406933,-9.092684 -0.14568,-0.145685 -0.14568,-0.145685 -0.0848,0.110241 -0.0848,0.110244 -2.824957,7.805208 -2.824929,7.805209 -0.503317,1.322916 -0.50329,1.322917 h -0.589783 -0.589783 l -2.028904,-5.159375 -2.028931,-5.159375 -1.442746,-4.032589 -1.44272,-4.032591 -0.159491,-0.0024 -0.159491,-0.0024 -1.59086,4.167187 -1.590834,4.167188 -11.928977,0.132291 -11.928977,0.132292 -0.626084,1.184132 -0.626083,1.184135 -1.238872,0.637545 -1.238871,0.637545 v 34.821692 34.82165 l 8.957849,-8.95495 8.957855,-8.954932 0.497972,0.0959 0.497946,0.0959 0.100938,0.524123 0.100939,0.524124 -9.490601,9.328565 -9.492591,9.32871 9.490606,9.32857 9.490601,9.32857 -0.100938,0.52413 -0.100939,0.52412 -0.497946,0.0959 -0.497972,0.0959 -8.957854,-8.95494 -8.95785,-8.95494 v 34.95394 34.95394 l 1.246402,0.64143 1.246404,0.64142 0.641422,1.2464 0.641421,1.2464 h 81.287892 81.28788 z m -139.356855,-68.14513 -0.128667,-0.33528 0.0708,-6.74232 0.07083,-6.74232 2.564157,-0.0755 2.564156,-0.0755 1.005787,0.47359 1.005787,0.47358 0.452252,0.92487 0.452226,0.92487 0.0127,0.87268 0.0127,0.87267 -0.504878,1.04496 -0.504851,1.04496 0.25101,0.15512 0.250984,0.15513 0.650742,1.03084 0.650743,1.03083 v 1.19235 1.19235 l -0.727604,1.03785 -0.727604,1.03785 -0.868865,0.42089 -0.868892,0.4209 h -2.777437 -2.777463 l -0.128641,-0.33529 z m 6.521396,-2.07395 0.76761,-0.82173 v -0.8833 -0.88331 l -0.620607,-0.7215 -0.620607,-0.7215 -2.28981,-0.12018 -2.289809,-0.12018 v 2.54672 2.54672 h 2.142807 2.142807 z m -0.799544,-6.56625 0.773404,-0.77339 v -0.82613 -0.82613 l -0.64942,-0.64943 -0.649446,-0.64943 h -1.864096 -1.864121 v 2.24895 2.24896 h 1.740138 1.740138 z m 7.520278,8.61595 -1.058333,-0.31888 v -0.65298 -0.65298 l 0.661458,0.0483 0.661459,0.0483 1.763183,0.18455 1.763157,0.18454 0.691832,-0.17364 0.691806,-0.17363 0.424974,-0.89118 0.424974,-0.89117 -0.174705,-0.69611 -0.174731,-0.69611 -0.46818,-0.46819 -0.468206,-0.4682 -1.543156,-0.34534 -1.543182,-0.34535 -1.000602,-0.70108 -1.000601,-0.70109 -0.420872,-0.86887 -0.4209,-0.86887 v -0.7758 -0.7758 l 0.432091,-0.90608 0.432065,-0.90608 0.993008,-0.5581 0.993007,-0.5581 1.948365,0.0201 1.948339,0.0201 0.926042,0.3342 0.926041,0.33421 v 0.63785 0.63785 l -0.79375,-0.0679 -0.79375,-0.0679 -1.511723,-0.16164 -1.511697,-0.16164 -0.677836,0.17013 -0.677836,0.17012 -0.522419,0.52244 -0.522447,0.52242 v 0.81989 0.81989 l 0.786024,0.73426 0.786025,0.73425 1.264496,0.30395 1.264497,0.30394 0.957183,0.41527 0.957183,0.41526 0.564171,1.00382 0.564171,1.00381 v 0.98629 0.98628 l -0.558112,0.99301 -0.558086,0.993 -0.906092,0.43209 -0.906092,0.43208 -1.776941,-0.0203 -1.776968,-0.0204 z m -28.717873,-2.3664 -1.152128,-0.60926 -0.609283,-1.15214 -0.609256,-1.15214 v -0.97511 -0.9751 l 0.609256,-1.15214 0.609283,-1.15214 1.152128,-0.60927 1.152154,-0.60926 h 0.975096 0.975095 l 1.152154,0.60926 1.152129,0.60927 0.609282,1.15214 0.609256,1.15214 v 0.9751 0.97511 l -0.609256,1.15214 -0.609282,1.15214 -1.152129,0.60926 -1.152154,0.60927 h -0.975095 -0.975096 z m 141.287498,0 -1.15213,-0.60926 -0.60929,-1.15214 -0.60925,-1.15214 v -0.97511 -0.9751 l 0.60925,-1.15214 0.60929,-1.15214 1.15213,-0.60927 1.15215,-0.60926 h 0.9751 0.97509 l 1.15216,0.60926 1.15212,0.60927 0.60929,1.15214 0.60925,1.15214 v 0.9751 0.97511 l -0.60925,1.15214 -0.60929,1.15214 -1.15212,0.60926 -1.15216,0.60927 h -0.97509 -0.9751 z m -370.57826,-74.139964 5.21686,-5.957568 -5.22655,-6.080974 -5.22655,-6.080974 h -11.18641 -11.18641 v 12.038541 12.038542 h 11.1961 11.19609 z m -19.30083,1.090062 -0.15606,-0.406704 2.22982,-6.689458 2.22981,-6.689458 h 0.61632 0.61631 l 1.40897,4.233333 1.40897,4.233334 0.23258,0.529166 0.23257,0.529167 0.58558,1.936718 0.58557,1.936719 -0.15232,0.396943 -0.15232,0.396942 -0.5753,-0.0847 -0.5753,-0.0847 -0.57289,-1.719792 -0.57289,-1.719792 h -2.46848 -2.46849 l -0.57289,1.719792 -0.57289,1.719792 -0.5753,0.0847 -0.5753,0.0847 z m 6.70489,-5.252807 -0.12474,-0.33073 -0.75185,-2.315104 -0.75185,-2.315104 h -0.15551 -0.15552 l -0.75185,2.315104 -0.75185,2.315104 -0.12474,0.33073 -0.12474,0.330729 h 1.9087 1.90869 z m 429.07702,80.693359 -0.12867,-0.33528 0.0708,-6.74232 0.0708,-6.74232 2.526,-0.0751 2.52598,-0.0751 0.97827,0.40874 0.97827,0.40875 0.66294,1.05014 0.66291,1.05014 v 0.80426 0.80427 l -0.6572,1.04106 -0.6572,1.04106 0.48551,0.34274 0.48551,0.34275 0.43627,0.84675 0.43628,0.84676 v 1.26991 1.26991 l -0.52576,0.86231 -0.52575,0.86232 -0.86233,0.52576 -0.8623,0.52576 -2.98487,10e-4 -2.98487,0.001 -0.12865,-0.33529 z m 6.5156,-2.02561 0.77341,-0.7734 v -0.96379 -0.96378 l -0.26771,-0.5002 -0.26768,-0.5002 -0.98909,-0.27468 -0.98907,-0.27469 -1.65364,-0.002 -1.65365,-0.002 v 2.51354 2.51355 h 2.13702 2.13701 l 0.7734,-0.7734 z m -0.65534,-6.74077 0.89958,-0.89958 v -0.57598 -0.57598 l -0.7734,-0.7734 -0.77341,-0.77339 h -1.87243 -1.87243 v 2.24895 2.24896 h 1.74625 1.74625 z m 7.10432,8.76638 -0.12866,-0.33528 0.0708,-6.74232 0.0708,-6.74232 1.5875,-0.0872 1.5875,-0.0872 1.33109,0.29168 1.33109,0.29167 1.07299,1.38307 1.07299,1.38306 0.3079,1.24164 0.3079,1.24164 v 1.22088 1.22089 l -0.30848,1.24164 -0.30851,1.24164 -0.60436,0.92604 -0.60433,0.92604 -0.47623,0.57281 -0.47622,0.57281 -1.05833,0.28561 -1.05834,0.28562 -1.79424,0.002 -1.79425,0.002 -0.12864,-0.33529 z m 5.48696,-2.28029 0.71673,-0.80215 0.41037,-1.38187 0.41037,-1.38186 v -1.02544 -1.02544 l -0.29324,-1.16457 -0.29324,-1.16457 -0.83124,-0.95773 -0.83124,-0.95773 -1.65365,-0.14828 -1.65364,-0.14828 v 5.62975 5.62974 l 1.65102,-0.14971 1.65106,-0.14971 z m -33.6627,-0.11036 -1.15213,-0.60926 -0.60928,-1.15214 -0.60926,-1.15214 v -0.97511 -0.9751 l 0.60926,-1.15214 0.60928,-1.15214 1.15213,-0.60927 1.15216,-0.60926 h 0.97509 0.9751 l 1.15215,0.60926 1.15213,0.60927 0.60928,1.15214 0.60926,1.15214 v 0.9751 0.97511 l -0.60926,1.15214 -0.60928,1.15214 -1.15213,0.60926 -1.15215,0.60927 h -0.9751 -0.97509 z M 35.353953,33.925827 l -0.128659,-0.335285 0.07082,-6.742319 0.07082,-6.742321 2.645834,-0.07008 2.645833,-0.07008 0.862314,0.530687 0.862314,0.530687 0.525759,0.862314 0.525759,0.862314 v 1.058333 1.058334 l -0.512498,0.840509 -0.512501,0.840513 0.396484,0.329052 0.396483,0.329051 0.381595,0.913271 0.381582,0.91327 v 1.188434 1.188434 l -0.558098,0.993005 -0.558102,0.993005 -0.906084,0.432083 -0.906084,0.432081 h -2.777453 -2.777453 z m 5.821957,-1.416571 0.4283,-0.164354 0.38709,-0.748549 0.387088,-0.748548 v -0.90987 -0.909868 l -0.488926,-0.603798 -0.488923,-0.603797 -2.289202,-0.12015 -2.289198,-0.120153 v 2.546721 2.54672 h 1.962734 1.962738 z m -0.100086,-7.223628 0.773398,-0.773395 V 23.810068 23.107905 L 41.075824,22.334507 40.302428,21.56111 h -1.740146 -1.740143 v 2.248958 2.248959 h 1.740143 1.740146 z m 168.991186,8.659387 -0.98322,-0.261403 -0.92075,-1.019173 -0.92077,-1.019172 -0.33473,-1.139476 -0.3347,-1.139473 V 27.11736 24.868402 l 0.3347,-1.139475 0.33473,-1.139474 0.9289,-1.028191 0.92892,-1.02819 1.43809,-0.321834 1.43812,-0.321834 1.41938,0.317643 1.41938,0.317644 0.58894,0.626897 0.58894,0.626898 -0.0931,0.483586 -0.0931,0.483586 -0.48358,0.09313 -0.48358,0.09313 -0.65447,-0.614849 -0.65447,-0.614849 h -1.59526 -1.59525 l -0.87196,0.951473 -0.87196,0.951472 -0.2943,1.372244 -0.29429,1.372246 v 0.767704 0.767704 l 0.29429,1.372246 0.2943,1.372243 0.87196,0.951473 0.87196,0.951474 h 1.59525 1.59526 l 0.65447,-0.61485 0.65447,-0.614849 0.48358,0.09313 0.48358,0.09313 0.0931,0.483584 0.0931,0.483587 -0.57486,0.611923 -0.57489,0.611926 -1.15374,0.290512 -1.15372,0.290515 -0.74274,-0.02734 -0.74273,-0.02735 z M 167.65274,22.5673 l -0.13578,-0.353841 0.0708,-6.74232 0.0708,-6.7423212 2.11249,-0.07839 2.11246,-0.07839 0.93025,0.427986 0.93022,0.427987 0.7276,1.0429982 0.72761,1.042999 v 2.118392 2.118393 l -0.66292,1.050137 -0.66294,1.050136 -0.95689,0.399814 -0.95687,0.399814 h -1.41179 -1.41176 l -0.0773,2.050521 -0.0773,2.050521 -0.59651,0.0847 -0.59647,0.0847 z m 5.18557,-6.277504 0.77341,-0.773398 v -1.844454 -1.844455 l -0.78095,-0.836002 -0.78094,-0.836003 -1.40187,0.08042 -1.40187,0.08042 -0.0753,3.026531 -0.0753,3.026531 0.13312,0.346907 0.13311,0.346906 h 1.35157 1.35157 z m -296.23147,2.033115 -0.13154,-0.342785 0.0708,-6.742321 0.0708,-6.7423202 h 0.66146 0.66145 l 0.0709,6.2752332 0.0709,6.275234 2.9718,0.07477 2.97179,0.07477 v 0.661458 0.661459 l -3.64344,0.07365 -3.64345,0.07365 z m 13.32405,-0.02328 -0.97355,-0.310395 -1.07187,-1.354383 -1.07186,-1.354383 -0.32355,-1.886763 -0.32354,-1.886763 0.32173,-1.8761942 0.32173,-1.876193 1.11302,-1.425097 1.11301,-1.425097 1.4261,-0.319148 1.42611,-0.319148 1.49104,0.31275 1.49105,0.312751 0.45858,0.595709 0.45857,0.595709 0.006,0.471325 0.006,0.471325 -0.41034,0.157461 -0.41033,0.157461 -0.66932,-0.628786 -0.66931,-0.628786 h -1.72873 -1.72874 l -0.87919,1.017083 -0.8792,1.017084 -0.28117,1.311044 -0.28115,1.3110432 v 0.767704 0.767704 l 0.28117,1.311044 0.28117,1.311044 0.8792,1.017083 0.87919,1.017084 h 1.72227 1.72227 l 0.53726,-0.486213 0.53726,-0.486212 0.47967,0.09238 0.47967,0.09238 0.0924,0.479669 0.0924,0.479668 -0.43636,0.482174 -0.43636,0.482174 -1.1592,0.29189 -1.1592,0.29189 -0.87503,-0.02033 -0.87502,-0.02033 z m 182.736441,0.03434 -0.135784,-0.353841 0.0708,-6.742321 0.07083,-6.7423202 2.898828,-0.07565 2.898801,-0.07565 0.699241,0.289628 0.699214,0.289627 0.833729,1.182821 0.833728,1.182821 v 1.188147 1.188148 l -0.677466,1.0731792 -0.677465,1.07318 -1.030155,0.461208 -1.030129,0.461209 1.725083,2.439063 1.72511,2.439064 -0.08633,0.453061 -0.08633,0.453062 -0.532077,0.07662 -0.532077,0.07661 -2.111058,-3.051634 -2.111057,-3.051635 -0.983509,-0.0015 -0.983536,-0.0015 -0.0748,2.976562 -0.07482,2.976563 -0.596503,0.0847 -0.596476,0.0847 -0.135785,-0.353841 z m 6.508486,-8.129588 0.773403,-0.7733972 v -0.918413 -0.918413 l -0.767609,-0.821732 -0.767609,-0.821731 h -2.142808 -2.142807 v 2.513542 2.5135422 h 2.137013 2.137013 z m 6.184397,8.111031 -0.128667,-0.335284 0.0708,-6.742321 0.07083,-6.7423202 1.719792,-0.08681 1.719791,-0.08681 1.331093,0.291249 1.331092,0.29125 1.112996,1.425097 1.113023,1.425097 0.321733,1.876193 0.321733,1.8761942 -0.321733,1.876194 -0.321733,1.876194 -1.102493,1.411639 -1.102518,1.411639 -1.128025,0.284042 -1.128024,0.284042 h -1.875526 -1.875525 z m 5.882877,-2.44254 0.843783,-0.976135 0.281173,-1.311044 0.281173,-1.311044 V 11.506947 10.739243 L 92.368047,9.4281998 92.086874,8.1171558 91.243091,7.1410208 90.399282,6.1648858 88.613821,6.0215668 86.828386,5.8782488 v 5.6286982 5.628699 l 1.785435,-0.143319 1.785461,-0.143318 z m 53.386649,2.450041 -0.13153,-0.342785 0.0708,-6.742321 0.0708,-6.7423202 h 0.66146 0.66146 l 0.0709,6.2752332 0.0709,6.275234 2.9718,0.07477 2.9718,0.07477 v 0.661458 0.661459 l -3.64345,0.07365 -3.64344,0.07365 z m 10.31589,-0.0075 -0.12867,-0.335283 0.0708,-6.742321 0.0708,-6.7423212 1.5875,-0.08724 1.5875,-0.08724 1.33109,0.291678 1.3311,0.291678 1.11299,1.425097 1.11302,1.425097 0.32174,1.876193 0.32173,1.8761942 -0.32173,1.876194 -0.32174,1.876194 -1.10249,1.411639 -1.10252,1.411639 -1.12802,0.284042 -1.12803,0.284042 h -1.74323 -1.74323 l -0.12864,-0.335283 z m 5.61877,-2.446977 0.8433,-0.971697 0.28118,-1.311044 0.28117,-1.311045 v -0.767704 -0.767704 l -0.28117,-1.3110432 -0.28118,-1.311044 -0.8433,-0.971698 -0.84331,-0.971698 -1.65364,-0.148279 -1.65365,-0.148279 v 5.6297452 5.629745 l 1.65365,-0.148279 1.65364,-0.148279 z"
       id="path1351" />
  </g>
</svg>
